%TF.GenerationSoftware,KiCad,Pcbnew,9.0.6*%
%TF.CreationDate,2025-12-22T23:17:33+09:00*%
%TF.ProjectId,CEI-TOOL,4345492d-544f-44f4-9c2e-6b696361645f,rev?*%
%TF.SameCoordinates,Original*%
%TF.FileFunction,Copper,L1,Top*%
%TF.FilePolarity,Positive*%
%FSLAX46Y46*%
G04 Gerber Fmt 4.6, Leading zero omitted, Abs format (unit mm)*
G04 Created by KiCad (PCBNEW 9.0.6) date 2025-12-22 23:17:33*
%MOMM*%
%LPD*%
G01*
G04 APERTURE LIST*
G04 Aperture macros list*
%AMRoundRect*
0 Rectangle with rounded corners*
0 $1 Rounding radius*
0 $2 $3 $4 $5 $6 $7 $8 $9 X,Y pos of 4 corners*
0 Add a 4 corners polygon primitive as box body*
4,1,4,$2,$3,$4,$5,$6,$7,$8,$9,$2,$3,0*
0 Add four circle primitives for the rounded corners*
1,1,$1+$1,$2,$3*
1,1,$1+$1,$4,$5*
1,1,$1+$1,$6,$7*
1,1,$1+$1,$8,$9*
0 Add four rect primitives between the rounded corners*
20,1,$1+$1,$2,$3,$4,$5,0*
20,1,$1+$1,$4,$5,$6,$7,0*
20,1,$1+$1,$6,$7,$8,$9,0*
20,1,$1+$1,$8,$9,$2,$3,0*%
%AMFreePoly0*
4,1,6,0.725000,-0.725000,-0.725000,-0.725000,-0.725000,0.125000,-0.125000,0.725000,0.725000,0.725000,0.725000,-0.725000,0.725000,-0.725000,$1*%
%AMFreePoly1*
4,1,23,0.885280,4.174580,0.889000,4.165600,0.889000,1.397000,0.885280,1.388020,0.884899,1.387654,0.254000,0.807226,0.254000,0.508000,0.250280,0.499020,0.241300,0.495300,0.241300,-0.508000,-0.241300,-0.508000,-0.241300,0.495300,-0.250280,0.499020,-0.254000,0.508000,-0.254000,0.807226,-0.884899,1.387654,-0.888989,1.396471,-0.889000,1.397000,-0.889000,4.165600,-0.885280,4.174580,
-0.876300,4.178300,0.876300,4.178300,0.885280,4.174580,0.885280,4.174580,$1*%
G04 Aperture macros list end*
%TA.AperFunction,SMDPad,CuDef*%
%ADD10RoundRect,0.225000X-0.225000X-0.250000X0.225000X-0.250000X0.225000X0.250000X-0.225000X0.250000X0*%
%TD*%
%TA.AperFunction,ComponentPad*%
%ADD11O,0.900000X1.700000*%
%TD*%
%TA.AperFunction,ComponentPad*%
%ADD12O,0.900000X2.000000*%
%TD*%
%TA.AperFunction,SMDPad,CuDef*%
%ADD13R,0.300000X1.140000*%
%TD*%
%TA.AperFunction,SMDPad,CuDef*%
%ADD14R,0.600000X1.140000*%
%TD*%
%TA.AperFunction,SMDPad,CuDef*%
%ADD15R,1.092200X2.794000*%
%TD*%
%TA.AperFunction,SMDPad,CuDef*%
%ADD16R,1.701800X0.660400*%
%TD*%
%TA.AperFunction,SMDPad,CuDef*%
%ADD17R,3.000000X1.600000*%
%TD*%
%TA.AperFunction,SMDPad,CuDef*%
%ADD18R,5.500000X1.000000*%
%TD*%
%TA.AperFunction,SMDPad,CuDef*%
%ADD19RoundRect,0.200000X0.200000X0.275000X-0.200000X0.275000X-0.200000X-0.275000X0.200000X-0.275000X0*%
%TD*%
%TA.AperFunction,SMDPad,CuDef*%
%ADD20R,0.400000X0.800000*%
%TD*%
%TA.AperFunction,SMDPad,CuDef*%
%ADD21R,0.800000X0.400000*%
%TD*%
%TA.AperFunction,SMDPad,CuDef*%
%ADD22FreePoly0,90.000000*%
%TD*%
%TA.AperFunction,SMDPad,CuDef*%
%ADD23R,1.450000X1.450000*%
%TD*%
%TA.AperFunction,SMDPad,CuDef*%
%ADD24R,0.700000X0.700000*%
%TD*%
%TA.AperFunction,SMDPad,CuDef*%
%ADD25RoundRect,0.225000X0.225000X0.250000X-0.225000X0.250000X-0.225000X-0.250000X0.225000X-0.250000X0*%
%TD*%
%TA.AperFunction,SMDPad,CuDef*%
%ADD26R,1.300000X1.400000*%
%TD*%
%TA.AperFunction,SMDPad,CuDef*%
%ADD27R,1.000000X2.800000*%
%TD*%
%TA.AperFunction,SMDPad,CuDef*%
%ADD28R,0.600000X1.700000*%
%TD*%
%TA.AperFunction,SMDPad,CuDef*%
%ADD29RoundRect,0.200000X-0.200000X-0.275000X0.200000X-0.275000X0.200000X0.275000X-0.200000X0.275000X0*%
%TD*%
%TA.AperFunction,SMDPad,CuDef*%
%ADD30R,0.950000X1.400000*%
%TD*%
%TA.AperFunction,SMDPad,CuDef*%
%ADD31R,0.431800X1.016000*%
%TD*%
%TA.AperFunction,SMDPad,CuDef*%
%ADD32FreePoly1,0.000000*%
%TD*%
%TA.AperFunction,SMDPad,CuDef*%
%ADD33RoundRect,0.032500X-0.397500X-0.097500X0.397500X-0.097500X0.397500X0.097500X-0.397500X0.097500X0*%
%TD*%
%TA.AperFunction,SMDPad,CuDef*%
%ADD34RoundRect,0.032500X-0.097500X-0.397500X0.097500X-0.397500X0.097500X0.397500X-0.097500X0.397500X0*%
%TD*%
%TA.AperFunction,ComponentPad*%
%ADD35C,0.400000*%
%TD*%
%TA.AperFunction,SMDPad,CuDef*%
%ADD36R,1.680000X1.680000*%
%TD*%
%TA.AperFunction,SMDPad,CuDef*%
%ADD37RoundRect,0.073750X-0.531250X-0.221250X0.531250X-0.221250X0.531250X0.221250X-0.531250X0.221250X0*%
%TD*%
%TA.AperFunction,ComponentPad*%
%ADD38C,4.400000*%
%TD*%
%TA.AperFunction,SMDPad,CuDef*%
%ADD39R,0.950000X1.020000*%
%TD*%
%TA.AperFunction,ViaPad*%
%ADD40C,0.600000*%
%TD*%
%TA.AperFunction,ViaPad*%
%ADD41C,0.400000*%
%TD*%
%TA.AperFunction,Conductor*%
%ADD42C,0.200000*%
%TD*%
%TA.AperFunction,Conductor*%
%ADD43C,0.150000*%
%TD*%
%TA.AperFunction,Conductor*%
%ADD44C,0.500000*%
%TD*%
%TA.AperFunction,Conductor*%
%ADD45C,0.300000*%
%TD*%
%TA.AperFunction,Conductor*%
%ADD46C,0.800000*%
%TD*%
%TA.AperFunction,Conductor*%
%ADD47C,0.250000*%
%TD*%
%TA.AperFunction,Conductor*%
%ADD48C,1.000000*%
%TD*%
G04 APERTURE END LIST*
D10*
%TO.P,C11,2*%
%TO.N,GND*%
X99550000Y-106500000D03*
%TO.P,C11,1*%
%TO.N,ESP-(GPIO2)*%
X98000000Y-106500000D03*
%TD*%
D11*
%TO.P,J1,S4,SHIELD*%
%TO.N,GND*%
X155065000Y-108250000D03*
%TO.P,J1,S3,SHIELD*%
X146415000Y-108250000D03*
D12*
%TO.P,J1,S2,SHIELD*%
X155065000Y-104080000D03*
%TO.P,J1,S1,SHIELD*%
X146415000Y-104080000D03*
D13*
%TO.P,J1,B8,SBU2*%
%TO.N,unconnected-(J1-SBU2-PadB8)*%
X148990000Y-103500000D03*
%TO.P,J1,B7,DN2*%
%TO.N,Net-(J1-DN1)*%
X149990000Y-103500000D03*
%TO.P,J1,B6,DP2*%
%TO.N,Net-(J1-DP1)*%
X151490000Y-103500000D03*
%TO.P,J1,B5,CC2*%
%TO.N,Net-(J1-CC2)*%
X152490000Y-103500000D03*
D14*
%TO.P,J1,B4_A9,VBUS*%
%TO.N,VBUS*%
X153140000Y-103500000D03*
%TO.P,J1,B1_A12,GND*%
%TO.N,GND*%
X153940000Y-103500000D03*
D13*
%TO.P,J1,A8,SBU1*%
%TO.N,unconnected-(J1-SBU1-PadA8)*%
X151990000Y-103500000D03*
%TO.P,J1,A7,DN1*%
%TO.N,Net-(J1-DN1)*%
X150990000Y-103500000D03*
%TO.P,J1,A6,DP1*%
%TO.N,Net-(J1-DP1)*%
X150490000Y-103500000D03*
%TO.P,J1,A5,CC1*%
%TO.N,Net-(J1-CC1)*%
X149490000Y-103500000D03*
D14*
%TO.P,J1,A4_B9,VBUS*%
%TO.N,VBUS*%
X148340000Y-103500000D03*
%TO.P,J1,A1_B12,GND*%
%TO.N,GND*%
X147540000Y-103500000D03*
%TD*%
D15*
%TO.P,J2,6*%
%TO.N,N/C*%
X189300000Y-93500000D03*
%TO.P,J2,5*%
X189300000Y-86050000D03*
D16*
%TO.P,J2,4*%
%TO.N,I2C_SCL*%
X192500000Y-91650000D03*
%TO.P,J2,3*%
%TO.N,I2C_SDA*%
X192500000Y-90400000D03*
%TO.P,J2,2*%
%TO.N,+3.3V*%
X192500000Y-89150000D03*
%TO.P,J2,1*%
%TO.N,GND*%
X192500000Y-87900000D03*
%TD*%
D17*
%TO.P,J6,S2*%
%TO.N,N/C*%
X191250000Y-104450000D03*
%TO.P,J6,S1*%
X191250000Y-97650000D03*
D18*
%TO.P,J6,2,2*%
%TO.N,GND*%
X189000000Y-102050000D03*
%TO.P,J6,1,1*%
%TO.N,Net-(C2-Pad1)*%
X189000000Y-100050000D03*
%TD*%
D19*
%TO.P,R15,2*%
%TO.N,ESP-(GPIO2)*%
X102350000Y-104500000D03*
%TO.P,R15,1*%
%TO.N,BAT*%
X104000000Y-104500000D03*
%TD*%
D20*
%TO.P,U1,1,GND*%
%TO.N,GND*%
X91940000Y-101350000D03*
%TO.P,U1,2,GND*%
X92740000Y-101350000D03*
%TO.P,U1,3,3V3*%
%TO.N,+3.3V*%
X93540000Y-101350000D03*
%TO.P,U1,4,NC*%
%TO.N,unconnected-(U1-NC-Pad4)*%
X94340000Y-101350000D03*
%TO.P,U1,5,GPIO2/ADC1_CH2*%
%TO.N,ESP-(GPIO2)*%
X95140000Y-101350000D03*
%TO.P,U1,6,GPIO3/ADC1_CH3*%
%TO.N,SPI_RST*%
X95940000Y-101350000D03*
%TO.P,U1,7,NC*%
%TO.N,unconnected-(U1-NC-Pad7)*%
X96740000Y-101350000D03*
%TO.P,U1,8,EN/CHIP_PU*%
%TO.N,RES_BTN*%
X97540000Y-101350000D03*
%TO.P,U1,9,NC*%
%TO.N,unconnected-(U1-NC-Pad9)*%
X98340000Y-101350000D03*
%TO.P,U1,10,NC*%
%TO.N,unconnected-(U1-NC-Pad10)*%
X99140000Y-101350000D03*
%TO.P,U1,11,GND*%
%TO.N,GND*%
X99940000Y-101350000D03*
D21*
%TO.P,U1,12,GPIO0/ADC1_CH0/XTAL_32K_P*%
%TO.N,I2C_SDA*%
X100840000Y-100250000D03*
%TO.P,U1,13,GPIO1/ADC1_CH1/XTAL_32K_N*%
%TO.N,I2C_SCL*%
X100840000Y-99450000D03*
%TO.P,U1,14,GND*%
%TO.N,GND*%
X100840000Y-98650000D03*
%TO.P,U1,15,NC*%
%TO.N,unconnected-(U1-NC-Pad15)*%
X100840000Y-97850000D03*
%TO.P,U1,16,GPIO10*%
%TO.N,SPI_BUSY*%
X100840000Y-97050000D03*
%TO.P,U1,17,NC*%
%TO.N,unconnected-(U1-NC-Pad17)*%
X100840000Y-96250000D03*
%TO.P,U1,18,GPIO4/ADC1_CH4*%
%TO.N,SPI_DC*%
X100840000Y-95450000D03*
%TO.P,U1,19,GPIO5/ADC2_CH0*%
%TO.N,SPI_CS*%
X100840000Y-94650000D03*
%TO.P,U1,20,GPIO6*%
%TO.N,SPI_CLK*%
X100840000Y-93850000D03*
%TO.P,U1,21,GPIO7*%
%TO.N,SPI_MOSI(DIN)*%
X100840000Y-93050000D03*
%TO.P,U1,22,GPIO8*%
%TO.N,unconnected-(U1-GPIO8-Pad22)*%
X100840000Y-92250000D03*
%TO.P,U1,23,GPIO9*%
%TO.N,BOOT_BTN*%
X100840000Y-91450000D03*
%TO.P,U1,24,NC*%
%TO.N,unconnected-(U1-NC-Pad24)*%
X100840000Y-90650000D03*
D20*
%TO.P,U1,25,NC*%
%TO.N,unconnected-(U1-NC-Pad25)*%
X99940000Y-89550000D03*
%TO.P,U1,26,GPIO18/USB_D-*%
%TO.N,USB_D-*%
X99140000Y-89550000D03*
%TO.P,U1,27,GPIO19/USB_D+*%
%TO.N,USB_D+*%
X98340000Y-89550000D03*
%TO.P,U1,28,NC*%
%TO.N,unconnected-(U1-NC-Pad28)*%
X97540000Y-89550000D03*
%TO.P,U1,29,NC*%
%TO.N,unconnected-(U1-NC-Pad29)*%
X96740000Y-89550000D03*
%TO.P,U1,30,GPIO20/U0RXD*%
%TO.N,MAIN_BTN*%
X95940000Y-89550000D03*
%TO.P,U1,31,GPIO21/U0TXD*%
%TO.N,unconnected-(U1-GPIO21{slash}U0TXD-Pad31)*%
X95140000Y-89550000D03*
%TO.P,U1,32,NC*%
%TO.N,unconnected-(U1-NC-Pad32)*%
X94340000Y-89550000D03*
%TO.P,U1,33,NC*%
%TO.N,unconnected-(U1-NC-Pad33)*%
X93540000Y-89550000D03*
%TO.P,U1,34,NC*%
%TO.N,unconnected-(U1-NC-Pad34)*%
X92740000Y-89550000D03*
%TO.P,U1,35,NC*%
%TO.N,unconnected-(U1-NC-Pad35)*%
X91940000Y-89550000D03*
D21*
%TO.P,U1,36,GND*%
%TO.N,GND*%
X91040000Y-90650000D03*
%TO.P,U1,37,GND*%
X91040000Y-91450000D03*
%TO.P,U1,38,GND*%
X91040000Y-92250000D03*
%TO.P,U1,39,GND*%
X91040000Y-93050000D03*
%TO.P,U1,40,GND*%
X91040000Y-93850000D03*
%TO.P,U1,41,GND*%
X91040000Y-94650000D03*
%TO.P,U1,42,GND*%
X91040000Y-95450000D03*
%TO.P,U1,43,GND*%
X91040000Y-96250000D03*
%TO.P,U1,44,GND*%
X91040000Y-97050000D03*
%TO.P,U1,45,GND*%
X91040000Y-97850000D03*
%TO.P,U1,46,GND*%
X91040000Y-98650000D03*
%TO.P,U1,47,GND*%
X91040000Y-99450000D03*
%TO.P,U1,48,GND*%
X91040000Y-100250000D03*
D22*
%TO.P,U1,49,GND*%
X93965000Y-97425000D03*
D23*
X95940000Y-97425000D03*
X97915000Y-97425000D03*
X93965000Y-95450000D03*
X95940000Y-95450000D03*
X97915000Y-95450000D03*
X93965000Y-93475000D03*
X95940000Y-93475000D03*
X97915000Y-93475000D03*
D24*
%TO.P,U1,50,GND*%
X90990000Y-89500000D03*
%TO.P,U1,51,GND*%
X100890000Y-89500000D03*
%TO.P,U1,52,GND*%
X100890000Y-101400000D03*
%TO.P,U1,53,GND*%
X90990000Y-101400000D03*
%TD*%
D25*
%TO.P,C1,2*%
%TO.N,GND*%
X164000000Y-100000000D03*
%TO.P,C1,1*%
%TO.N,Net-(U3-EN2)*%
X165550000Y-100000000D03*
%TD*%
%TO.P,C2,2*%
%TO.N,GND*%
X159490000Y-108500000D03*
%TO.P,C2,1*%
%TO.N,Net-(C2-Pad1)*%
X161040000Y-108500000D03*
%TD*%
D10*
%TO.P,C3,1*%
%TO.N,VSYS*%
X173500000Y-107000000D03*
%TO.P,C3,2*%
%TO.N,GND*%
X175050000Y-107000000D03*
%TD*%
%TO.P,C4,1*%
%TO.N,VSYS*%
X122000000Y-108500000D03*
%TO.P,C4,2*%
%TO.N,GND*%
X123550000Y-108500000D03*
%TD*%
%TO.P,C5,2*%
%TO.N,GND*%
X114490000Y-108500000D03*
%TO.P,C5,1*%
%TO.N,+3.3V*%
X112940000Y-108500000D03*
%TD*%
D25*
%TO.P,C6,2*%
%TO.N,+3.3V*%
X98000000Y-104500000D03*
%TO.P,C6,1*%
%TO.N,GND*%
X99550000Y-104500000D03*
%TD*%
%TO.P,C7,2*%
%TO.N,GND*%
X176725000Y-86500000D03*
%TO.P,C7,1*%
%TO.N,+3.3V*%
X178275000Y-86500000D03*
%TD*%
%TO.P,C8,2*%
%TO.N,GND*%
X108950000Y-102500000D03*
%TO.P,C8,1*%
%TO.N,+3.3V*%
X110500000Y-102500000D03*
%TD*%
%TO.P,C9,2*%
%TO.N,GND*%
X176725000Y-82500000D03*
%TO.P,C9,1*%
%TO.N,MAIN_BTN*%
X178275000Y-82500000D03*
%TD*%
D10*
%TO.P,C10,2*%
%TO.N,GND*%
X160265000Y-89500000D03*
%TO.P,C10,1*%
%TO.N,+3.3V*%
X158715000Y-89500000D03*
%TD*%
D26*
%TO.P,D1,P$2*%
%TO.N,GND*%
X169250000Y-93000000D03*
%TO.P,D1,P$1*%
%TO.N,VBUS*%
X164750000Y-93000000D03*
%TD*%
D27*
%TO.P,J4,S2,SHIELD*%
%TO.N,GND*%
X168400000Y-84850000D03*
%TO.P,J4,S1,SHIELD*%
X173350000Y-84850000D03*
D28*
%TO.P,J4,2,2*%
X171500000Y-88200000D03*
%TO.P,J4,1,1*%
%TO.N,MAIN_BTN*%
X170250000Y-88200000D03*
%TD*%
D27*
%TO.P,P1,P2,SHIELD*%
%TO.N,GND*%
X145990000Y-82525000D03*
%TO.P,P1,P1,SHIELD*%
X158440000Y-82525000D03*
D28*
%TO.P,P1,8,8*%
%TO.N,+3.3V*%
X156590000Y-85875000D03*
%TO.P,P1,7,7*%
%TO.N,GND*%
X155340000Y-85875000D03*
%TO.P,P1,6,6*%
%TO.N,SPI_MOSI(DIN)*%
X154090000Y-85875000D03*
%TO.P,P1,5,5*%
%TO.N,SPI_CLK*%
X152840000Y-85875000D03*
%TO.P,P1,4,4*%
%TO.N,SPI_CS*%
X151590000Y-85875000D03*
%TO.P,P1,3,3*%
%TO.N,SPI_DC*%
X150340000Y-85875000D03*
%TO.P,P1,2,2*%
%TO.N,SPI_RST*%
X149090000Y-85875000D03*
%TO.P,P1,1,1*%
%TO.N,SPI_BUSY*%
X147840000Y-85875000D03*
%TD*%
D29*
%TO.P,R1,2*%
%TO.N,GND*%
X161150000Y-104500000D03*
%TO.P,R1,1*%
%TO.N,BAT*%
X159500000Y-104500000D03*
%TD*%
D19*
%TO.P,R3,2*%
%TO.N,GND*%
X163850000Y-103500000D03*
%TO.P,R3,1*%
%TO.N,Net-(U3-TS)*%
X165500000Y-103500000D03*
%TD*%
%TO.P,R4,2*%
%TO.N,GND*%
X133850000Y-107500000D03*
%TO.P,R4,1*%
%TO.N,Net-(J1-CC1)*%
X135500000Y-107500000D03*
%TD*%
%TO.P,R5,2*%
%TO.N,GND*%
X163850000Y-102000000D03*
%TO.P,R5,1*%
%TO.N,Net-(U3-ISET)*%
X165500000Y-102000000D03*
%TD*%
D29*
%TO.P,R6,2*%
%TO.N,GND*%
X157150000Y-100500000D03*
%TO.P,R6,1*%
%TO.N,Net-(J1-CC2)*%
X155500000Y-100500000D03*
%TD*%
%TO.P,R7,2*%
%TO.N,GND*%
X175315000Y-101500000D03*
%TO.P,R7,1*%
%TO.N,Net-(U3-ILIM)*%
X173665000Y-101500000D03*
%TD*%
D30*
%TO.P,S1,2*%
%TO.N,GND*%
X110075000Y-105500000D03*
%TO.P,S1,1*%
%TO.N,RES_BTN*%
X105925000Y-105500000D03*
%TD*%
%TO.P,S2,2*%
%TO.N,GND*%
X110075000Y-85000000D03*
%TO.P,S2,1*%
%TO.N,BOOT_BTN*%
X105925000Y-85000000D03*
%TD*%
D31*
%TO.P,U2,1,CE*%
%TO.N,VSYS*%
X116990000Y-107252600D03*
D32*
%TO.P,U2,2,VSS*%
%TO.N,GND*%
X118490000Y-107252600D03*
D31*
%TO.P,U2,3,NC*%
%TO.N,unconnected-(U2-NC-Pad3)*%
X119990000Y-107252600D03*
%TO.P,U2,4,VIN*%
%TO.N,VSYS*%
X119990000Y-103747400D03*
%TO.P,U2,5,VOUT*%
%TO.N,+3.3V*%
X116990000Y-103747400D03*
%TD*%
D33*
%TO.P,U3,1,TS*%
%TO.N,Net-(U3-TS)*%
X168475000Y-104750000D03*
%TO.P,U3,2,BAT*%
%TO.N,Net-(C2-Pad1)*%
X168475000Y-105250000D03*
%TO.P,U3,3,BAT*%
X168475000Y-105750000D03*
%TO.P,U3,4,~{CE}*%
%TO.N,GND*%
X168475000Y-106250000D03*
D34*
%TO.P,U3,5,EN2*%
%TO.N,Net-(U3-EN2)*%
X169160000Y-106935000D03*
%TO.P,U3,6,EN1*%
%TO.N,GND*%
X169660000Y-106935000D03*
%TO.P,U3,7,~{PGOOD}*%
%TO.N,unconnected-(U3-~{PGOOD}-Pad7)*%
X170160000Y-106935000D03*
%TO.P,U3,8,VSS*%
%TO.N,GND*%
X170660000Y-106935000D03*
D33*
%TO.P,U3,9,~{CHG}*%
%TO.N,unconnected-(U3-~{CHG}-Pad9)*%
X171345000Y-106250000D03*
%TO.P,U3,10,OUT*%
%TO.N,VSYS*%
X171345000Y-105750000D03*
%TO.P,U3,11,OUT*%
X171345000Y-105250000D03*
%TO.P,U3,12,ILIM*%
%TO.N,Net-(U3-ILIM)*%
X171345000Y-104750000D03*
D34*
%TO.P,U3,13,IN*%
%TO.N,Net-(U3-EN2)*%
X170660000Y-104065000D03*
%TO.P,U3,14,TMR*%
%TO.N,unconnected-(U3-TMR-Pad14)*%
X170160000Y-104065000D03*
%TO.P,U3,15,SYSOFF*%
%TO.N,GND*%
X169660000Y-104065000D03*
%TO.P,U3,16,ISET*%
%TO.N,Net-(U3-ISET)*%
X169160000Y-104065000D03*
D35*
%TO.P,U3,17,EP*%
%TO.N,GND*%
X169330000Y-104920000D03*
X169330000Y-106080000D03*
X169910000Y-105500000D03*
D36*
X169910000Y-105500000D03*
D35*
X170490000Y-104920000D03*
X170490000Y-106080000D03*
%TD*%
D37*
%TO.P,U4,6*%
%TO.N,Net-(R12-Pad2)*%
X142755000Y-103550000D03*
%TO.P,U4,5*%
%TO.N,VBUS*%
X142755000Y-104500000D03*
%TO.P,U4,4*%
%TO.N,Net-(R14-Pad2)*%
X142755000Y-105450000D03*
%TO.P,U4,3*%
%TO.N,Net-(J1-DN1)*%
X140245000Y-105450000D03*
%TO.P,U4,2*%
%TO.N,GND*%
X140245000Y-104500000D03*
%TO.P,U4,1*%
%TO.N,Net-(J1-DP1)*%
X140245000Y-103550000D03*
%TD*%
D29*
%TO.P,R13,2*%
%TO.N,BOOT_BTN*%
X100490000Y-84500000D03*
%TO.P,R13,1*%
%TO.N,+3.3V*%
X98840000Y-84500000D03*
%TD*%
%TO.P,R8,1*%
%TO.N,I2C_SCL*%
X176665000Y-89500000D03*
%TO.P,R8,2*%
%TO.N,+3.3V*%
X178315000Y-89500000D03*
%TD*%
%TO.P,R12,1*%
%TO.N,USB_D+*%
X133675000Y-105000000D03*
%TO.P,R12,2*%
%TO.N,Net-(R12-Pad2)*%
X135325000Y-105000000D03*
%TD*%
D38*
%TO.P,H1,1,1*%
%TO.N,GND*%
X92490000Y-83500000D03*
%TD*%
D19*
%TO.P,R2,1*%
%TO.N,Net-(C2-Pad1)*%
X161140000Y-106500000D03*
%TO.P,R2,2*%
%TO.N,BAT*%
X159490000Y-106500000D03*
%TD*%
%TO.P,R11,1*%
%TO.N,+3.3V*%
X178325000Y-84500000D03*
%TO.P,R11,2*%
%TO.N,MAIN_BTN*%
X176675000Y-84500000D03*
%TD*%
D38*
%TO.P,H3,1,1*%
%TO.N,GND*%
X184500000Y-83500000D03*
%TD*%
D29*
%TO.P,R14,1*%
%TO.N,USB_D-*%
X133675000Y-103500000D03*
%TO.P,R14,2*%
%TO.N,Net-(R14-Pad2)*%
X135325000Y-103500000D03*
%TD*%
D38*
%TO.P,H4,1,1*%
%TO.N,GND*%
X184500000Y-107500000D03*
%TD*%
%TO.P,H2,1,1*%
%TO.N,GND*%
X92490000Y-107500000D03*
%TD*%
D39*
%TO.P,F1,1*%
%TO.N,Net-(U3-EN2)*%
X167000000Y-97500000D03*
%TO.P,F1,2*%
%TO.N,VBUS*%
X165430000Y-97500000D03*
%TD*%
D29*
%TO.P,R9,2*%
%TO.N,RES_BTN*%
X104000000Y-106500000D03*
%TO.P,R9,1*%
%TO.N,+3.3V*%
X102350000Y-106500000D03*
%TD*%
%TO.P,R10,1*%
%TO.N,I2C_SDA*%
X176665000Y-91500000D03*
%TO.P,R10,2*%
%TO.N,+3.3V*%
X178315000Y-91500000D03*
%TD*%
D40*
%TO.N,SPI_CLK*%
X152990000Y-89500000D03*
D41*
%TO.N,GND*%
X191360000Y-108415000D03*
X191360000Y-95715000D03*
X191360000Y-93175000D03*
X191360000Y-85555000D03*
X191360000Y-83015000D03*
X188820000Y-108415000D03*
X188820000Y-105875000D03*
X188820000Y-103335000D03*
X188820000Y-98255000D03*
X188820000Y-95715000D03*
X188820000Y-83015000D03*
X186280000Y-103335000D03*
X186280000Y-98255000D03*
X186280000Y-95715000D03*
X186280000Y-93175000D03*
X186280000Y-88095000D03*
X183740000Y-103335000D03*
X183740000Y-98255000D03*
X183740000Y-95715000D03*
X183740000Y-93175000D03*
X183740000Y-88095000D03*
X181200000Y-108415000D03*
X181200000Y-105875000D03*
X181200000Y-103335000D03*
X181200000Y-98255000D03*
X181200000Y-85555000D03*
X181200000Y-83015000D03*
X178660000Y-98255000D03*
X176120000Y-103335000D03*
X176120000Y-98255000D03*
X176120000Y-88095000D03*
X173580000Y-98255000D03*
X173580000Y-90635000D03*
X173580000Y-88095000D03*
X171040000Y-90635000D03*
X168500000Y-90635000D03*
X168500000Y-88095000D03*
X165960000Y-90635000D03*
X165960000Y-88095000D03*
X165960000Y-85555000D03*
X163420000Y-90635000D03*
X163420000Y-88095000D03*
X163420000Y-85555000D03*
X160880000Y-88095000D03*
X160880000Y-85555000D03*
X158340000Y-103335000D03*
X158340000Y-100795000D03*
X158340000Y-88095000D03*
X158340000Y-85555000D03*
X155800000Y-105875000D03*
X153260000Y-108415000D03*
X150720000Y-108415000D03*
X148180000Y-108415000D03*
X143100000Y-108415000D03*
X140560000Y-108415000D03*
X140560000Y-85555000D03*
X138020000Y-108415000D03*
X138020000Y-85555000D03*
X135480000Y-93175000D03*
X135480000Y-85555000D03*
X132940000Y-93175000D03*
X132940000Y-85555000D03*
X130400000Y-108415000D03*
X130400000Y-98255000D03*
X130400000Y-85555000D03*
X127860000Y-108415000D03*
X127860000Y-98255000D03*
X127860000Y-93175000D03*
X127860000Y-85555000D03*
X125320000Y-108415000D03*
X125320000Y-93175000D03*
X125320000Y-85555000D03*
X122780000Y-93175000D03*
X122780000Y-85555000D03*
X120240000Y-93175000D03*
X120240000Y-83015000D03*
X117700000Y-93175000D03*
X117700000Y-85555000D03*
X117700000Y-83015000D03*
X115160000Y-100795000D03*
X115160000Y-85555000D03*
X115160000Y-83015000D03*
X112620000Y-100795000D03*
X112620000Y-85555000D03*
X112620000Y-83015000D03*
X110080000Y-100795000D03*
X110080000Y-90635000D03*
X110080000Y-83015000D03*
X107540000Y-105875000D03*
X107540000Y-85555000D03*
X107540000Y-83015000D03*
X105000000Y-83015000D03*
X102460000Y-83015000D03*
X99920000Y-83015000D03*
X97380000Y-83015000D03*
X94840000Y-88095000D03*
X92300000Y-103335000D03*
X92300000Y-88095000D03*
X104500000Y-101500000D03*
X103500000Y-101500000D03*
X102500000Y-101500000D03*
D40*
%TO.N,SPI_RST*%
X125000000Y-97500000D03*
X142500000Y-86500000D03*
D41*
%TO.N,GND*%
X169500000Y-103000000D03*
X139000000Y-104500000D03*
X163000000Y-103500000D03*
X162000000Y-102000000D03*
X160000000Y-102000000D03*
X158500000Y-102000000D03*
X167500000Y-99000000D03*
X145000000Y-105500000D03*
X144000000Y-102500000D03*
X138500000Y-102500000D03*
X138500000Y-103500000D03*
X115000000Y-105500000D03*
X115000000Y-104000000D03*
X101000000Y-104500000D03*
D40*
X99490000Y-85500000D03*
X92300000Y-93150000D03*
X92300000Y-98230000D03*
X92300000Y-95690000D03*
X102990000Y-90000000D03*
%TO.N,SPI_RST*%
X105500000Y-103000000D03*
X99500000Y-103050000D03*
%TO.N,SPI_CLK*%
X145490000Y-87500000D03*
%TO.N,SPI_CS*%
X145490000Y-89500000D03*
X151500000Y-89500000D03*
%TO.N,SPI_MOSI(DIN)*%
X145500000Y-86500000D03*
X154090000Y-89500000D03*
%TO.N,SPI_DC*%
X151500000Y-90500000D03*
X145490000Y-90500000D03*
%TO.N,BOOT_BTN*%
X104440000Y-91450000D03*
X104490000Y-87500000D03*
%TO.N,VSYS*%
X174490000Y-104500000D03*
X126490000Y-105500000D03*
%TO.N,I2C_SDA*%
X146000000Y-96500000D03*
%TO.N,I2C_SCL*%
X156000000Y-95500000D03*
%TO.N,+3.3V*%
X114490000Y-102500000D03*
X113490000Y-102500000D03*
X96490000Y-84500000D03*
X179490000Y-93500000D03*
X96490000Y-85500000D03*
X156490000Y-88500000D03*
X156490000Y-89500000D03*
%TO.N,Net-(J1-CC2)*%
X155490000Y-102500000D03*
X150965000Y-106025000D03*
%TO.N,BAT*%
X157490000Y-106500000D03*
X108500000Y-104000000D03*
%TO.N,MAIN_BTN*%
X102490000Y-86500000D03*
X165500000Y-82750000D03*
%TO.N,Net-(J1-DN1)*%
X150490000Y-100500000D03*
X140500000Y-100500000D03*
%TO.N,Net-(J1-DP1)*%
X150990000Y-102000000D03*
X140490000Y-102000000D03*
%TO.N,I2C_SDA*%
X180000000Y-95000000D03*
%TO.N,I2C_SCL*%
X164500000Y-95500000D03*
%TO.N,USB_D+*%
X107000000Y-88500000D03*
X123500000Y-100500000D03*
%TO.N,USB_D-*%
X108490000Y-88500000D03*
X125000000Y-100500000D03*
D41*
%TO.N,Net-(U3-EN2)*%
X168000000Y-107500000D03*
X169500000Y-101500000D03*
%TD*%
D42*
%TO.N,SPI_CLK*%
X152990000Y-89500000D02*
X152990000Y-86025000D01*
X152990000Y-86025000D02*
X152840000Y-85875000D01*
%TO.N,USB_D+*%
X107000000Y-88500000D02*
X104057100Y-88500000D01*
X103057100Y-87500000D02*
X99245000Y-87500000D01*
X104057100Y-88500000D02*
X103057100Y-87500000D01*
X99245000Y-87500000D02*
X98340000Y-88405000D01*
X98340000Y-88405000D02*
X98340000Y-89550000D01*
%TO.N,USB_D-*%
X108490000Y-88500000D02*
X108490000Y-88505000D01*
X108490000Y-88505000D02*
X107495000Y-89500000D01*
X107495000Y-89500000D02*
X104000000Y-89500000D01*
X99140000Y-88860000D02*
X99140000Y-89550000D01*
X104000000Y-89500000D02*
X102500000Y-88000000D01*
X102500000Y-88000000D02*
X100000000Y-88000000D01*
X100000000Y-88000000D02*
X99140000Y-88860000D01*
%TO.N,I2C_SCL*%
X156000000Y-95500000D02*
X113500000Y-95500000D01*
X113500000Y-95500000D02*
X111500000Y-97500000D01*
X111500000Y-97500000D02*
X103995000Y-97500000D01*
X103995000Y-97500000D02*
X102045000Y-99450000D01*
X102045000Y-99450000D02*
X100840000Y-99450000D01*
%TO.N,SPI_BUSY*%
X147840000Y-86375000D02*
X147840000Y-90160000D01*
X147840000Y-90160000D02*
X146500000Y-91500000D01*
X116500000Y-91500000D02*
X111500000Y-96500000D01*
X111500000Y-96500000D02*
X102500000Y-96500000D01*
X146500000Y-91500000D02*
X116500000Y-91500000D01*
X102500000Y-96500000D02*
X101950000Y-97050000D01*
X101950000Y-97050000D02*
X100840000Y-97050000D01*
%TO.N,ESP-(GPIO2)*%
X98849000Y-105651000D02*
X98000000Y-106500000D01*
X99000000Y-107500000D02*
X98000000Y-106500000D01*
X98849000Y-103849000D02*
X98849000Y-105651000D01*
X100500000Y-107500000D02*
X99000000Y-107500000D01*
X98500000Y-103500000D02*
X98849000Y-103849000D01*
X101000000Y-107000000D02*
X100500000Y-107500000D01*
X96500000Y-103500000D02*
X98500000Y-103500000D01*
X101000000Y-105649000D02*
X101000000Y-107000000D01*
X95140000Y-102140000D02*
X96500000Y-103500000D01*
X102149000Y-104500000D02*
X101000000Y-105649000D01*
X95140000Y-101350000D02*
X95140000Y-102140000D01*
%TO.N,SPI_RST*%
X147410000Y-84090000D02*
X146500000Y-85000000D01*
X146500000Y-85000000D02*
X144000000Y-85000000D01*
X148680000Y-84090000D02*
X147410000Y-84090000D01*
X144000000Y-85000000D02*
X142500000Y-86500000D01*
X149090000Y-84500000D02*
X148680000Y-84090000D01*
X149090000Y-85875000D02*
X149090000Y-84500000D01*
D43*
X149090000Y-85875000D02*
X149090000Y-85523000D01*
D42*
X125000000Y-97500000D02*
X113500000Y-97500000D01*
X113500000Y-97500000D02*
X111500000Y-99500000D01*
X111500000Y-99500000D02*
X106000000Y-99500000D01*
X106000000Y-99500000D02*
X105500000Y-100000000D01*
X105500000Y-100000000D02*
X105500000Y-103000000D01*
X99450000Y-103000000D02*
X96990000Y-103000000D01*
X99500000Y-103050000D02*
X99450000Y-103000000D01*
X96990000Y-103000000D02*
X95940000Y-101950000D01*
X95940000Y-101950000D02*
X95940000Y-101350000D01*
%TO.N,SPI_CLK*%
X100840000Y-93850000D02*
X110650000Y-93850000D01*
X115500000Y-89000000D02*
X110650000Y-93850000D01*
X143990000Y-89000000D02*
X115500000Y-89000000D01*
X145490000Y-87500000D02*
X143990000Y-89000000D01*
%TO.N,SPI_CS*%
X111350000Y-94650000D02*
X100840000Y-94650000D01*
X116500000Y-89500000D02*
X111350000Y-94650000D01*
X145490000Y-89500000D02*
X116500000Y-89500000D01*
X151500000Y-89500000D02*
X151500000Y-86465000D01*
X151500000Y-86465000D02*
X151590000Y-86375000D01*
%TO.N,SPI_MOSI(DIN)*%
X110450000Y-93050000D02*
X100840000Y-93050000D01*
X115000000Y-88500000D02*
X110450000Y-93050000D01*
X143500000Y-88500000D02*
X115000000Y-88500000D01*
X145500000Y-86500000D02*
X143500000Y-88500000D01*
X154090000Y-89500000D02*
X154090000Y-86375000D01*
%TO.N,SPI_DC*%
X111550000Y-95450000D02*
X100840000Y-95450000D01*
X116500000Y-90500000D02*
X111550000Y-95450000D01*
X145490000Y-90500000D02*
X116500000Y-90500000D01*
D43*
X151500000Y-90500000D02*
X151340000Y-90500000D01*
X151340000Y-90500000D02*
X150340000Y-89500000D01*
D42*
X150340000Y-89500000D02*
X150340000Y-86375000D01*
%TO.N,BOOT_BTN*%
X100840000Y-91450000D02*
X104440000Y-91450000D01*
X104490000Y-87500000D02*
X104490000Y-85510000D01*
X104490000Y-85510000D02*
X105000000Y-85000000D01*
X105925000Y-85000000D02*
X105000000Y-85000000D01*
X105000000Y-85000000D02*
X101990000Y-85000000D01*
X101990000Y-85000000D02*
X101490000Y-84500000D01*
X101490000Y-84500000D02*
X100490000Y-84500000D01*
%TO.N,I2C_SCL*%
X176000000Y-96000000D02*
X181557100Y-96000000D01*
X181557100Y-96000000D02*
X181891000Y-95666100D01*
X175500000Y-95500000D02*
X176000000Y-96000000D01*
X181891000Y-95666100D02*
X181891000Y-93099000D01*
X181891000Y-93099000D02*
X183490000Y-91500000D01*
X183490000Y-91500000D02*
X191000000Y-91500000D01*
X191000000Y-91500000D02*
X191150000Y-91650000D01*
X191150000Y-91650000D02*
X192875700Y-91650000D01*
D44*
%TO.N,+3.3V*%
X192875700Y-89150000D02*
X182840000Y-89150000D01*
X182840000Y-89150000D02*
X182490000Y-89500000D01*
D45*
X93540000Y-101350000D02*
X93540000Y-103955000D01*
X93540000Y-103955000D02*
X93500000Y-103995000D01*
D46*
X99000000Y-109495000D02*
X93500000Y-103995000D01*
D42*
%TO.N,I2C_SDA*%
X192875700Y-90400000D02*
X191100000Y-90400000D01*
X191100000Y-90400000D02*
X190650000Y-90850000D01*
X183140000Y-90850000D02*
X181490000Y-92500000D01*
X190650000Y-90850000D02*
X183140000Y-90850000D01*
X181490000Y-92500000D02*
X181490000Y-95000000D01*
X181490000Y-95000000D02*
X177990000Y-95000000D01*
X177990000Y-95000000D02*
X176665000Y-93675000D01*
X176665000Y-93675000D02*
X176665000Y-91500000D01*
%TO.N,MAIN_BTN*%
X165500000Y-82750000D02*
X169500000Y-82750000D01*
X165500000Y-82750000D02*
X174925000Y-82750000D01*
X169500000Y-82750000D02*
X170250000Y-83500000D01*
X170250000Y-83500000D02*
X170250000Y-88200000D01*
X174925000Y-82750000D02*
X176675000Y-84500000D01*
%TO.N,I2C_SCL*%
X164500000Y-95500000D02*
X175500000Y-95500000D01*
X175500000Y-95500000D02*
X175000000Y-95000000D01*
X175000000Y-95000000D02*
X175000000Y-91165000D01*
X175000000Y-91165000D02*
X176665000Y-89500000D01*
%TO.N,I2C_SDA*%
X146000000Y-96500000D02*
X113498194Y-96500000D01*
X102590000Y-100250000D02*
X100840000Y-100250000D01*
X113498194Y-96500000D02*
X111498194Y-98500000D01*
X111498194Y-98500000D02*
X104340000Y-98500000D01*
X104340000Y-98500000D02*
X102590000Y-100250000D01*
D46*
%TO.N,+3.3V*%
X180990000Y-91000000D02*
X181995000Y-89995000D01*
D42*
X178325000Y-86325000D02*
X181995000Y-89995000D01*
X178325000Y-84500000D02*
X178325000Y-86325000D01*
X178315000Y-89500000D02*
X179500000Y-89500000D01*
X180000000Y-90000000D02*
X180000000Y-91500000D01*
X179500000Y-89500000D02*
X180000000Y-90000000D01*
X180000000Y-91500000D02*
X180245000Y-91745000D01*
X158715000Y-89500000D02*
X156490000Y-89500000D01*
%TO.N,Net-(J1-DP1)*%
X140490000Y-102000000D02*
X140245000Y-102245000D01*
X140245000Y-102245000D02*
X140245000Y-103550000D01*
%TO.N,Net-(J1-DN1)*%
X139000000Y-100500000D02*
X137500000Y-102000000D01*
X140500000Y-100500000D02*
X139000000Y-100500000D01*
X137500000Y-102000000D02*
X137500000Y-104000000D01*
X138950000Y-105450000D02*
X140245000Y-105450000D01*
X137500000Y-104000000D02*
X138950000Y-105450000D01*
%TO.N,USB_D-*%
X125000000Y-100500000D02*
X129950000Y-100500000D01*
X129950000Y-100500000D02*
X132950000Y-103500000D01*
X132950000Y-103500000D02*
X133675000Y-103500000D01*
%TO.N,USB_D+*%
X123500000Y-100500000D02*
X125000000Y-102000000D01*
X125000000Y-102000000D02*
X129950000Y-102000000D01*
X129950000Y-102000000D02*
X132950000Y-105000000D01*
X132950000Y-105000000D02*
X133675000Y-105000000D01*
%TO.N,Net-(R12-Pad2)*%
X142755000Y-103550000D02*
X143550000Y-103550000D01*
X143550000Y-103550000D02*
X144000000Y-104000000D01*
X144000000Y-104000000D02*
X144000000Y-106500000D01*
X144000000Y-106500000D02*
X143500000Y-107000000D01*
X143500000Y-107000000D02*
X138000000Y-107000000D01*
X136000000Y-105000000D02*
X135500000Y-105000000D01*
X138000000Y-107000000D02*
X136000000Y-105000000D01*
%TO.N,Net-(R14-Pad2)*%
X139000000Y-106500000D02*
X136000000Y-103500000D01*
X136000000Y-103500000D02*
X135500000Y-103500000D01*
D46*
%TO.N,Net-(C2-Pad1)*%
X189000000Y-100050000D02*
X188950000Y-100000000D01*
X180990000Y-100000000D02*
X179000000Y-101990000D01*
X164990000Y-109500000D02*
X164490000Y-109000000D01*
X179000000Y-101990000D02*
X179000000Y-108000000D01*
X188950000Y-100000000D02*
X180990000Y-100000000D01*
X179000000Y-108000000D02*
X177500000Y-109500000D01*
X177500000Y-109500000D02*
X164990000Y-109500000D01*
X164490000Y-109000000D02*
X164490000Y-108500000D01*
%TO.N,+3.3V*%
X179990000Y-92000000D02*
X180245000Y-91745000D01*
D43*
%TO.N,GND*%
X169500000Y-103000000D02*
X169660000Y-103160000D01*
X169660000Y-103160000D02*
X169660000Y-104065000D01*
D42*
%TO.N,Net-(J1-CC2)*%
X155490000Y-102500000D02*
X155490000Y-100510000D01*
X155500000Y-100500000D02*
X155665000Y-100500000D01*
X155490000Y-100510000D02*
X155500000Y-100500000D01*
D45*
%TO.N,Net-(U3-EN2)*%
X170660000Y-101500000D02*
X169265000Y-101500000D01*
X169265000Y-101500000D02*
X168265000Y-100500000D01*
X166382500Y-100500000D02*
X165882500Y-100000000D01*
X168265000Y-100500000D02*
X166382500Y-100500000D01*
D42*
%TO.N,Net-(U3-ISET)*%
X169160000Y-104065000D02*
X169160000Y-103670000D01*
X169160000Y-103670000D02*
X167490000Y-102000000D01*
X167490000Y-102000000D02*
X165500000Y-102000000D01*
%TO.N,BAT*%
X159490000Y-106500000D02*
X159490000Y-106010000D01*
X159490000Y-106010000D02*
X159500000Y-106000000D01*
X159500000Y-106000000D02*
X159500000Y-104500000D01*
%TO.N,Net-(U3-TS)*%
X165500000Y-103500000D02*
X167990000Y-103500000D01*
X168475000Y-103985000D02*
X168475000Y-104750000D01*
X167990000Y-103500000D02*
X168475000Y-103985000D01*
D47*
%TO.N,VBUS*%
X142755000Y-104500000D02*
X142000000Y-104500000D01*
X143000000Y-101500000D02*
X148340000Y-101500000D01*
X142000000Y-104500000D02*
X141500000Y-104000000D01*
X141500000Y-104000000D02*
X141500000Y-103000000D01*
X141500000Y-103000000D02*
X143000000Y-101500000D01*
D48*
X148340000Y-98650000D02*
X148340000Y-101500000D01*
D42*
%TO.N,Net-(R14-Pad2)*%
X142755000Y-105450000D02*
X142755000Y-106245000D01*
X142755000Y-106245000D02*
X142500000Y-106500000D01*
X142500000Y-106500000D02*
X139000000Y-106500000D01*
D48*
%TO.N,VBUS*%
X162500000Y-93000000D02*
X164750000Y-93000000D01*
X159500000Y-97500000D02*
X165430000Y-97500000D01*
%TO.N,Net-(U3-EN2)*%
X167000000Y-97500000D02*
X168490000Y-97500000D01*
X168490000Y-97500000D02*
X170660000Y-99670000D01*
X170660000Y-99670000D02*
X170660000Y-101500000D01*
%TO.N,VBUS*%
X159500000Y-97500000D02*
X159500000Y-96000000D01*
X159500000Y-96000000D02*
X162500000Y-93000000D01*
X159500000Y-97500000D02*
X152490000Y-97500000D01*
D42*
%TO.N,Net-(J1-CC1)*%
X149490000Y-103500000D02*
X149490000Y-105572000D01*
X149490000Y-105572000D02*
X148562000Y-106500000D01*
X145000000Y-106500000D02*
X144000000Y-107500000D01*
X148562000Y-106500000D02*
X145000000Y-106500000D01*
X144000000Y-107500000D02*
X135500000Y-107500000D01*
%TO.N,+3.3V*%
X94500000Y-104500000D02*
X98000000Y-104500000D01*
D46*
X101500000Y-109500000D02*
X102500000Y-109500000D01*
D42*
X102350000Y-106500000D02*
X102350000Y-109350000D01*
%TO.N,BAT*%
X108500000Y-104000000D02*
X105000000Y-104000000D01*
X105000000Y-104000000D02*
X104500000Y-104500000D01*
X104500000Y-104500000D02*
X104000000Y-104500000D01*
%TO.N,RES_BTN*%
X104000000Y-106500000D02*
X104925000Y-106500000D01*
X97540000Y-101350000D02*
X97540000Y-102040000D01*
X103349000Y-105849000D02*
X104000000Y-106500000D01*
X97540000Y-102040000D02*
X98000000Y-102500000D01*
X98000000Y-102500000D02*
X101500000Y-102500000D01*
X101500000Y-102500000D02*
X103349000Y-104349000D01*
X103349000Y-104349000D02*
X103349000Y-105849000D01*
%TO.N,+3.3V*%
X110500000Y-102500000D02*
X113490000Y-102500000D01*
%TO.N,RES_BTN*%
X104925000Y-106500000D02*
X105925000Y-105500000D01*
D46*
%TO.N,+3.3V*%
X99005000Y-109500000D02*
X101500000Y-109500000D01*
X99000000Y-109495000D02*
X99005000Y-109500000D01*
X102500000Y-109500000D02*
X109490000Y-109500000D01*
X109490000Y-109500000D02*
X112490000Y-106500000D01*
X99000000Y-109500000D02*
X99000000Y-109495000D01*
D43*
%TO.N,GND*%
X170660000Y-106935000D02*
X170660000Y-107296476D01*
D42*
X99940000Y-99500000D02*
X99940000Y-99450000D01*
X100890000Y-101400000D02*
X99990000Y-101400000D01*
D43*
X170660000Y-107296476D02*
X170193977Y-107762499D01*
D42*
X92690000Y-101400000D02*
X92740000Y-101350000D01*
X99940000Y-99050000D02*
X99940000Y-99500000D01*
D43*
X169660000Y-107364999D02*
X169660000Y-106935000D01*
X90990000Y-89500000D02*
X90990000Y-90600000D01*
X167750000Y-106250000D02*
X167000000Y-107000000D01*
X168524999Y-108500000D02*
X169262499Y-107762499D01*
D42*
X100840000Y-98650000D02*
X100340000Y-98650000D01*
D43*
X168475000Y-106250000D02*
X167750000Y-106250000D01*
D42*
X99353360Y-98913360D02*
X99940000Y-99500000D01*
D43*
X167000000Y-107000000D02*
X167000000Y-108000000D01*
D42*
X97915000Y-97475000D02*
X99353360Y-98913360D01*
X99990000Y-101400000D02*
X99940000Y-101350000D01*
X99940000Y-101350000D02*
X99940000Y-99500000D01*
X97915000Y-97425000D02*
X97915000Y-97475000D01*
D43*
X170193977Y-107762499D02*
X169262499Y-107762499D01*
X169262499Y-107762499D02*
X169660000Y-107364999D01*
X167500000Y-108500000D02*
X168524999Y-108500000D01*
D42*
X100340000Y-98650000D02*
X99940000Y-99050000D01*
D43*
X167000000Y-108000000D02*
X167500000Y-108500000D01*
D42*
X100890000Y-89500000D02*
X102490000Y-89500000D01*
X102490000Y-89500000D02*
X102990000Y-90000000D01*
D43*
X90990000Y-90600000D02*
X91040000Y-90650000D01*
D44*
%TO.N,VBUS*%
X153140000Y-103500000D02*
X153140000Y-102650000D01*
D48*
X153140000Y-98150000D02*
X153140000Y-102279000D01*
X149490000Y-97500000D02*
X148340000Y-98650000D01*
X152490000Y-97500000D02*
X153140000Y-98150000D01*
X152490000Y-97500000D02*
X149490000Y-97500000D01*
D44*
X148340000Y-103500000D02*
X148340000Y-102650000D01*
D48*
X148340000Y-101500000D02*
X148340000Y-102279000D01*
D46*
%TO.N,Net-(C2-Pad1)*%
X165509000Y-105481000D02*
X164490000Y-106500000D01*
D42*
X161265000Y-108500000D02*
X164490000Y-108500000D01*
D46*
X164490000Y-106500000D02*
X164490000Y-108500000D01*
X165509000Y-105481000D02*
X168475000Y-105481000D01*
D42*
X161140000Y-106500000D02*
X164490000Y-106500000D01*
D45*
X168475000Y-105250000D02*
X168475000Y-105750000D01*
D47*
%TO.N,VSYS*%
X118237400Y-108500000D02*
X122000000Y-108500000D01*
D44*
X120237400Y-103500000D02*
X122490000Y-103500000D01*
D47*
X118237400Y-108500000D02*
X116990000Y-107252600D01*
X122000000Y-106500000D02*
X123745000Y-104755000D01*
D45*
X171345000Y-105500000D02*
X171345000Y-105250000D01*
D44*
X173490000Y-105500000D02*
X174490000Y-104500000D01*
D46*
X126490000Y-105500000D02*
X124490000Y-105500000D01*
X122715000Y-103725000D02*
X122490000Y-103500000D01*
D44*
X171345000Y-105500000D02*
X173490000Y-105500000D01*
D46*
X123745000Y-104755000D02*
X122715000Y-103725000D01*
D47*
X173500000Y-107000000D02*
X173500000Y-105510000D01*
D46*
X124490000Y-105500000D02*
X123745000Y-104755000D01*
D47*
X122000000Y-108500000D02*
X122000000Y-106500000D01*
D43*
X173500000Y-105510000D02*
X173490000Y-105500000D01*
D46*
%TO.N,+3.3V*%
X113490000Y-102500000D02*
X113490000Y-105500000D01*
X180245000Y-91745000D02*
X180990000Y-91000000D01*
X179490000Y-92500000D02*
X179490000Y-93500000D01*
D42*
X98840000Y-84500000D02*
X96490000Y-84500000D01*
D46*
X182390000Y-89600000D02*
X182490000Y-89500000D01*
X116990000Y-103000000D02*
X116490000Y-102500000D01*
X113490000Y-105500000D02*
X112490000Y-106500000D01*
D42*
X112940000Y-108500000D02*
X112940000Y-106950000D01*
X112940000Y-106950000D02*
X112490000Y-106500000D01*
D46*
X116490000Y-102500000D02*
X113490000Y-102500000D01*
D42*
X156590000Y-88400000D02*
X156490000Y-88500000D01*
D44*
X156590000Y-86375000D02*
X156590000Y-88400000D01*
D46*
X96490000Y-85500000D02*
X96490000Y-84500000D01*
D44*
X116990000Y-103747400D02*
X116990000Y-103000000D01*
D42*
X178325000Y-91490000D02*
X178315000Y-91500000D01*
X178315000Y-89500000D02*
X178315000Y-91500000D01*
D46*
X113490000Y-102500000D02*
X114490000Y-102500000D01*
X181995000Y-89995000D02*
X182390000Y-89600000D01*
X179490000Y-92500000D02*
X179990000Y-92000000D01*
X156490000Y-88500000D02*
X156490000Y-89500000D01*
D42*
%TO.N,Net-(J1-CC2)*%
X152490000Y-105500000D02*
X152490000Y-103500000D01*
X151990000Y-106000000D02*
X152490000Y-105500000D01*
X150965000Y-106025000D02*
X150990000Y-106000000D01*
X150990000Y-106000000D02*
X151990000Y-106000000D01*
%TO.N,BAT*%
X159490000Y-106500000D02*
X157490000Y-106500000D01*
%TO.N,Net-(U3-ILIM)*%
X173665000Y-102430000D02*
X173665000Y-101500000D01*
X171345000Y-104750000D02*
X173665000Y-102430000D01*
%TO.N,MAIN_BTN*%
X97490000Y-86500000D02*
X102490000Y-86500000D01*
X178275000Y-82900000D02*
X178275000Y-82500000D01*
X176675000Y-84500000D02*
X178275000Y-82900000D01*
X95940000Y-89550000D02*
X95940000Y-88050000D01*
X95940000Y-88050000D02*
X97490000Y-86500000D01*
%TO.N,Net-(J1-DN1)*%
X150490000Y-100500000D02*
X149990000Y-101000000D01*
X149993611Y-104750000D02*
X150243611Y-105000000D01*
X150990000Y-104500000D02*
X150990000Y-103500000D01*
X149990000Y-101000000D02*
X149990000Y-104750000D01*
X149990000Y-104750000D02*
X149993611Y-104750000D01*
X150243611Y-105000000D02*
X150490000Y-105000000D01*
X150490000Y-105000000D02*
X150990000Y-104500000D01*
%TO.N,Net-(J1-DP1)*%
X151490000Y-102500000D02*
X150990000Y-102000000D01*
X150990000Y-102000000D02*
X150490000Y-102500000D01*
X151490000Y-102500000D02*
X151490000Y-103500000D01*
X150490000Y-102500000D02*
X150490000Y-103500000D01*
D48*
%TO.N,Net-(U3-EN2)*%
X170660000Y-101500000D02*
X170660000Y-102670000D01*
D45*
X170660000Y-102670000D02*
X170660000Y-104065000D01*
D47*
X168595000Y-107500000D02*
X168000000Y-107500000D01*
X169160000Y-106935000D02*
X168595000Y-107500000D01*
%TD*%
%TA.AperFunction,Conductor*%
%TO.N,GND*%
G36*
X193442539Y-81020185D02*
G01*
X193488294Y-81072989D01*
X193499500Y-81124500D01*
X193499500Y-88195300D01*
X193479815Y-88262339D01*
X193427011Y-88308094D01*
X193375500Y-88319300D01*
X191601229Y-88319300D01*
X191601223Y-88319301D01*
X191541616Y-88325708D01*
X191406771Y-88376002D01*
X191398986Y-88380254D01*
X191398092Y-88378617D01*
X191342963Y-88399184D01*
X191334111Y-88399500D01*
X182766076Y-88399500D01*
X182737242Y-88405234D01*
X182737243Y-88405235D01*
X182621093Y-88428339D01*
X182621083Y-88428342D01*
X182541081Y-88461479D01*
X182541082Y-88461480D01*
X182484502Y-88484917D01*
X182435270Y-88517811D01*
X182435271Y-88517812D01*
X182361585Y-88567047D01*
X182337807Y-88590825D01*
X182276483Y-88624309D01*
X182274320Y-88624759D01*
X182227337Y-88634104D01*
X182227335Y-88634105D01*
X182063455Y-88701986D01*
X182063446Y-88701991D01*
X181915967Y-88800534D01*
X181915962Y-88800538D01*
X181870548Y-88845952D01*
X181809225Y-88879436D01*
X181739533Y-88874451D01*
X181695187Y-88845951D01*
X179261818Y-86412582D01*
X179228333Y-86351259D01*
X179225499Y-86324901D01*
X179225499Y-86201662D01*
X179225498Y-86201644D01*
X179215349Y-86102292D01*
X179215348Y-86102289D01*
X179200521Y-86057544D01*
X179162003Y-85941303D01*
X179161999Y-85941297D01*
X179161998Y-85941294D01*
X179072970Y-85796959D01*
X179072969Y-85796958D01*
X179072968Y-85796956D01*
X178961818Y-85685806D01*
X178947111Y-85658872D01*
X178930523Y-85633060D01*
X178929631Y-85626859D01*
X178928334Y-85624483D01*
X178925500Y-85598125D01*
X178925500Y-85416519D01*
X178945185Y-85349480D01*
X178961814Y-85328842D01*
X179080472Y-85210185D01*
X179168478Y-85064606D01*
X179219086Y-84902196D01*
X179225500Y-84831616D01*
X179225500Y-84605135D01*
X188253400Y-84605135D01*
X188253400Y-87494870D01*
X188253401Y-87494876D01*
X188259808Y-87554483D01*
X188310102Y-87689328D01*
X188310106Y-87689335D01*
X188396352Y-87804544D01*
X188396355Y-87804547D01*
X188511564Y-87890793D01*
X188511571Y-87890797D01*
X188646417Y-87941091D01*
X188646416Y-87941091D01*
X188653344Y-87941835D01*
X188706027Y-87947500D01*
X189893972Y-87947499D01*
X189953583Y-87941091D01*
X190088431Y-87890796D01*
X190203646Y-87804546D01*
X190289896Y-87689331D01*
X190340191Y-87554483D01*
X190346600Y-87494873D01*
X190346599Y-84605128D01*
X190340191Y-84545517D01*
X190334742Y-84530908D01*
X190289897Y-84410671D01*
X190289893Y-84410664D01*
X190203647Y-84295455D01*
X190203644Y-84295452D01*
X190088435Y-84209206D01*
X190088428Y-84209202D01*
X189953582Y-84158908D01*
X189953583Y-84158908D01*
X189893983Y-84152501D01*
X189893981Y-84152500D01*
X189893973Y-84152500D01*
X189893964Y-84152500D01*
X188706029Y-84152500D01*
X188706023Y-84152501D01*
X188646416Y-84158908D01*
X188511571Y-84209202D01*
X188511564Y-84209206D01*
X188396355Y-84295452D01*
X188396352Y-84295455D01*
X188310106Y-84410664D01*
X188310102Y-84410671D01*
X188259808Y-84545517D01*
X188255299Y-84587462D01*
X188253401Y-84605123D01*
X188253400Y-84605135D01*
X179225500Y-84605135D01*
X179225500Y-84168384D01*
X179219086Y-84097804D01*
X179168478Y-83935394D01*
X179080472Y-83789815D01*
X179080470Y-83789813D01*
X179080469Y-83789811D01*
X178960188Y-83669530D01*
X178901585Y-83634103D01*
X178846598Y-83600861D01*
X178799411Y-83549335D01*
X178787573Y-83480475D01*
X178814842Y-83416147D01*
X178845648Y-83389210D01*
X178953044Y-83322968D01*
X179072968Y-83203044D01*
X179162003Y-83058697D01*
X179215349Y-82897708D01*
X179225500Y-82798345D01*
X179225499Y-82201656D01*
X179218160Y-82129815D01*
X179215349Y-82102292D01*
X179215348Y-82102289D01*
X179174913Y-81980264D01*
X179162003Y-81941303D01*
X179161999Y-81941297D01*
X179161998Y-81941294D01*
X179072970Y-81796959D01*
X179072967Y-81796955D01*
X178953044Y-81677032D01*
X178953040Y-81677029D01*
X178808705Y-81588001D01*
X178808699Y-81587998D01*
X178808697Y-81587997D01*
X178808694Y-81587996D01*
X178647709Y-81534651D01*
X178548346Y-81524500D01*
X178001662Y-81524500D01*
X178001644Y-81524501D01*
X177902292Y-81534650D01*
X177902289Y-81534651D01*
X177741305Y-81587996D01*
X177741294Y-81588001D01*
X177596959Y-81677029D01*
X177596955Y-81677032D01*
X177477032Y-81796955D01*
X177477029Y-81796959D01*
X177388001Y-81941294D01*
X177387996Y-81941305D01*
X177334651Y-82102290D01*
X177324500Y-82201647D01*
X177324500Y-82798337D01*
X177324501Y-82798355D01*
X177334651Y-82897711D01*
X177336068Y-82904330D01*
X177334168Y-82904736D01*
X177336238Y-82965104D01*
X177303815Y-83021947D01*
X176837582Y-83488182D01*
X176810653Y-83502886D01*
X176784838Y-83519477D01*
X176778637Y-83520368D01*
X176776261Y-83521666D01*
X176749903Y-83524500D01*
X176600098Y-83524500D01*
X176533059Y-83504815D01*
X176512417Y-83488181D01*
X175412590Y-82388355D01*
X175412588Y-82388352D01*
X175293717Y-82269481D01*
X175293716Y-82269480D01*
X175206904Y-82219360D01*
X175206904Y-82219359D01*
X175206900Y-82219358D01*
X175156785Y-82190423D01*
X175004057Y-82149499D01*
X174845943Y-82149499D01*
X174838347Y-82149499D01*
X174838331Y-82149500D01*
X169579061Y-82149500D01*
X169579057Y-82149499D01*
X169420943Y-82149499D01*
X169420939Y-82149500D01*
X166079766Y-82149500D01*
X166012727Y-82129815D01*
X166010875Y-82128602D01*
X165879185Y-82040609D01*
X165879172Y-82040602D01*
X165733501Y-81980264D01*
X165733489Y-81980261D01*
X165578845Y-81949500D01*
X165578842Y-81949500D01*
X165421158Y-81949500D01*
X165421155Y-81949500D01*
X165266510Y-81980261D01*
X165266498Y-81980264D01*
X165120827Y-82040602D01*
X165120814Y-82040609D01*
X164989711Y-82128210D01*
X164989707Y-82128213D01*
X164878213Y-82239707D01*
X164878210Y-82239711D01*
X164790609Y-82370814D01*
X164790602Y-82370827D01*
X164730264Y-82516498D01*
X164730261Y-82516510D01*
X164699500Y-82671153D01*
X164699500Y-82828846D01*
X164730261Y-82983489D01*
X164730264Y-82983501D01*
X164790602Y-83129172D01*
X164790609Y-83129185D01*
X164878210Y-83260288D01*
X164878213Y-83260292D01*
X164989707Y-83371786D01*
X164989711Y-83371789D01*
X165120814Y-83459390D01*
X165120827Y-83459397D01*
X165265875Y-83519477D01*
X165266503Y-83519737D01*
X165415301Y-83549335D01*
X165421153Y-83550499D01*
X165421156Y-83550500D01*
X165421158Y-83550500D01*
X165578844Y-83550500D01*
X165578845Y-83550499D01*
X165733497Y-83519737D01*
X165879179Y-83459394D01*
X165950105Y-83412003D01*
X166010875Y-83371398D01*
X166077553Y-83350520D01*
X166079766Y-83350500D01*
X169199903Y-83350500D01*
X169266942Y-83370185D01*
X169287584Y-83386819D01*
X169613181Y-83712416D01*
X169646666Y-83773739D01*
X169649500Y-83800097D01*
X169649500Y-86887679D01*
X169629815Y-86954718D01*
X169599813Y-86986944D01*
X169592459Y-86992449D01*
X169592451Y-86992457D01*
X169506206Y-87107664D01*
X169506202Y-87107671D01*
X169455908Y-87242517D01*
X169451383Y-87284613D01*
X169449501Y-87302123D01*
X169449500Y-87302135D01*
X169449500Y-89097870D01*
X169449501Y-89097876D01*
X169455908Y-89157483D01*
X169506202Y-89292328D01*
X169506206Y-89292335D01*
X169592452Y-89407544D01*
X169592455Y-89407547D01*
X169707664Y-89493793D01*
X169707671Y-89493797D01*
X169724040Y-89499902D01*
X169842517Y-89544091D01*
X169902127Y-89550500D01*
X170597872Y-89550499D01*
X170657483Y-89544091D01*
X170792331Y-89493796D01*
X170907546Y-89407546D01*
X170993796Y-89292331D01*
X171044091Y-89157483D01*
X171050500Y-89097873D01*
X171050499Y-87302128D01*
X171044091Y-87242517D01*
X171040795Y-87233681D01*
X170993797Y-87107671D01*
X170993793Y-87107664D01*
X170927777Y-87019479D01*
X170907546Y-86992454D01*
X170907542Y-86992451D01*
X170907540Y-86992449D01*
X170900187Y-86986944D01*
X170858317Y-86931009D01*
X170850500Y-86887679D01*
X170850500Y-83474500D01*
X170870185Y-83407461D01*
X170922989Y-83361706D01*
X170974500Y-83350500D01*
X174624903Y-83350500D01*
X174691942Y-83370185D01*
X174712584Y-83386819D01*
X175738181Y-84412416D01*
X175771666Y-84473739D01*
X175774500Y-84500097D01*
X175774500Y-84831613D01*
X175780913Y-84902192D01*
X175780913Y-84902194D01*
X175780914Y-84902196D01*
X175831522Y-85064606D01*
X175913272Y-85199837D01*
X175919530Y-85210188D01*
X176039811Y-85330469D01*
X176039813Y-85330470D01*
X176039815Y-85330472D01*
X176185394Y-85418478D01*
X176347804Y-85469086D01*
X176418384Y-85475500D01*
X176418387Y-85475500D01*
X176931613Y-85475500D01*
X176931616Y-85475500D01*
X177002196Y-85469086D01*
X177164606Y-85418478D01*
X177310185Y-85330472D01*
X177412320Y-85228336D01*
X177420265Y-85223998D01*
X177425690Y-85216752D01*
X177450446Y-85207518D01*
X177473641Y-85194853D01*
X177482671Y-85195498D01*
X177491154Y-85192335D01*
X177516974Y-85197951D01*
X177543333Y-85199837D01*
X177552386Y-85205655D01*
X177559427Y-85207187D01*
X177587681Y-85228338D01*
X177688181Y-85328838D01*
X177721666Y-85390161D01*
X177724500Y-85416519D01*
X177724500Y-85529154D01*
X177704815Y-85596193D01*
X177665598Y-85634692D01*
X177596956Y-85677031D01*
X177477032Y-85796955D01*
X177477029Y-85796959D01*
X177388001Y-85941294D01*
X177387996Y-85941305D01*
X177334651Y-86102290D01*
X177324500Y-86201647D01*
X177324500Y-86798337D01*
X177324501Y-86798355D01*
X177334650Y-86897707D01*
X177334651Y-86897710D01*
X177387996Y-87058694D01*
X177388001Y-87058705D01*
X177477029Y-87203040D01*
X177477032Y-87203044D01*
X177596955Y-87322967D01*
X177596959Y-87322970D01*
X177741294Y-87411998D01*
X177741297Y-87411999D01*
X177741303Y-87412003D01*
X177902292Y-87465349D01*
X178001655Y-87475500D01*
X178548344Y-87475499D01*
X178560424Y-87474265D01*
X178629116Y-87487034D01*
X178660706Y-87509941D01*
X179916138Y-88765374D01*
X179949623Y-88826696D01*
X179944639Y-88896388D01*
X179902767Y-88952321D01*
X179837303Y-88976738D01*
X179769030Y-88961886D01*
X179766456Y-88960441D01*
X179752392Y-88952321D01*
X179731785Y-88940423D01*
X179579057Y-88899499D01*
X179420943Y-88899499D01*
X179413347Y-88899499D01*
X179413331Y-88899500D01*
X179206715Y-88899500D01*
X179139676Y-88879815D01*
X179100598Y-88839650D01*
X179094955Y-88830315D01*
X179070472Y-88789815D01*
X179070470Y-88789813D01*
X179070469Y-88789811D01*
X178950188Y-88669530D01*
X178939523Y-88663083D01*
X178804606Y-88581522D01*
X178642196Y-88530914D01*
X178642194Y-88530913D01*
X178642192Y-88530913D01*
X178592778Y-88526423D01*
X178571616Y-88524500D01*
X178058384Y-88524500D01*
X178039145Y-88526248D01*
X177987807Y-88530913D01*
X177825393Y-88581522D01*
X177679811Y-88669530D01*
X177679810Y-88669531D01*
X177577681Y-88771661D01*
X177516358Y-88805146D01*
X177446666Y-88800162D01*
X177402319Y-88771661D01*
X177300188Y-88669530D01*
X177289523Y-88663083D01*
X177154606Y-88581522D01*
X176992196Y-88530914D01*
X176992194Y-88530913D01*
X176992192Y-88530913D01*
X176942778Y-88526423D01*
X176921616Y-88524500D01*
X176408384Y-88524500D01*
X176389145Y-88526248D01*
X176337807Y-88530913D01*
X176175393Y-88581522D01*
X176029811Y-88669530D01*
X175909530Y-88789811D01*
X175821522Y-88935393D01*
X175770913Y-89097807D01*
X175764500Y-89168386D01*
X175764500Y-89499902D01*
X175744815Y-89566941D01*
X175728181Y-89587583D01*
X174519481Y-90796282D01*
X174519479Y-90796285D01*
X174504118Y-90822892D01*
X174488756Y-90849500D01*
X174440423Y-90933215D01*
X174399499Y-91085943D01*
X174399499Y-91085945D01*
X174399499Y-91254046D01*
X174399500Y-91254059D01*
X174399500Y-94775500D01*
X174379815Y-94842539D01*
X174327011Y-94888294D01*
X174275500Y-94899500D01*
X165079766Y-94899500D01*
X165012727Y-94879815D01*
X165010875Y-94878602D01*
X164879185Y-94790609D01*
X164879172Y-94790602D01*
X164733501Y-94730264D01*
X164733489Y-94730261D01*
X164578845Y-94699500D01*
X164578842Y-94699500D01*
X164421158Y-94699500D01*
X164421155Y-94699500D01*
X164266510Y-94730261D01*
X164266498Y-94730264D01*
X164120827Y-94790602D01*
X164120814Y-94790609D01*
X163989711Y-94878210D01*
X163989707Y-94878213D01*
X163878213Y-94989707D01*
X163878210Y-94989711D01*
X163790609Y-95120814D01*
X163790602Y-95120827D01*
X163730264Y-95266498D01*
X163730261Y-95266510D01*
X163699500Y-95421153D01*
X163699500Y-95578846D01*
X163730261Y-95733489D01*
X163730264Y-95733501D01*
X163790602Y-95879172D01*
X163790609Y-95879185D01*
X163878210Y-96010288D01*
X163878213Y-96010292D01*
X163989707Y-96121786D01*
X163989711Y-96121789D01*
X164120814Y-96209390D01*
X164120827Y-96209397D01*
X164245262Y-96260939D01*
X164299666Y-96304779D01*
X164321731Y-96371074D01*
X164304452Y-96438773D01*
X164253315Y-96486384D01*
X164197810Y-96499500D01*
X160714782Y-96499500D01*
X160647743Y-96479815D01*
X160601988Y-96427011D01*
X160592044Y-96357853D01*
X160621069Y-96294297D01*
X160627101Y-96287819D01*
X161712786Y-95202135D01*
X162878102Y-94036819D01*
X162939425Y-94003334D01*
X162965783Y-94000500D01*
X163637680Y-94000500D01*
X163704719Y-94020185D01*
X163736948Y-94050191D01*
X163742454Y-94057546D01*
X163771095Y-94078987D01*
X163857664Y-94143793D01*
X163857671Y-94143797D01*
X163992517Y-94194091D01*
X163992516Y-94194091D01*
X163999444Y-94194835D01*
X164052127Y-94200500D01*
X165447872Y-94200499D01*
X165507483Y-94194091D01*
X165642331Y-94143796D01*
X165757546Y-94057546D01*
X165843796Y-93942331D01*
X165894091Y-93807483D01*
X165900500Y-93747873D01*
X165900499Y-92252128D01*
X165894091Y-92192517D01*
X165890471Y-92182812D01*
X165843797Y-92057671D01*
X165843793Y-92057664D01*
X165757547Y-91942455D01*
X165757544Y-91942452D01*
X165642335Y-91856206D01*
X165642328Y-91856202D01*
X165507482Y-91805908D01*
X165507483Y-91805908D01*
X165447883Y-91799501D01*
X165447881Y-91799500D01*
X165447873Y-91799500D01*
X165447864Y-91799500D01*
X164052129Y-91799500D01*
X164052123Y-91799501D01*
X163992516Y-91805908D01*
X163857671Y-91856202D01*
X163857664Y-91856206D01*
X163742457Y-91942451D01*
X163742451Y-91942457D01*
X163736948Y-91949809D01*
X163681015Y-91991681D01*
X163637680Y-91999500D01*
X162401454Y-91999500D01*
X162369391Y-92005876D01*
X162369392Y-92005877D01*
X162208170Y-92037946D01*
X162208164Y-92037948D01*
X162026088Y-92113366D01*
X162026079Y-92113371D01*
X161862219Y-92222859D01*
X161862215Y-92222862D01*
X159397260Y-94687819D01*
X158862220Y-95222859D01*
X158862218Y-95222861D01*
X158818581Y-95266498D01*
X158722859Y-95362219D01*
X158613371Y-95526080D01*
X158613366Y-95526089D01*
X158588119Y-95587043D01*
X158569794Y-95631284D01*
X158537949Y-95708164D01*
X158532910Y-95733497D01*
X158531207Y-95742057D01*
X158531207Y-95742058D01*
X158499500Y-95901456D01*
X158499500Y-96375500D01*
X158479815Y-96442539D01*
X158427011Y-96488294D01*
X158375500Y-96499500D01*
X156302190Y-96499500D01*
X156235151Y-96479815D01*
X156189396Y-96427011D01*
X156179452Y-96357853D01*
X156208477Y-96294297D01*
X156254738Y-96260939D01*
X156379172Y-96209397D01*
X156379172Y-96209396D01*
X156379179Y-96209394D01*
X156510289Y-96121789D01*
X156621789Y-96010289D01*
X156709394Y-95879179D01*
X156710563Y-95876358D01*
X156739430Y-95806666D01*
X156769737Y-95733497D01*
X156800500Y-95578842D01*
X156800500Y-95421158D01*
X156800500Y-95421155D01*
X156800499Y-95421153D01*
X156791272Y-95374767D01*
X156769737Y-95266503D01*
X156764784Y-95254546D01*
X156709397Y-95120827D01*
X156709390Y-95120814D01*
X156621789Y-94989711D01*
X156621786Y-94989707D01*
X156510292Y-94878213D01*
X156510288Y-94878210D01*
X156379185Y-94790609D01*
X156379172Y-94790602D01*
X156233501Y-94730264D01*
X156233489Y-94730261D01*
X156078845Y-94699500D01*
X156078842Y-94699500D01*
X155921158Y-94699500D01*
X155921155Y-94699500D01*
X155766510Y-94730261D01*
X155766498Y-94730264D01*
X155620827Y-94790602D01*
X155620814Y-94790609D01*
X155489125Y-94878602D01*
X155422447Y-94899480D01*
X155420234Y-94899500D01*
X114249097Y-94899500D01*
X114182058Y-94879815D01*
X114136303Y-94827011D01*
X114126359Y-94757853D01*
X114155384Y-94694297D01*
X114161416Y-94687819D01*
X116712416Y-92136819D01*
X116773739Y-92103334D01*
X116800097Y-92100500D01*
X146413331Y-92100500D01*
X146413347Y-92100501D01*
X146420943Y-92100501D01*
X146579054Y-92100501D01*
X146579057Y-92100501D01*
X146731785Y-92059577D01*
X146789136Y-92026465D01*
X146868716Y-91980520D01*
X146980520Y-91868716D01*
X146980520Y-91868714D01*
X146990724Y-91858511D01*
X146990728Y-91858506D01*
X148198506Y-90650728D01*
X148198511Y-90650724D01*
X148208714Y-90640520D01*
X148208716Y-90640520D01*
X148320520Y-90528716D01*
X148374089Y-90435931D01*
X148399577Y-90391785D01*
X148440500Y-90239057D01*
X148440500Y-90080943D01*
X148440500Y-87307418D01*
X148460185Y-87240379D01*
X148512989Y-87194624D01*
X148582147Y-87184680D01*
X148607833Y-87191236D01*
X148623116Y-87196936D01*
X148682517Y-87219091D01*
X148742127Y-87225500D01*
X149437872Y-87225499D01*
X149497483Y-87219091D01*
X149540502Y-87203046D01*
X149572167Y-87191236D01*
X149641859Y-87186252D01*
X149703182Y-87219737D01*
X149736666Y-87281061D01*
X149739500Y-87307418D01*
X149739500Y-89579057D01*
X149742083Y-89588695D01*
X149780423Y-89731783D01*
X149780426Y-89731790D01*
X149859475Y-89868709D01*
X149859478Y-89868713D01*
X149859480Y-89868716D01*
X149971284Y-89980520D01*
X150040800Y-90020655D01*
X150066480Y-90040360D01*
X150696376Y-90670256D01*
X150727833Y-90727865D01*
X150728494Y-90727665D01*
X150729456Y-90730838D01*
X150729861Y-90731579D01*
X150730254Y-90733466D01*
X150730264Y-90733501D01*
X150790602Y-90879172D01*
X150790609Y-90879185D01*
X150878210Y-91010288D01*
X150878213Y-91010292D01*
X150989707Y-91121786D01*
X150989711Y-91121789D01*
X151120814Y-91209390D01*
X151120827Y-91209397D01*
X151266498Y-91269735D01*
X151266503Y-91269737D01*
X151421153Y-91300499D01*
X151421156Y-91300500D01*
X151421158Y-91300500D01*
X151578844Y-91300500D01*
X151578845Y-91300499D01*
X151733497Y-91269737D01*
X151879179Y-91209394D01*
X152010289Y-91121789D01*
X152121789Y-91010289D01*
X152209394Y-90879179D01*
X152269737Y-90733497D01*
X152300500Y-90578842D01*
X152300500Y-90421158D01*
X152300500Y-90421155D01*
X152300499Y-90421153D01*
X152295075Y-90393883D01*
X152269737Y-90266503D01*
X152257495Y-90236950D01*
X152250027Y-90167481D01*
X152281302Y-90105002D01*
X152341391Y-90069350D01*
X152411216Y-90071844D01*
X152459738Y-90101817D01*
X152479707Y-90121786D01*
X152479711Y-90121789D01*
X152610814Y-90209390D01*
X152610827Y-90209397D01*
X152756498Y-90269735D01*
X152756503Y-90269737D01*
X152898635Y-90298009D01*
X152911153Y-90300499D01*
X152911156Y-90300500D01*
X152911158Y-90300500D01*
X153068844Y-90300500D01*
X153068845Y-90300499D01*
X153223497Y-90269737D01*
X153361883Y-90212416D01*
X153369172Y-90209397D01*
X153369172Y-90209396D01*
X153369179Y-90209394D01*
X153471111Y-90141284D01*
X153537786Y-90120408D01*
X153605166Y-90138892D01*
X153608847Y-90141257D01*
X153710821Y-90209394D01*
X153710823Y-90209395D01*
X153710827Y-90209397D01*
X153856498Y-90269735D01*
X153856503Y-90269737D01*
X153998635Y-90298009D01*
X154011153Y-90300499D01*
X154011156Y-90300500D01*
X154011158Y-90300500D01*
X154168844Y-90300500D01*
X154168845Y-90300499D01*
X154323497Y-90269737D01*
X154461883Y-90212416D01*
X154469172Y-90209397D01*
X154469172Y-90209396D01*
X154469179Y-90209394D01*
X154600289Y-90121789D01*
X154711789Y-90010289D01*
X154799394Y-89879179D01*
X154803728Y-89868717D01*
X154859735Y-89733501D01*
X154859737Y-89733497D01*
X154890500Y-89578842D01*
X154890500Y-89421158D01*
X154890500Y-89421155D01*
X154890499Y-89421153D01*
X154866499Y-89300500D01*
X154859737Y-89266503D01*
X154814580Y-89157483D01*
X154799397Y-89120827D01*
X154799390Y-89120814D01*
X154711398Y-88989125D01*
X154690520Y-88922447D01*
X154690500Y-88920234D01*
X154690500Y-88411304D01*
X155589500Y-88411304D01*
X155589500Y-89588695D01*
X155624103Y-89762658D01*
X155624106Y-89762667D01*
X155691983Y-89926540D01*
X155691990Y-89926553D01*
X155790535Y-90074034D01*
X155790538Y-90074038D01*
X155915961Y-90199461D01*
X155915965Y-90199464D01*
X156063446Y-90298009D01*
X156063459Y-90298016D01*
X156170894Y-90342516D01*
X156227334Y-90365894D01*
X156227336Y-90365894D01*
X156227341Y-90365896D01*
X156401304Y-90400499D01*
X156401307Y-90400500D01*
X156401309Y-90400500D01*
X156578693Y-90400500D01*
X156578694Y-90400499D01*
X156636682Y-90388964D01*
X156752658Y-90365896D01*
X156752661Y-90365894D01*
X156752666Y-90365894D01*
X156916547Y-90298013D01*
X157064035Y-90199464D01*
X157126681Y-90136817D01*
X157188002Y-90103334D01*
X157214361Y-90100500D01*
X157784575Y-90100500D01*
X157851614Y-90120185D01*
X157890113Y-90159402D01*
X157917031Y-90203043D01*
X158036955Y-90322967D01*
X158036959Y-90322970D01*
X158181294Y-90411998D01*
X158181297Y-90411999D01*
X158181303Y-90412003D01*
X158342292Y-90465349D01*
X158441655Y-90475500D01*
X158988344Y-90475499D01*
X158988352Y-90475498D01*
X158988355Y-90475498D01*
X159051124Y-90469086D01*
X159087708Y-90465349D01*
X159248697Y-90412003D01*
X159393044Y-90322968D01*
X159512968Y-90203044D01*
X159602003Y-90058697D01*
X159655349Y-89897708D01*
X159665500Y-89798345D01*
X159665499Y-89201656D01*
X159662100Y-89168386D01*
X159655349Y-89102292D01*
X159655348Y-89102289D01*
X159645748Y-89073317D01*
X159602003Y-88941303D01*
X159601999Y-88941297D01*
X159601998Y-88941294D01*
X159512970Y-88796959D01*
X159512967Y-88796955D01*
X159393044Y-88677032D01*
X159393040Y-88677029D01*
X159248705Y-88588001D01*
X159248699Y-88587998D01*
X159248697Y-88587997D01*
X159221069Y-88578842D01*
X159087709Y-88534651D01*
X158988346Y-88524500D01*
X158441662Y-88524500D01*
X158441644Y-88524501D01*
X158342292Y-88534650D01*
X158342289Y-88534651D01*
X158181305Y-88587996D01*
X158181294Y-88588001D01*
X158036959Y-88677029D01*
X158036955Y-88677032D01*
X157917031Y-88796956D01*
X157890113Y-88840598D01*
X157838165Y-88887322D01*
X157784575Y-88899500D01*
X157514500Y-88899500D01*
X157447461Y-88879815D01*
X157401706Y-88827011D01*
X157390500Y-88775500D01*
X157390500Y-88411306D01*
X157390499Y-88411304D01*
X157355896Y-88237341D01*
X157355894Y-88237338D01*
X157355894Y-88237334D01*
X157349937Y-88222953D01*
X157340500Y-88175505D01*
X157340500Y-86971728D01*
X157348318Y-86928394D01*
X157350536Y-86922447D01*
X157384091Y-86832483D01*
X157390500Y-86772873D01*
X157390499Y-84977128D01*
X157384091Y-84917517D01*
X157378375Y-84902192D01*
X157333797Y-84782671D01*
X157333793Y-84782664D01*
X157247547Y-84667455D01*
X157247544Y-84667452D01*
X157132335Y-84581206D01*
X157132328Y-84581202D01*
X156997486Y-84530910D01*
X156997485Y-84530909D01*
X156997483Y-84530909D01*
X156937873Y-84524500D01*
X156937863Y-84524500D01*
X156242129Y-84524500D01*
X156242123Y-84524501D01*
X156182516Y-84530908D01*
X156047671Y-84581202D01*
X156047664Y-84581206D01*
X155932455Y-84667452D01*
X155932452Y-84667455D01*
X155846206Y-84782664D01*
X155846202Y-84782671D01*
X155795908Y-84917517D01*
X155789501Y-84977116D01*
X155789501Y-84977123D01*
X155789500Y-84977135D01*
X155789500Y-86772870D01*
X155789501Y-86772876D01*
X155795908Y-86832483D01*
X155831682Y-86928395D01*
X155839500Y-86971728D01*
X155839500Y-87825638D01*
X155819815Y-87892677D01*
X155803181Y-87913319D01*
X155790538Y-87925961D01*
X155790535Y-87925965D01*
X155691990Y-88073446D01*
X155691983Y-88073459D01*
X155624106Y-88237332D01*
X155624103Y-88237341D01*
X155589500Y-88411304D01*
X154690500Y-88411304D01*
X154690500Y-87187320D01*
X154710185Y-87120281D01*
X154740192Y-87088051D01*
X154747546Y-87082546D01*
X154833796Y-86967331D01*
X154884091Y-86832483D01*
X154890500Y-86772873D01*
X154890499Y-84977128D01*
X154884091Y-84917517D01*
X154878375Y-84902192D01*
X154833797Y-84782671D01*
X154833793Y-84782664D01*
X154747547Y-84667455D01*
X154747544Y-84667452D01*
X154632335Y-84581206D01*
X154632328Y-84581202D01*
X154497486Y-84530910D01*
X154497485Y-84530909D01*
X154497483Y-84530909D01*
X154437873Y-84524500D01*
X154437863Y-84524500D01*
X153742129Y-84524500D01*
X153742123Y-84524501D01*
X153682516Y-84530908D01*
X153547671Y-84581202D01*
X153547662Y-84581207D01*
X153539307Y-84587462D01*
X153473842Y-84611877D01*
X153405570Y-84597023D01*
X153390693Y-84587462D01*
X153382337Y-84581207D01*
X153382328Y-84581202D01*
X153247486Y-84530910D01*
X153247485Y-84530909D01*
X153247483Y-84530909D01*
X153187873Y-84524500D01*
X153187863Y-84524500D01*
X152492129Y-84524500D01*
X152492123Y-84524501D01*
X152432516Y-84530908D01*
X152297671Y-84581202D01*
X152297662Y-84581207D01*
X152289307Y-84587462D01*
X152223842Y-84611877D01*
X152155570Y-84597023D01*
X152140693Y-84587462D01*
X152132337Y-84581207D01*
X152132328Y-84581202D01*
X151997486Y-84530910D01*
X151997485Y-84530909D01*
X151997483Y-84530909D01*
X151937873Y-84524500D01*
X151937863Y-84524500D01*
X151242129Y-84524500D01*
X151242123Y-84524501D01*
X151182516Y-84530908D01*
X151047671Y-84581202D01*
X151047662Y-84581207D01*
X151039307Y-84587462D01*
X150973842Y-84611877D01*
X150905570Y-84597023D01*
X150890693Y-84587462D01*
X150882337Y-84581207D01*
X150882328Y-84581202D01*
X150747486Y-84530910D01*
X150747485Y-84530909D01*
X150747483Y-84530909D01*
X150687873Y-84524500D01*
X150687863Y-84524500D01*
X149992129Y-84524500D01*
X149992123Y-84524501D01*
X149932515Y-84530909D01*
X149857833Y-84558763D01*
X149788141Y-84563747D01*
X149726819Y-84530261D01*
X149693334Y-84468938D01*
X149690501Y-84442581D01*
X149690501Y-84420944D01*
X149688216Y-84412416D01*
X149649577Y-84268216D01*
X149640282Y-84252116D01*
X149570524Y-84131290D01*
X149570521Y-84131286D01*
X149570520Y-84131284D01*
X149160521Y-83721285D01*
X149160520Y-83721284D01*
X149048716Y-83609480D01*
X149048714Y-83609479D01*
X149048709Y-83609475D01*
X148946560Y-83550500D01*
X148911788Y-83530424D01*
X148911787Y-83530423D01*
X148850693Y-83514053D01*
X148759057Y-83489499D01*
X148600943Y-83489499D01*
X148593347Y-83489499D01*
X148593331Y-83489500D01*
X147330940Y-83489500D01*
X147290019Y-83500464D01*
X147290019Y-83500465D01*
X147273785Y-83504815D01*
X147178214Y-83530423D01*
X147178209Y-83530426D01*
X147041290Y-83609475D01*
X147041282Y-83609481D01*
X146981236Y-83669528D01*
X146929480Y-83721284D01*
X146929478Y-83721286D01*
X146593094Y-84057671D01*
X146287584Y-84363181D01*
X146226261Y-84396666D01*
X146199903Y-84399500D01*
X143920940Y-84399500D01*
X143880019Y-84410464D01*
X143880019Y-84410465D01*
X143842751Y-84420451D01*
X143768214Y-84440423D01*
X143768209Y-84440426D01*
X143631290Y-84519475D01*
X143631282Y-84519481D01*
X142485339Y-85665425D01*
X142424016Y-85698910D01*
X142421850Y-85699361D01*
X142266508Y-85730261D01*
X142266498Y-85730264D01*
X142120827Y-85790602D01*
X142120814Y-85790609D01*
X141989711Y-85878210D01*
X141989707Y-85878213D01*
X141878213Y-85989707D01*
X141878210Y-85989711D01*
X141790609Y-86120814D01*
X141790602Y-86120827D01*
X141730264Y-86266498D01*
X141730261Y-86266510D01*
X141699500Y-86421153D01*
X141699500Y-86578846D01*
X141730261Y-86733489D01*
X141730264Y-86733501D01*
X141790602Y-86879172D01*
X141790609Y-86879185D01*
X141878210Y-87010288D01*
X141878213Y-87010292D01*
X141989707Y-87121786D01*
X141989711Y-87121789D01*
X142120814Y-87209390D01*
X142120827Y-87209397D01*
X142255588Y-87265216D01*
X142266503Y-87269737D01*
X142421153Y-87300499D01*
X142421156Y-87300500D01*
X142421158Y-87300500D01*
X142578844Y-87300500D01*
X142578845Y-87300499D01*
X142733497Y-87269737D01*
X142879179Y-87209394D01*
X143010289Y-87121789D01*
X143121789Y-87010289D01*
X143209394Y-86879179D01*
X143269737Y-86733497D01*
X143289113Y-86636085D01*
X143300638Y-86578150D01*
X143333023Y-86516239D01*
X143334518Y-86514716D01*
X144212416Y-85636819D01*
X144273739Y-85603334D01*
X144300097Y-85600500D01*
X144996561Y-85600500D01*
X145063600Y-85620185D01*
X145109355Y-85672989D01*
X145119299Y-85742147D01*
X145090274Y-85805703D01*
X145065452Y-85827602D01*
X144989711Y-85878210D01*
X144989707Y-85878213D01*
X144878213Y-85989707D01*
X144878210Y-85989711D01*
X144790609Y-86120814D01*
X144790602Y-86120827D01*
X144730264Y-86266498D01*
X144730261Y-86266508D01*
X144699361Y-86421850D01*
X144666976Y-86483761D01*
X144665425Y-86485339D01*
X143287584Y-87863181D01*
X143226261Y-87896666D01*
X143199903Y-87899500D01*
X115086670Y-87899500D01*
X115086654Y-87899499D01*
X115079058Y-87899499D01*
X114920943Y-87899499D01*
X114844579Y-87919961D01*
X114768214Y-87940423D01*
X114768209Y-87940426D01*
X114631290Y-88019475D01*
X114631282Y-88019481D01*
X110237584Y-92413181D01*
X110176261Y-92446666D01*
X110149903Y-92449500D01*
X104742190Y-92449500D01*
X104675151Y-92429815D01*
X104629396Y-92377011D01*
X104619452Y-92307853D01*
X104648477Y-92244297D01*
X104694738Y-92210939D01*
X104819172Y-92159397D01*
X104819172Y-92159396D01*
X104819179Y-92159394D01*
X104950289Y-92071789D01*
X105061789Y-91960289D01*
X105149394Y-91829179D01*
X105209737Y-91683497D01*
X105240500Y-91528842D01*
X105240500Y-91371158D01*
X105240500Y-91371155D01*
X105240499Y-91371153D01*
X105220326Y-91269737D01*
X105209737Y-91216503D01*
X105189806Y-91168384D01*
X105149397Y-91070827D01*
X105149390Y-91070814D01*
X105061789Y-90939711D01*
X105061786Y-90939707D01*
X104950292Y-90828213D01*
X104950288Y-90828210D01*
X104819185Y-90740609D01*
X104819172Y-90740602D01*
X104673501Y-90680264D01*
X104673489Y-90680261D01*
X104518845Y-90649500D01*
X104518842Y-90649500D01*
X104361158Y-90649500D01*
X104361155Y-90649500D01*
X104206510Y-90680261D01*
X104206498Y-90680264D01*
X104060827Y-90740602D01*
X104060814Y-90740609D01*
X103929125Y-90828602D01*
X103862447Y-90849480D01*
X103860234Y-90849500D01*
X101864500Y-90849500D01*
X101797461Y-90829815D01*
X101751706Y-90777011D01*
X101740500Y-90725500D01*
X101740499Y-90402130D01*
X101740498Y-90402123D01*
X101740323Y-90400499D01*
X101734091Y-90342517D01*
X101726800Y-90322970D01*
X101683797Y-90207671D01*
X101683793Y-90207664D01*
X101597547Y-90092455D01*
X101597544Y-90092452D01*
X101482335Y-90006206D01*
X101482328Y-90006202D01*
X101347482Y-89955908D01*
X101347483Y-89955908D01*
X101287883Y-89949501D01*
X101287881Y-89949500D01*
X101287873Y-89949500D01*
X101287865Y-89949500D01*
X100764499Y-89949500D01*
X100697460Y-89929815D01*
X100651705Y-89877011D01*
X100640499Y-89825500D01*
X100640499Y-89102129D01*
X100640498Y-89102123D01*
X100640497Y-89102116D01*
X100634091Y-89042517D01*
X100622070Y-89010288D01*
X100583797Y-88907671D01*
X100583793Y-88907664D01*
X100502305Y-88798811D01*
X100477887Y-88733347D01*
X100492738Y-88665074D01*
X100542143Y-88615668D01*
X100601571Y-88600500D01*
X102199903Y-88600500D01*
X102266942Y-88620185D01*
X102287584Y-88636819D01*
X103515139Y-89864374D01*
X103515149Y-89864385D01*
X103519479Y-89868715D01*
X103519480Y-89868716D01*
X103631284Y-89980520D01*
X103631286Y-89980521D01*
X103631290Y-89980524D01*
X103719214Y-90031286D01*
X103768216Y-90059577D01*
X103880019Y-90089534D01*
X103920942Y-90100500D01*
X103920943Y-90100500D01*
X107408331Y-90100500D01*
X107408347Y-90100501D01*
X107415943Y-90100501D01*
X107574054Y-90100501D01*
X107574057Y-90100501D01*
X107726785Y-90059577D01*
X107783994Y-90026547D01*
X107863716Y-89980520D01*
X107975520Y-89868716D01*
X107975520Y-89868714D01*
X107985724Y-89858511D01*
X107985727Y-89858506D01*
X108510904Y-89333330D01*
X108572225Y-89299847D01*
X108574392Y-89299396D01*
X108723497Y-89269737D01*
X108869179Y-89209394D01*
X109000289Y-89121789D01*
X109111789Y-89010289D01*
X109199394Y-88879179D01*
X109259737Y-88733497D01*
X109290500Y-88578842D01*
X109290500Y-88421158D01*
X109290500Y-88421155D01*
X109290499Y-88421153D01*
X109271514Y-88325709D01*
X109259737Y-88266503D01*
X109247654Y-88237332D01*
X109199397Y-88120827D01*
X109199390Y-88120814D01*
X109111789Y-87989711D01*
X109111786Y-87989707D01*
X109000292Y-87878213D01*
X109000288Y-87878210D01*
X108869185Y-87790609D01*
X108869172Y-87790602D01*
X108723501Y-87730264D01*
X108723489Y-87730261D01*
X108568845Y-87699500D01*
X108568842Y-87699500D01*
X108411158Y-87699500D01*
X108411155Y-87699500D01*
X108256510Y-87730261D01*
X108256498Y-87730264D01*
X108110827Y-87790602D01*
X108110814Y-87790609D01*
X107979711Y-87878210D01*
X107979707Y-87878213D01*
X107868213Y-87989707D01*
X107848102Y-88019806D01*
X107794489Y-88064610D01*
X107725164Y-88073317D01*
X107662137Y-88043162D01*
X107641898Y-88019806D01*
X107621786Y-87989707D01*
X107510292Y-87878213D01*
X107510288Y-87878210D01*
X107379185Y-87790609D01*
X107379172Y-87790602D01*
X107233501Y-87730264D01*
X107233489Y-87730261D01*
X107078845Y-87699500D01*
X107078842Y-87699500D01*
X106921158Y-87699500D01*
X106921155Y-87699500D01*
X106766510Y-87730261D01*
X106766498Y-87730264D01*
X106620827Y-87790602D01*
X106620814Y-87790609D01*
X106489125Y-87878602D01*
X106422447Y-87899480D01*
X106420234Y-87899500D01*
X105376555Y-87899500D01*
X105309516Y-87879815D01*
X105263761Y-87827011D01*
X105253817Y-87757853D01*
X105258840Y-87739588D01*
X105257969Y-87739324D01*
X105259731Y-87733509D01*
X105259737Y-87733497D01*
X105290500Y-87578842D01*
X105290500Y-87421158D01*
X105290500Y-87421155D01*
X105290499Y-87421153D01*
X105270969Y-87322970D01*
X105259737Y-87266503D01*
X105259204Y-87265216D01*
X105199397Y-87120827D01*
X105199390Y-87120814D01*
X105111398Y-86989125D01*
X105090520Y-86922447D01*
X105090500Y-86920234D01*
X105090500Y-86278688D01*
X105110185Y-86211649D01*
X105162989Y-86165894D01*
X105232147Y-86155950D01*
X105257833Y-86162506D01*
X105342517Y-86194091D01*
X105342516Y-86194091D01*
X105349444Y-86194835D01*
X105402127Y-86200500D01*
X106447872Y-86200499D01*
X106507483Y-86194091D01*
X106642331Y-86143796D01*
X106757546Y-86057546D01*
X106843796Y-85942331D01*
X106894091Y-85807483D01*
X106900500Y-85747873D01*
X106900499Y-84252128D01*
X106894091Y-84192517D01*
X106858766Y-84097807D01*
X106843797Y-84057671D01*
X106843793Y-84057664D01*
X106757547Y-83942455D01*
X106757544Y-83942452D01*
X106642335Y-83856206D01*
X106642328Y-83856202D01*
X106507482Y-83805908D01*
X106507483Y-83805908D01*
X106447883Y-83799501D01*
X106447881Y-83799500D01*
X106447873Y-83799500D01*
X106447864Y-83799500D01*
X105402129Y-83799500D01*
X105402123Y-83799501D01*
X105342516Y-83805908D01*
X105207671Y-83856202D01*
X105207664Y-83856206D01*
X105092455Y-83942452D01*
X105092452Y-83942455D01*
X105006206Y-84057664D01*
X105006202Y-84057671D01*
X104955908Y-84192517D01*
X104949501Y-84252116D01*
X104949501Y-84252123D01*
X104949500Y-84252135D01*
X104949500Y-84275500D01*
X104929815Y-84342539D01*
X104877011Y-84388294D01*
X104825500Y-84399500D01*
X102290098Y-84399500D01*
X102223059Y-84379815D01*
X102202417Y-84363181D01*
X101858717Y-84019481D01*
X101858716Y-84019480D01*
X101771904Y-83969360D01*
X101771904Y-83969359D01*
X101771900Y-83969358D01*
X101721785Y-83940423D01*
X101569057Y-83899499D01*
X101410943Y-83899499D01*
X101403347Y-83899499D01*
X101403331Y-83899500D01*
X101381715Y-83899500D01*
X101314676Y-83879815D01*
X101275598Y-83839650D01*
X101255201Y-83805909D01*
X101245472Y-83789815D01*
X101245470Y-83789813D01*
X101245469Y-83789811D01*
X101125188Y-83669530D01*
X100979606Y-83581522D01*
X100817196Y-83530914D01*
X100817194Y-83530913D01*
X100817192Y-83530913D01*
X100767778Y-83526423D01*
X100746616Y-83524500D01*
X100233384Y-83524500D01*
X100214145Y-83526248D01*
X100162807Y-83530913D01*
X100000393Y-83581522D01*
X99854811Y-83669530D01*
X99854810Y-83669531D01*
X99752681Y-83771661D01*
X99691358Y-83805146D01*
X99621666Y-83800162D01*
X99577319Y-83771661D01*
X99475188Y-83669530D01*
X99329606Y-83581522D01*
X99167196Y-83530914D01*
X99167194Y-83530913D01*
X99167192Y-83530913D01*
X99117778Y-83526423D01*
X99096616Y-83524500D01*
X98583384Y-83524500D01*
X98564145Y-83526248D01*
X98512807Y-83530913D01*
X98350393Y-83581522D01*
X98204811Y-83669530D01*
X98084530Y-83789811D01*
X98054402Y-83839650D01*
X98002874Y-83886838D01*
X97948285Y-83899500D01*
X97214361Y-83899500D01*
X97147322Y-83879815D01*
X97126684Y-83863185D01*
X97064035Y-83800536D01*
X97064034Y-83800535D01*
X97064033Y-83800534D01*
X96916553Y-83701990D01*
X96916540Y-83701983D01*
X96752667Y-83634106D01*
X96752658Y-83634103D01*
X96578694Y-83599500D01*
X96578691Y-83599500D01*
X96401309Y-83599500D01*
X96401306Y-83599500D01*
X96227341Y-83634103D01*
X96227332Y-83634106D01*
X96063459Y-83701983D01*
X96063446Y-83701990D01*
X95915965Y-83800535D01*
X95915961Y-83800538D01*
X95790538Y-83925961D01*
X95790535Y-83925965D01*
X95691990Y-84073446D01*
X95691983Y-84073459D01*
X95624106Y-84237332D01*
X95624103Y-84237341D01*
X95589500Y-84411304D01*
X95589500Y-85588695D01*
X95624103Y-85762658D01*
X95624106Y-85762667D01*
X95691983Y-85926540D01*
X95691990Y-85926553D01*
X95790535Y-86074034D01*
X95790538Y-86074038D01*
X95915961Y-86199461D01*
X95915965Y-86199464D01*
X96063446Y-86298009D01*
X96063459Y-86298016D01*
X96186363Y-86348923D01*
X96227334Y-86365894D01*
X96227336Y-86365894D01*
X96227341Y-86365896D01*
X96401304Y-86400499D01*
X96401307Y-86400500D01*
X96440902Y-86400500D01*
X96507941Y-86420185D01*
X96553696Y-86472989D01*
X96563640Y-86542147D01*
X96534615Y-86605703D01*
X96528583Y-86612181D01*
X95459481Y-87681282D01*
X95459479Y-87681285D01*
X95448963Y-87699500D01*
X95430324Y-87731784D01*
X95380423Y-87818215D01*
X95339499Y-87970943D01*
X95339499Y-87970945D01*
X95339499Y-88139046D01*
X95339500Y-88139059D01*
X95339500Y-88525500D01*
X95319815Y-88592539D01*
X95267011Y-88638294D01*
X95215500Y-88649500D01*
X94892130Y-88649500D01*
X94892123Y-88649501D01*
X94832516Y-88655908D01*
X94783332Y-88674253D01*
X94713640Y-88679237D01*
X94696667Y-88674253D01*
X94647486Y-88655910D01*
X94647485Y-88655909D01*
X94647483Y-88655909D01*
X94587873Y-88649500D01*
X94587863Y-88649500D01*
X94092129Y-88649500D01*
X94092123Y-88649501D01*
X94032516Y-88655908D01*
X93983332Y-88674253D01*
X93913640Y-88679237D01*
X93896667Y-88674253D01*
X93847486Y-88655910D01*
X93847485Y-88655909D01*
X93847483Y-88655909D01*
X93787873Y-88649500D01*
X93787863Y-88649500D01*
X93292129Y-88649500D01*
X93292123Y-88649501D01*
X93232516Y-88655908D01*
X93183332Y-88674253D01*
X93113640Y-88679237D01*
X93096667Y-88674253D01*
X93047486Y-88655910D01*
X93047485Y-88655909D01*
X93047483Y-88655909D01*
X92987873Y-88649500D01*
X92987863Y-88649500D01*
X92492129Y-88649500D01*
X92492123Y-88649501D01*
X92432516Y-88655908D01*
X92383332Y-88674253D01*
X92313640Y-88679237D01*
X92296667Y-88674253D01*
X92247486Y-88655910D01*
X92247485Y-88655909D01*
X92247483Y-88655909D01*
X92187873Y-88649500D01*
X92187863Y-88649500D01*
X91692129Y-88649500D01*
X91692123Y-88649501D01*
X91632516Y-88655908D01*
X91497671Y-88706202D01*
X91497664Y-88706206D01*
X91382455Y-88792452D01*
X91382452Y-88792455D01*
X91296206Y-88907664D01*
X91296202Y-88907671D01*
X91245908Y-89042517D01*
X91239957Y-89097872D01*
X91239501Y-89102123D01*
X91239500Y-89102135D01*
X91239500Y-89997870D01*
X91239501Y-89997876D01*
X91245908Y-90057483D01*
X91296202Y-90192328D01*
X91296206Y-90192335D01*
X91382452Y-90307544D01*
X91382455Y-90307547D01*
X91497664Y-90393793D01*
X91497671Y-90393797D01*
X91539999Y-90409584D01*
X91632517Y-90444091D01*
X91692127Y-90450500D01*
X92187872Y-90450499D01*
X92247483Y-90444091D01*
X92296665Y-90425746D01*
X92366355Y-90420761D01*
X92383333Y-90425747D01*
X92432508Y-90444088D01*
X92432511Y-90444089D01*
X92432517Y-90444091D01*
X92492127Y-90450500D01*
X92987872Y-90450499D01*
X93047483Y-90444091D01*
X93096665Y-90425746D01*
X93166355Y-90420761D01*
X93183333Y-90425747D01*
X93232508Y-90444088D01*
X93232511Y-90444089D01*
X93232517Y-90444091D01*
X93292127Y-90450500D01*
X93787872Y-90450499D01*
X93847483Y-90444091D01*
X93896665Y-90425746D01*
X93966355Y-90420761D01*
X93983333Y-90425747D01*
X94032508Y-90444088D01*
X94032511Y-90444089D01*
X94032517Y-90444091D01*
X94092127Y-90450500D01*
X94587872Y-90450499D01*
X94647483Y-90444091D01*
X94696665Y-90425746D01*
X94766355Y-90420761D01*
X94783333Y-90425747D01*
X94832508Y-90444088D01*
X94832511Y-90444089D01*
X94832517Y-90444091D01*
X94892127Y-90450500D01*
X95387872Y-90450499D01*
X95447483Y-90444091D01*
X95496665Y-90425746D01*
X95566355Y-90420761D01*
X95583333Y-90425747D01*
X95632508Y-90444088D01*
X95632511Y-90444089D01*
X95632517Y-90444091D01*
X95692127Y-90450500D01*
X96187872Y-90450499D01*
X96247483Y-90444091D01*
X96296665Y-90425746D01*
X96366355Y-90420761D01*
X96383333Y-90425747D01*
X96432508Y-90444088D01*
X96432511Y-90444089D01*
X96432517Y-90444091D01*
X96492127Y-90450500D01*
X96987872Y-90450499D01*
X97047483Y-90444091D01*
X97096665Y-90425746D01*
X97166355Y-90420761D01*
X97183333Y-90425747D01*
X97232508Y-90444088D01*
X97232511Y-90444089D01*
X97232517Y-90444091D01*
X97292127Y-90450500D01*
X97787872Y-90450499D01*
X97847483Y-90444091D01*
X97896665Y-90425746D01*
X97966355Y-90420761D01*
X97983333Y-90425747D01*
X98032508Y-90444088D01*
X98032511Y-90444089D01*
X98032517Y-90444091D01*
X98092127Y-90450500D01*
X98587872Y-90450499D01*
X98647483Y-90444091D01*
X98696665Y-90425746D01*
X98766355Y-90420761D01*
X98783333Y-90425747D01*
X98832508Y-90444088D01*
X98832511Y-90444089D01*
X98832517Y-90444091D01*
X98892127Y-90450500D01*
X99387872Y-90450499D01*
X99447483Y-90444091D01*
X99496665Y-90425746D01*
X99566355Y-90420761D01*
X99583333Y-90425747D01*
X99632508Y-90444088D01*
X99632511Y-90444089D01*
X99632517Y-90444091D01*
X99692127Y-90450500D01*
X99815500Y-90450499D01*
X99882539Y-90470183D01*
X99928294Y-90522987D01*
X99939500Y-90574499D01*
X99939500Y-90897869D01*
X99939501Y-90897876D01*
X99945908Y-90957482D01*
X99964253Y-91006666D01*
X99969237Y-91076358D01*
X99964253Y-91093331D01*
X99945910Y-91142511D01*
X99945909Y-91142515D01*
X99945909Y-91142517D01*
X99939500Y-91202127D01*
X99939500Y-91202134D01*
X99939500Y-91202135D01*
X99939500Y-91697870D01*
X99939501Y-91697876D01*
X99945908Y-91757482D01*
X99959004Y-91792593D01*
X99963970Y-91805909D01*
X99964253Y-91806666D01*
X99969237Y-91876358D01*
X99964253Y-91893331D01*
X99945910Y-91942511D01*
X99945909Y-91942515D01*
X99945909Y-91942517D01*
X99939500Y-92002127D01*
X99939500Y-92002134D01*
X99939500Y-92002135D01*
X99939500Y-92497870D01*
X99939501Y-92497876D01*
X99945908Y-92557482D01*
X99964253Y-92606666D01*
X99969237Y-92676358D01*
X99964253Y-92693331D01*
X99945910Y-92742511D01*
X99945909Y-92742515D01*
X99945909Y-92742517D01*
X99939500Y-92802127D01*
X99939500Y-92802134D01*
X99939500Y-92802135D01*
X99939500Y-93297870D01*
X99939501Y-93297876D01*
X99945908Y-93357482D01*
X99964253Y-93406666D01*
X99969237Y-93476358D01*
X99964253Y-93493331D01*
X99945910Y-93542511D01*
X99945909Y-93542515D01*
X99945909Y-93542517D01*
X99939500Y-93602127D01*
X99939500Y-93602134D01*
X99939500Y-93602135D01*
X99939500Y-94097870D01*
X99939501Y-94097876D01*
X99945908Y-94157482D01*
X99964253Y-94206666D01*
X99969237Y-94276358D01*
X99964253Y-94293331D01*
X99945910Y-94342511D01*
X99945909Y-94342515D01*
X99945909Y-94342517D01*
X99939500Y-94402127D01*
X99939500Y-94402134D01*
X99939500Y-94402135D01*
X99939500Y-94897870D01*
X99939501Y-94897876D01*
X99945908Y-94957482D01*
X99964253Y-95006666D01*
X99969237Y-95076358D01*
X99964253Y-95093331D01*
X99945910Y-95142511D01*
X99945909Y-95142515D01*
X99945909Y-95142517D01*
X99939500Y-95202127D01*
X99939500Y-95202134D01*
X99939500Y-95202135D01*
X99939500Y-95697870D01*
X99939501Y-95697876D01*
X99945908Y-95757482D01*
X99964253Y-95806666D01*
X99969237Y-95876358D01*
X99964253Y-95893331D01*
X99945910Y-95942511D01*
X99945909Y-95942515D01*
X99945909Y-95942517D01*
X99939500Y-96002127D01*
X99939500Y-96002134D01*
X99939500Y-96002135D01*
X99939500Y-96497870D01*
X99939501Y-96497876D01*
X99945908Y-96557482D01*
X99959004Y-96592593D01*
X99961953Y-96600501D01*
X99964253Y-96606666D01*
X99969237Y-96676358D01*
X99964253Y-96693331D01*
X99945910Y-96742511D01*
X99945909Y-96742515D01*
X99945909Y-96742517D01*
X99939500Y-96802127D01*
X99939500Y-96802134D01*
X99939500Y-96802135D01*
X99939500Y-97297870D01*
X99939501Y-97297876D01*
X99945908Y-97357482D01*
X99964253Y-97406666D01*
X99969237Y-97476358D01*
X99964253Y-97493331D01*
X99945910Y-97542511D01*
X99945909Y-97542515D01*
X99945909Y-97542517D01*
X99939500Y-97602127D01*
X99939500Y-97602134D01*
X99939500Y-97602135D01*
X99939500Y-98097870D01*
X99939501Y-98097876D01*
X99945908Y-98157483D01*
X99996202Y-98292328D01*
X99996206Y-98292335D01*
X100082452Y-98407544D01*
X100082455Y-98407547D01*
X100197664Y-98493793D01*
X100197671Y-98493797D01*
X100304972Y-98533818D01*
X100360906Y-98575689D01*
X100385323Y-98641154D01*
X100370471Y-98709427D01*
X100321066Y-98758832D01*
X100304972Y-98766182D01*
X100197671Y-98806202D01*
X100197664Y-98806206D01*
X100082455Y-98892452D01*
X100082452Y-98892455D01*
X99996206Y-99007664D01*
X99996202Y-99007671D01*
X99954238Y-99120185D01*
X99945909Y-99142517D01*
X99939500Y-99202127D01*
X99939500Y-99202134D01*
X99939500Y-99202135D01*
X99939500Y-99697870D01*
X99939501Y-99697876D01*
X99945908Y-99757482D01*
X99964253Y-99806666D01*
X99969237Y-99876358D01*
X99964253Y-99893331D01*
X99945910Y-99942511D01*
X99945909Y-99942515D01*
X99945909Y-99942517D01*
X99939500Y-100002127D01*
X99939500Y-100002134D01*
X99939500Y-100002135D01*
X99939500Y-100497870D01*
X99939501Y-100497879D01*
X99943634Y-100536325D01*
X99931227Y-100605084D01*
X99883615Y-100656220D01*
X99815915Y-100673498D01*
X99749622Y-100651432D01*
X99721078Y-100623888D01*
X99697547Y-100592455D01*
X99697544Y-100592452D01*
X99582335Y-100506206D01*
X99582328Y-100506202D01*
X99447486Y-100455910D01*
X99447485Y-100455909D01*
X99447483Y-100455909D01*
X99387873Y-100449500D01*
X99387863Y-100449500D01*
X98892129Y-100449500D01*
X98892123Y-100449501D01*
X98832516Y-100455908D01*
X98783332Y-100474253D01*
X98713640Y-100479237D01*
X98696667Y-100474253D01*
X98647486Y-100455910D01*
X98647485Y-100455909D01*
X98647483Y-100455909D01*
X98587873Y-100449500D01*
X98587863Y-100449500D01*
X98092129Y-100449500D01*
X98092123Y-100449501D01*
X98032516Y-100455908D01*
X97983332Y-100474253D01*
X97913640Y-100479237D01*
X97896667Y-100474253D01*
X97847486Y-100455910D01*
X97847485Y-100455909D01*
X97847483Y-100455909D01*
X97787873Y-100449500D01*
X97787863Y-100449500D01*
X97292129Y-100449500D01*
X97292123Y-100449501D01*
X97232516Y-100455908D01*
X97183332Y-100474253D01*
X97113640Y-100479237D01*
X97096667Y-100474253D01*
X97047486Y-100455910D01*
X97047485Y-100455909D01*
X97047483Y-100455909D01*
X96987873Y-100449500D01*
X96987863Y-100449500D01*
X96492129Y-100449500D01*
X96492123Y-100449501D01*
X96432516Y-100455908D01*
X96383332Y-100474253D01*
X96313640Y-100479237D01*
X96296667Y-100474253D01*
X96247486Y-100455910D01*
X96247485Y-100455909D01*
X96247483Y-100455909D01*
X96187873Y-100449500D01*
X96187863Y-100449500D01*
X95692129Y-100449500D01*
X95692123Y-100449501D01*
X95632516Y-100455908D01*
X95583332Y-100474253D01*
X95513640Y-100479237D01*
X95496667Y-100474253D01*
X95447486Y-100455910D01*
X95447485Y-100455909D01*
X95447483Y-100455909D01*
X95387873Y-100449500D01*
X95387863Y-100449500D01*
X94892129Y-100449500D01*
X94892123Y-100449501D01*
X94832516Y-100455908D01*
X94783332Y-100474253D01*
X94713640Y-100479237D01*
X94696667Y-100474253D01*
X94647486Y-100455910D01*
X94647485Y-100455909D01*
X94647483Y-100455909D01*
X94587873Y-100449500D01*
X94587863Y-100449500D01*
X94092129Y-100449500D01*
X94092123Y-100449501D01*
X94032516Y-100455908D01*
X93983332Y-100474253D01*
X93913640Y-100479237D01*
X93896667Y-100474253D01*
X93847486Y-100455910D01*
X93847485Y-100455909D01*
X93847483Y-100455909D01*
X93787873Y-100449500D01*
X93787863Y-100449500D01*
X93292129Y-100449500D01*
X93292123Y-100449501D01*
X93232516Y-100455908D01*
X93097671Y-100506202D01*
X93097664Y-100506206D01*
X92982455Y-100592452D01*
X92982452Y-100592455D01*
X92896206Y-100707664D01*
X92896202Y-100707671D01*
X92845908Y-100842517D01*
X92839501Y-100902116D01*
X92839500Y-100902135D01*
X92839500Y-101797870D01*
X92839501Y-101797876D01*
X92845908Y-101857483D01*
X92881682Y-101953395D01*
X92889500Y-101996728D01*
X92889500Y-103280637D01*
X92869815Y-103347676D01*
X92853181Y-103368318D01*
X92800540Y-103420958D01*
X92800534Y-103420965D01*
X92701988Y-103568451D01*
X92634105Y-103732333D01*
X92634103Y-103732341D01*
X92599500Y-103906303D01*
X92599500Y-104083696D01*
X92634103Y-104257658D01*
X92634105Y-104257666D01*
X92701988Y-104421548D01*
X92800534Y-104569034D01*
X92800540Y-104569041D01*
X98019320Y-109787819D01*
X98052805Y-109849142D01*
X98047821Y-109918834D01*
X98005949Y-109974767D01*
X97940485Y-109999184D01*
X97931639Y-109999500D01*
X90114500Y-109999500D01*
X90047461Y-109979815D01*
X90001706Y-109927011D01*
X89990500Y-109875500D01*
X89990500Y-102174000D01*
X90010185Y-102106961D01*
X90062989Y-102061206D01*
X90114500Y-102050000D01*
X90340000Y-102050000D01*
X90340000Y-88850000D01*
X90114500Y-88850000D01*
X90047461Y-88830315D01*
X90001706Y-88777511D01*
X89990500Y-88726000D01*
X89990500Y-81124500D01*
X90010185Y-81057461D01*
X90062989Y-81011706D01*
X90114500Y-81000500D01*
X193375500Y-81000500D01*
X193442539Y-81020185D01*
G37*
%TD.AperFunction*%
%TA.AperFunction,Conductor*%
G36*
X155487273Y-96120185D02*
G01*
X155489125Y-96121398D01*
X155620814Y-96209390D01*
X155620827Y-96209397D01*
X155745262Y-96260939D01*
X155799666Y-96304779D01*
X155821731Y-96371074D01*
X155804452Y-96438773D01*
X155753315Y-96486384D01*
X155697810Y-96499500D01*
X149594675Y-96499500D01*
X149594655Y-96499499D01*
X149588541Y-96499499D01*
X149391460Y-96499499D01*
X149391457Y-96499499D01*
X149198172Y-96537946D01*
X149198164Y-96537948D01*
X149016088Y-96613366D01*
X149016079Y-96613371D01*
X148852219Y-96722859D01*
X148852215Y-96722862D01*
X147972952Y-97602127D01*
X147702220Y-97872859D01*
X147702218Y-97872861D01*
X147632538Y-97942540D01*
X147562859Y-98012219D01*
X147453371Y-98176080D01*
X147453364Y-98176093D01*
X147417400Y-98262918D01*
X147417395Y-98262932D01*
X147415207Y-98268216D01*
X147377949Y-98358164D01*
X147361306Y-98441836D01*
X147360050Y-98448148D01*
X147360048Y-98448156D01*
X147339500Y-98551456D01*
X147339500Y-100750500D01*
X147319815Y-100817539D01*
X147267011Y-100863294D01*
X147215500Y-100874500D01*
X142938389Y-100874500D01*
X142877971Y-100886518D01*
X142834743Y-100895116D01*
X142817546Y-100898537D01*
X142703716Y-100945687D01*
X142607038Y-101010285D01*
X142607034Y-101010289D01*
X142607030Y-101010292D01*
X142601261Y-101014146D01*
X142601260Y-101014147D01*
X141502181Y-102113227D01*
X141440858Y-102146712D01*
X141371166Y-102141728D01*
X141315233Y-102099856D01*
X141290816Y-102034392D01*
X141290500Y-102025546D01*
X141290500Y-101921155D01*
X141290499Y-101921153D01*
X141282276Y-101879815D01*
X141259737Y-101766503D01*
X141243513Y-101727334D01*
X141199397Y-101620827D01*
X141199390Y-101620814D01*
X141111789Y-101489711D01*
X141111786Y-101489707D01*
X141000292Y-101378213D01*
X141000286Y-101378208D01*
X140967710Y-101356441D01*
X140922905Y-101302828D01*
X140914199Y-101233503D01*
X140944355Y-101170476D01*
X140967710Y-101150238D01*
X141010289Y-101121789D01*
X141121789Y-101010289D01*
X141209394Y-100879179D01*
X141211029Y-100875233D01*
X141242398Y-100799500D01*
X141269737Y-100733497D01*
X141300500Y-100578842D01*
X141300500Y-100421158D01*
X141300500Y-100421155D01*
X141300499Y-100421153D01*
X141295835Y-100397707D01*
X141269737Y-100266503D01*
X141216656Y-100138352D01*
X141209397Y-100120827D01*
X141209390Y-100120814D01*
X141121789Y-99989711D01*
X141121786Y-99989707D01*
X141010292Y-99878213D01*
X141010288Y-99878210D01*
X140879185Y-99790609D01*
X140879172Y-99790602D01*
X140733501Y-99730264D01*
X140733489Y-99730261D01*
X140578845Y-99699500D01*
X140578842Y-99699500D01*
X140421158Y-99699500D01*
X140421155Y-99699500D01*
X140266510Y-99730261D01*
X140266498Y-99730264D01*
X140120827Y-99790602D01*
X140120814Y-99790609D01*
X139989125Y-99878602D01*
X139922447Y-99899480D01*
X139920234Y-99899500D01*
X138920940Y-99899500D01*
X138883621Y-99909499D01*
X138883622Y-99909500D01*
X138768214Y-99940423D01*
X138768209Y-99940426D01*
X138631290Y-100019475D01*
X138631284Y-100019480D01*
X137019481Y-101631282D01*
X137019479Y-101631285D01*
X136969361Y-101718094D01*
X136969359Y-101718096D01*
X136940425Y-101768209D01*
X136940424Y-101768210D01*
X136940423Y-101768215D01*
X136899499Y-101920943D01*
X136899499Y-101920945D01*
X136899499Y-102089046D01*
X136899500Y-102089059D01*
X136899500Y-103250902D01*
X136879815Y-103317941D01*
X136827011Y-103363696D01*
X136757853Y-103373640D01*
X136694297Y-103344615D01*
X136687819Y-103338583D01*
X136487590Y-103138355D01*
X136487588Y-103138352D01*
X136368717Y-103019481D01*
X136368716Y-103019480D01*
X136268871Y-102961835D01*
X136231785Y-102940423D01*
X136198778Y-102931578D01*
X136189972Y-102927680D01*
X136170356Y-102911079D01*
X136148411Y-102897702D01*
X136137908Y-102883617D01*
X136136639Y-102882543D01*
X136136312Y-102881477D01*
X136134050Y-102878443D01*
X136080474Y-102789817D01*
X136080471Y-102789813D01*
X135960188Y-102669530D01*
X135947376Y-102661785D01*
X135814606Y-102581522D01*
X135652196Y-102530914D01*
X135652194Y-102530913D01*
X135652192Y-102530913D01*
X135602778Y-102526423D01*
X135581616Y-102524500D01*
X135068384Y-102524500D01*
X135049145Y-102526248D01*
X134997807Y-102530913D01*
X134835393Y-102581522D01*
X134689811Y-102669530D01*
X134689810Y-102669531D01*
X134587681Y-102771661D01*
X134526358Y-102805146D01*
X134456666Y-102800162D01*
X134412319Y-102771661D01*
X134310188Y-102669530D01*
X134297376Y-102661785D01*
X134164606Y-102581522D01*
X134002196Y-102530914D01*
X134002194Y-102530913D01*
X134002192Y-102530913D01*
X133952778Y-102526423D01*
X133931616Y-102524500D01*
X133418384Y-102524500D01*
X133399145Y-102526248D01*
X133347807Y-102530913D01*
X133185393Y-102581522D01*
X133078670Y-102646039D01*
X133011115Y-102663875D01*
X132944641Y-102642357D01*
X132926839Y-102627603D01*
X130437590Y-100138355D01*
X130437588Y-100138352D01*
X130318716Y-100019480D01*
X130318709Y-100019475D01*
X130199106Y-99950423D01*
X130199106Y-99950422D01*
X130199101Y-99950421D01*
X130185412Y-99942517D01*
X130181786Y-99940423D01*
X130143603Y-99930192D01*
X130029057Y-99899499D01*
X129870943Y-99899499D01*
X129863347Y-99899499D01*
X129863331Y-99899500D01*
X125579766Y-99899500D01*
X125512727Y-99879815D01*
X125510875Y-99878602D01*
X125379185Y-99790609D01*
X125379172Y-99790602D01*
X125233501Y-99730264D01*
X125233489Y-99730261D01*
X125078845Y-99699500D01*
X125078842Y-99699500D01*
X124921158Y-99699500D01*
X124921155Y-99699500D01*
X124766510Y-99730261D01*
X124766498Y-99730264D01*
X124620827Y-99790602D01*
X124620814Y-99790609D01*
X124489711Y-99878210D01*
X124489707Y-99878213D01*
X124378213Y-99989707D01*
X124353102Y-100027289D01*
X124299489Y-100072093D01*
X124230164Y-100080800D01*
X124167137Y-100050645D01*
X124146898Y-100027289D01*
X124121786Y-99989707D01*
X124010292Y-99878213D01*
X124010288Y-99878210D01*
X123879185Y-99790609D01*
X123879172Y-99790602D01*
X123733501Y-99730264D01*
X123733489Y-99730261D01*
X123578845Y-99699500D01*
X123578842Y-99699500D01*
X123421158Y-99699500D01*
X123421155Y-99699500D01*
X123266510Y-99730261D01*
X123266498Y-99730264D01*
X123120827Y-99790602D01*
X123120814Y-99790609D01*
X122989711Y-99878210D01*
X122989707Y-99878213D01*
X122878213Y-99989707D01*
X122878210Y-99989711D01*
X122790609Y-100120814D01*
X122790602Y-100120827D01*
X122730264Y-100266498D01*
X122730261Y-100266510D01*
X122699500Y-100421153D01*
X122699500Y-100578846D01*
X122730261Y-100733489D01*
X122730264Y-100733501D01*
X122790602Y-100879172D01*
X122790609Y-100879185D01*
X122878210Y-101010288D01*
X122878213Y-101010292D01*
X122989707Y-101121786D01*
X122989711Y-101121789D01*
X123120814Y-101209390D01*
X123120827Y-101209397D01*
X123266498Y-101269735D01*
X123266503Y-101269737D01*
X123331147Y-101282595D01*
X123421849Y-101300638D01*
X123483760Y-101333023D01*
X123485339Y-101334574D01*
X124515139Y-102364374D01*
X124515149Y-102364385D01*
X124519479Y-102368715D01*
X124519480Y-102368716D01*
X124631284Y-102480520D01*
X124631286Y-102480521D01*
X124631290Y-102480524D01*
X124739190Y-102542819D01*
X124768216Y-102559577D01*
X124876871Y-102588691D01*
X124876870Y-102588691D01*
X124888679Y-102591855D01*
X124920942Y-102600500D01*
X124920943Y-102600500D01*
X129649903Y-102600500D01*
X129716942Y-102620185D01*
X129737583Y-102636818D01*
X132581284Y-105480520D01*
X132581286Y-105480521D01*
X132581290Y-105480524D01*
X132707053Y-105553132D01*
X132718216Y-105559577D01*
X132801590Y-105581917D01*
X132861250Y-105618283D01*
X132875612Y-105637541D01*
X132919528Y-105710185D01*
X132919531Y-105710189D01*
X133039811Y-105830469D01*
X133039813Y-105830470D01*
X133039815Y-105830472D01*
X133185394Y-105918478D01*
X133347804Y-105969086D01*
X133418384Y-105975500D01*
X133418387Y-105975500D01*
X133931613Y-105975500D01*
X133931616Y-105975500D01*
X134002196Y-105969086D01*
X134164606Y-105918478D01*
X134310185Y-105830472D01*
X134357410Y-105783247D01*
X134412319Y-105728339D01*
X134473642Y-105694854D01*
X134543334Y-105699838D01*
X134587681Y-105728339D01*
X134689811Y-105830469D01*
X134689813Y-105830470D01*
X134689815Y-105830472D01*
X134835394Y-105918478D01*
X134997804Y-105969086D01*
X135068384Y-105975500D01*
X135068387Y-105975500D01*
X135581613Y-105975500D01*
X135581616Y-105975500D01*
X135652196Y-105969086D01*
X135814606Y-105918478D01*
X135890168Y-105872798D01*
X135957722Y-105854962D01*
X136024196Y-105876479D01*
X136041999Y-105891234D01*
X136838584Y-106687819D01*
X136872069Y-106749142D01*
X136867085Y-106818834D01*
X136825213Y-106874767D01*
X136759749Y-106899184D01*
X136750903Y-106899500D01*
X136391715Y-106899500D01*
X136324676Y-106879815D01*
X136285598Y-106839650D01*
X136277601Y-106826421D01*
X136255472Y-106789815D01*
X136255470Y-106789813D01*
X136255469Y-106789811D01*
X136135188Y-106669530D01*
X135989606Y-106581522D01*
X135972716Y-106576259D01*
X135827196Y-106530914D01*
X135827194Y-106530913D01*
X135827192Y-106530913D01*
X135777778Y-106526423D01*
X135756616Y-106524500D01*
X135243384Y-106524500D01*
X135224145Y-106526248D01*
X135172807Y-106530913D01*
X135010393Y-106581522D01*
X134864811Y-106669530D01*
X134744530Y-106789811D01*
X134656522Y-106935393D01*
X134605913Y-107097807D01*
X134602368Y-107136819D01*
X134599500Y-107168384D01*
X134599500Y-107831616D01*
X134600316Y-107840598D01*
X134605913Y-107902192D01*
X134605913Y-107902194D01*
X134605914Y-107902196D01*
X134656522Y-108064606D01*
X134741028Y-108204396D01*
X134744530Y-108210188D01*
X134864811Y-108330469D01*
X134864813Y-108330470D01*
X134864815Y-108330472D01*
X135010394Y-108418478D01*
X135172804Y-108469086D01*
X135243384Y-108475500D01*
X135243387Y-108475500D01*
X135756613Y-108475500D01*
X135756616Y-108475500D01*
X135827196Y-108469086D01*
X135989606Y-108418478D01*
X136135185Y-108330472D01*
X136255472Y-108210185D01*
X136285598Y-108160349D01*
X136337126Y-108113162D01*
X136391715Y-108100500D01*
X143913331Y-108100500D01*
X143913347Y-108100501D01*
X143920943Y-108100501D01*
X144079054Y-108100501D01*
X144079057Y-108100501D01*
X144231785Y-108059577D01*
X144281904Y-108030639D01*
X144368716Y-107980520D01*
X144480520Y-107868716D01*
X144480520Y-107868714D01*
X144490728Y-107858507D01*
X144490729Y-107858504D01*
X145212417Y-107136819D01*
X145239344Y-107122115D01*
X145265163Y-107105523D01*
X145271363Y-107104631D01*
X145273740Y-107103334D01*
X145300098Y-107100500D01*
X145541256Y-107100500D01*
X145608295Y-107120185D01*
X145654050Y-107172989D01*
X145663994Y-107242147D01*
X145644358Y-107293391D01*
X145573124Y-107399999D01*
X145573119Y-107400008D01*
X145501508Y-107572894D01*
X145501506Y-107572902D01*
X145465000Y-107756428D01*
X145465000Y-108000000D01*
X146115000Y-108000000D01*
X146115000Y-108500000D01*
X145465000Y-108500000D01*
X145465000Y-108743571D01*
X145501506Y-108927097D01*
X145501508Y-108927105D01*
X145573119Y-109099991D01*
X145573124Y-109100000D01*
X145677086Y-109255589D01*
X145677089Y-109255593D01*
X145809406Y-109387910D01*
X145809410Y-109387913D01*
X145964999Y-109491875D01*
X145965012Y-109491882D01*
X146137889Y-109563489D01*
X146137896Y-109563491D01*
X146165000Y-109568882D01*
X146165000Y-108816988D01*
X146174940Y-108834205D01*
X146230795Y-108890060D01*
X146299204Y-108929556D01*
X146375504Y-108950000D01*
X146454496Y-108950000D01*
X146530796Y-108929556D01*
X146599205Y-108890060D01*
X146655060Y-108834205D01*
X146665000Y-108816988D01*
X146665000Y-109568881D01*
X146692103Y-109563491D01*
X146692110Y-109563489D01*
X146864987Y-109491882D01*
X146865000Y-109491875D01*
X147020589Y-109387913D01*
X147020593Y-109387910D01*
X147152910Y-109255593D01*
X147152913Y-109255589D01*
X147256875Y-109100000D01*
X147256880Y-109099991D01*
X147328491Y-108927105D01*
X147328493Y-108927097D01*
X147364999Y-108743571D01*
X147365000Y-108743569D01*
X147365000Y-108500000D01*
X146715000Y-108500000D01*
X146715000Y-108000000D01*
X147365000Y-108000000D01*
X147365000Y-107756430D01*
X147364999Y-107756428D01*
X154115000Y-107756428D01*
X154115000Y-108000000D01*
X154765000Y-108000000D01*
X154765000Y-108500000D01*
X154115000Y-108500000D01*
X154115000Y-108743571D01*
X154151506Y-108927097D01*
X154151508Y-108927105D01*
X154223119Y-109099991D01*
X154223124Y-109100000D01*
X154327086Y-109255589D01*
X154327089Y-109255593D01*
X154459406Y-109387910D01*
X154459410Y-109387913D01*
X154614999Y-109491875D01*
X154615012Y-109491882D01*
X154787889Y-109563489D01*
X154787896Y-109563491D01*
X154815000Y-109568882D01*
X154815000Y-108816988D01*
X154824940Y-108834205D01*
X154880795Y-108890060D01*
X154949204Y-108929556D01*
X155025504Y-108950000D01*
X155104496Y-108950000D01*
X155180796Y-108929556D01*
X155249205Y-108890060D01*
X155305060Y-108834205D01*
X155315000Y-108816988D01*
X155315000Y-109568881D01*
X155342103Y-109563491D01*
X155342110Y-109563489D01*
X155514987Y-109491882D01*
X155515000Y-109491875D01*
X155670589Y-109387913D01*
X155670593Y-109387910D01*
X155802910Y-109255593D01*
X155802913Y-109255589D01*
X155906875Y-109100000D01*
X155906880Y-109099991D01*
X155978491Y-108927105D01*
X155978493Y-108927097D01*
X156014999Y-108743571D01*
X156015000Y-108743569D01*
X156015000Y-108500000D01*
X155365000Y-108500000D01*
X155365000Y-108000000D01*
X156015000Y-108000000D01*
X156015000Y-107756430D01*
X156014999Y-107756428D01*
X155978493Y-107572902D01*
X155978491Y-107572894D01*
X155906880Y-107400008D01*
X155906875Y-107399999D01*
X155802913Y-107244410D01*
X155802910Y-107244406D01*
X155670593Y-107112089D01*
X155670589Y-107112086D01*
X155515000Y-107008124D01*
X155514991Y-107008119D01*
X155342103Y-106936507D01*
X155342100Y-106936506D01*
X155315000Y-106931115D01*
X155315000Y-107683011D01*
X155305060Y-107665795D01*
X155249205Y-107609940D01*
X155180796Y-107570444D01*
X155104496Y-107550000D01*
X155025504Y-107550000D01*
X154949204Y-107570444D01*
X154880795Y-107609940D01*
X154824940Y-107665795D01*
X154815000Y-107683011D01*
X154815000Y-106931116D01*
X154814999Y-106931115D01*
X154787899Y-106936506D01*
X154787896Y-106936507D01*
X154615008Y-107008119D01*
X154614999Y-107008124D01*
X154459410Y-107112086D01*
X154459406Y-107112089D01*
X154327089Y-107244406D01*
X154327086Y-107244410D01*
X154223124Y-107399999D01*
X154223119Y-107400008D01*
X154151508Y-107572894D01*
X154151506Y-107572902D01*
X154115000Y-107756428D01*
X147364999Y-107756428D01*
X147328493Y-107572902D01*
X147328491Y-107572894D01*
X147256880Y-107400008D01*
X147256875Y-107399999D01*
X147185642Y-107293391D01*
X147164764Y-107226713D01*
X147183249Y-107159333D01*
X147235228Y-107112643D01*
X147288744Y-107100500D01*
X148475331Y-107100500D01*
X148475347Y-107100501D01*
X148482943Y-107100501D01*
X148641054Y-107100501D01*
X148641057Y-107100501D01*
X148793785Y-107059577D01*
X148846647Y-107029057D01*
X148846648Y-107029057D01*
X148930709Y-106980524D01*
X148930708Y-106980524D01*
X148930716Y-106980520D01*
X149042520Y-106868716D01*
X149042520Y-106868714D01*
X149052724Y-106858511D01*
X149052728Y-106858506D01*
X149858713Y-106052521D01*
X149858716Y-106052520D01*
X149952822Y-105958413D01*
X150014144Y-105924931D01*
X150052598Y-105927682D01*
X150083834Y-105929916D01*
X150138764Y-105971037D01*
X150139768Y-105971789D01*
X150148208Y-105994419D01*
X150164184Y-106037252D01*
X150164500Y-106046098D01*
X150164500Y-106103846D01*
X150195261Y-106258489D01*
X150195264Y-106258501D01*
X150255602Y-106404172D01*
X150255609Y-106404185D01*
X150343210Y-106535288D01*
X150343213Y-106535292D01*
X150454707Y-106646786D01*
X150454711Y-106646789D01*
X150585814Y-106734390D01*
X150585827Y-106734397D01*
X150714229Y-106787582D01*
X150731503Y-106794737D01*
X150875676Y-106823415D01*
X150886153Y-106825499D01*
X150886156Y-106825500D01*
X150886158Y-106825500D01*
X151043844Y-106825500D01*
X151043845Y-106825499D01*
X151198497Y-106794737D01*
X151322405Y-106743413D01*
X151344172Y-106734397D01*
X151344172Y-106734396D01*
X151344179Y-106734394D01*
X151475289Y-106646789D01*
X151478285Y-106643793D01*
X151485260Y-106636819D01*
X151546583Y-106603334D01*
X151572941Y-106600500D01*
X151903331Y-106600500D01*
X151903347Y-106600501D01*
X151910943Y-106600501D01*
X152069054Y-106600501D01*
X152069057Y-106600501D01*
X152221785Y-106559577D01*
X152272535Y-106530276D01*
X152358716Y-106480520D01*
X152470520Y-106368716D01*
X152470521Y-106368714D01*
X152970520Y-105868716D01*
X153049577Y-105731784D01*
X153090501Y-105579057D01*
X153090501Y-105420942D01*
X153090501Y-105413347D01*
X153090500Y-105413329D01*
X153090500Y-105037676D01*
X153110185Y-104970637D01*
X153162989Y-104924882D01*
X153232147Y-104914938D01*
X153295703Y-104943963D01*
X153302181Y-104949995D01*
X153322686Y-104970500D01*
X153436814Y-105036392D01*
X153564108Y-105070500D01*
X153564110Y-105070500D01*
X153695890Y-105070500D01*
X153695892Y-105070500D01*
X153823186Y-105036392D01*
X153937314Y-104970500D01*
X153976116Y-104931697D01*
X154037437Y-104898213D01*
X154107128Y-104903197D01*
X154163062Y-104945067D01*
X154178357Y-104971926D01*
X154223119Y-105079990D01*
X154223124Y-105080000D01*
X154327086Y-105235589D01*
X154327089Y-105235593D01*
X154459406Y-105367910D01*
X154459410Y-105367913D01*
X154614999Y-105471875D01*
X154615012Y-105471882D01*
X154787889Y-105543489D01*
X154787896Y-105543491D01*
X154815000Y-105548882D01*
X154815000Y-104796988D01*
X154824940Y-104814205D01*
X154880795Y-104870060D01*
X154949204Y-104909556D01*
X155025504Y-104930000D01*
X155104496Y-104930000D01*
X155180796Y-104909556D01*
X155249205Y-104870060D01*
X155305060Y-104814205D01*
X155315000Y-104796988D01*
X155315000Y-105548881D01*
X155342103Y-105543491D01*
X155342110Y-105543489D01*
X155514987Y-105471882D01*
X155515000Y-105471875D01*
X155670589Y-105367913D01*
X155670593Y-105367910D01*
X155802910Y-105235593D01*
X155802913Y-105235589D01*
X155906875Y-105080000D01*
X155906880Y-105079991D01*
X155978491Y-104907105D01*
X155978493Y-104907097D01*
X156014999Y-104723571D01*
X156015000Y-104723569D01*
X156015000Y-104330000D01*
X155365000Y-104330000D01*
X155365000Y-103830000D01*
X156015000Y-103830000D01*
X156015000Y-103436430D01*
X156014999Y-103436428D01*
X155978493Y-103252902D01*
X155978490Y-103252890D01*
X155978182Y-103252146D01*
X155978136Y-103251724D01*
X155976724Y-103247068D01*
X155977607Y-103246800D01*
X155970715Y-103182676D01*
X156001991Y-103120198D01*
X156005035Y-103117042D01*
X156111789Y-103010289D01*
X156199394Y-102879179D01*
X156201222Y-102874767D01*
X156220948Y-102827142D01*
X156259737Y-102733497D01*
X156290500Y-102578842D01*
X156290500Y-102421158D01*
X156290500Y-102421155D01*
X156290499Y-102421153D01*
X156280679Y-102371785D01*
X156259737Y-102266503D01*
X156257750Y-102261705D01*
X156199397Y-102120827D01*
X156199390Y-102120814D01*
X156111398Y-101989125D01*
X156090520Y-101922447D01*
X156090500Y-101920234D01*
X156090500Y-101425856D01*
X156110185Y-101358817D01*
X156130554Y-101336448D01*
X156129881Y-101335775D01*
X156135182Y-101330473D01*
X156135185Y-101330472D01*
X156255472Y-101210185D01*
X156343478Y-101064606D01*
X156394086Y-100902196D01*
X156400500Y-100831616D01*
X156400500Y-100168384D01*
X156394086Y-100097804D01*
X156343478Y-99935394D01*
X156255472Y-99789815D01*
X156255470Y-99789813D01*
X156255469Y-99789811D01*
X156135188Y-99669530D01*
X156109096Y-99653757D01*
X155989606Y-99581522D01*
X155827196Y-99530914D01*
X155827194Y-99530913D01*
X155827192Y-99530913D01*
X155777778Y-99526423D01*
X155756616Y-99524500D01*
X155243384Y-99524500D01*
X155224145Y-99526248D01*
X155172807Y-99530913D01*
X155010393Y-99581522D01*
X154864811Y-99669530D01*
X154744530Y-99789811D01*
X154656522Y-99935393D01*
X154605913Y-100097807D01*
X154599500Y-100168386D01*
X154599500Y-100831613D01*
X154605913Y-100902192D01*
X154605913Y-100902194D01*
X154605914Y-100902196D01*
X154656522Y-101064606D01*
X154744528Y-101210185D01*
X154853182Y-101318839D01*
X154886666Y-101380160D01*
X154889500Y-101406519D01*
X154889500Y-101920234D01*
X154869815Y-101987273D01*
X154868602Y-101989125D01*
X154780609Y-102120814D01*
X154780602Y-102120827D01*
X154720264Y-102266498D01*
X154720261Y-102266510D01*
X154689500Y-102421153D01*
X154689500Y-102574410D01*
X154669815Y-102641449D01*
X154620027Y-102684590D01*
X154620379Y-102685249D01*
X154617476Y-102686800D01*
X154617011Y-102687204D01*
X154615449Y-102687884D01*
X154615003Y-102688122D01*
X154459414Y-102792083D01*
X154459406Y-102792089D01*
X154327089Y-102924406D01*
X154327086Y-102924410D01*
X154223124Y-103079999D01*
X154223119Y-103080009D01*
X154179060Y-103186378D01*
X154171988Y-103195153D01*
X154168814Y-103205964D01*
X154150460Y-103221867D01*
X154135219Y-103240781D01*
X154124525Y-103244340D01*
X154116010Y-103251719D01*
X154091970Y-103255175D01*
X154068925Y-103262846D01*
X154058006Y-103260059D01*
X154046852Y-103261663D01*
X154024759Y-103251573D01*
X154001225Y-103245567D01*
X153993546Y-103237319D01*
X153983296Y-103232638D01*
X153970164Y-103212204D01*
X153953615Y-103194429D01*
X153950634Y-103181814D01*
X153945522Y-103173860D01*
X153940499Y-103138925D01*
X153940499Y-102919434D01*
X153960184Y-102852395D01*
X153961366Y-102850588D01*
X154026632Y-102752914D01*
X154102051Y-102570835D01*
X154120016Y-102480520D01*
X154140500Y-102377543D01*
X154140500Y-98624500D01*
X154160185Y-98557461D01*
X154212989Y-98511706D01*
X154264500Y-98500500D01*
X159401459Y-98500500D01*
X159598541Y-98500500D01*
X164817868Y-98500500D01*
X164846380Y-98503822D01*
X164847510Y-98504088D01*
X164847517Y-98504091D01*
X164907127Y-98510500D01*
X165952872Y-98510499D01*
X166012483Y-98504091D01*
X166029162Y-98497870D01*
X166147329Y-98453797D01*
X166155112Y-98449547D01*
X166156865Y-98452757D01*
X166205999Y-98434361D01*
X166274291Y-98449127D01*
X166275263Y-98449752D01*
X166282670Y-98453797D01*
X166417517Y-98504091D01*
X166417516Y-98504091D01*
X166424444Y-98504835D01*
X166477127Y-98510500D01*
X167522872Y-98510499D01*
X167582483Y-98504091D01*
X167583618Y-98503823D01*
X167612133Y-98500500D01*
X168024218Y-98500500D01*
X168091257Y-98520185D01*
X168111899Y-98536819D01*
X169623181Y-100048101D01*
X169656666Y-100109424D01*
X169659500Y-100135782D01*
X169659500Y-100675191D01*
X169639815Y-100742230D01*
X169587011Y-100787985D01*
X169517853Y-100797929D01*
X169454297Y-100768904D01*
X169447819Y-100762872D01*
X168679673Y-99994726D01*
X168679669Y-99994723D01*
X168573127Y-99923535D01*
X168566874Y-99920945D01*
X168454744Y-99874499D01*
X168454738Y-99874497D01*
X168329071Y-99849500D01*
X168329069Y-99849500D01*
X166703308Y-99849500D01*
X166673867Y-99840855D01*
X166643881Y-99834332D01*
X166638865Y-99830577D01*
X166636269Y-99829815D01*
X166615627Y-99813181D01*
X166531283Y-99728837D01*
X166497798Y-99667514D01*
X166495606Y-99653757D01*
X166490349Y-99602292D01*
X166437003Y-99441303D01*
X166436999Y-99441297D01*
X166436998Y-99441294D01*
X166347970Y-99296959D01*
X166347967Y-99296955D01*
X166228044Y-99177032D01*
X166228040Y-99177029D01*
X166083705Y-99088001D01*
X166083699Y-99087998D01*
X166083697Y-99087997D01*
X166083694Y-99087996D01*
X165922709Y-99034651D01*
X165823346Y-99024500D01*
X165276662Y-99024500D01*
X165276644Y-99024501D01*
X165177292Y-99034650D01*
X165177289Y-99034651D01*
X165016305Y-99087996D01*
X165016294Y-99088001D01*
X164871959Y-99177029D01*
X164871955Y-99177032D01*
X164752032Y-99296955D01*
X164752029Y-99296959D01*
X164663001Y-99441294D01*
X164662996Y-99441305D01*
X164609651Y-99602290D01*
X164599500Y-99701647D01*
X164599500Y-100298337D01*
X164599501Y-100298355D01*
X164609650Y-100397707D01*
X164609651Y-100397710D01*
X164662996Y-100558694D01*
X164663001Y-100558705D01*
X164752029Y-100703040D01*
X164752032Y-100703044D01*
X164871956Y-100822968D01*
X164979349Y-100889209D01*
X165026071Y-100941155D01*
X165037294Y-101010118D01*
X165009450Y-101074200D01*
X164978401Y-101100862D01*
X164864814Y-101169528D01*
X164864810Y-101169531D01*
X164744530Y-101289811D01*
X164656522Y-101435393D01*
X164605913Y-101597807D01*
X164599500Y-101668386D01*
X164599500Y-102331613D01*
X164605913Y-102402192D01*
X164605913Y-102402194D01*
X164605914Y-102402196D01*
X164656522Y-102564606D01*
X164716532Y-102663875D01*
X164729817Y-102685850D01*
X164747653Y-102753405D01*
X164729817Y-102814150D01*
X164656522Y-102935393D01*
X164605913Y-103097807D01*
X164603734Y-103121789D01*
X164599500Y-103168384D01*
X164599500Y-103831616D01*
X164601216Y-103850499D01*
X164605913Y-103902192D01*
X164605913Y-103902194D01*
X164605914Y-103902196D01*
X164653696Y-104055536D01*
X164656522Y-104064606D01*
X164744530Y-104210188D01*
X164864811Y-104330469D01*
X164864813Y-104330470D01*
X164864815Y-104330472D01*
X165010394Y-104418478D01*
X165088975Y-104442964D01*
X165147121Y-104481700D01*
X165175096Y-104545725D01*
X165164015Y-104614711D01*
X165117397Y-104666754D01*
X165099538Y-104675909D01*
X165082459Y-104682983D01*
X165082455Y-104682985D01*
X164962429Y-104763184D01*
X164962428Y-104763186D01*
X164952627Y-104769735D01*
X164934959Y-104781540D01*
X163853319Y-105863181D01*
X163791996Y-105896666D01*
X163765638Y-105899500D01*
X162031715Y-105899500D01*
X161964676Y-105879815D01*
X161925598Y-105839650D01*
X161920048Y-105830469D01*
X161895472Y-105789815D01*
X161895470Y-105789813D01*
X161895469Y-105789811D01*
X161775188Y-105669530D01*
X161763696Y-105662583D01*
X161629606Y-105581522D01*
X161467196Y-105530914D01*
X161467194Y-105530913D01*
X161467192Y-105530913D01*
X161417778Y-105526423D01*
X161396616Y-105524500D01*
X160883384Y-105524500D01*
X160864145Y-105526248D01*
X160812807Y-105530913D01*
X160650393Y-105581522D01*
X160504811Y-105669530D01*
X160504810Y-105669531D01*
X160402681Y-105771661D01*
X160394735Y-105775999D01*
X160389310Y-105783247D01*
X160364550Y-105792481D01*
X160341358Y-105805146D01*
X160332328Y-105804500D01*
X160323846Y-105807664D01*
X160298025Y-105802047D01*
X160271666Y-105800162D01*
X160262612Y-105794343D01*
X160255573Y-105792812D01*
X160227319Y-105771661D01*
X160136819Y-105681161D01*
X160103334Y-105619838D01*
X160100500Y-105593480D01*
X160100500Y-105416519D01*
X160120185Y-105349480D01*
X160136814Y-105328842D01*
X160255472Y-105210185D01*
X160343478Y-105064606D01*
X160394086Y-104902196D01*
X160400500Y-104831616D01*
X160400500Y-104168384D01*
X160394086Y-104097804D01*
X160343478Y-103935394D01*
X160255472Y-103789815D01*
X160255470Y-103789813D01*
X160255469Y-103789811D01*
X160135188Y-103669530D01*
X160119625Y-103660122D01*
X159989606Y-103581522D01*
X159827196Y-103530914D01*
X159827194Y-103530913D01*
X159827192Y-103530913D01*
X159777778Y-103526423D01*
X159756616Y-103524500D01*
X159243384Y-103524500D01*
X159224145Y-103526248D01*
X159172807Y-103530913D01*
X159010393Y-103581522D01*
X158864811Y-103669530D01*
X158744530Y-103789811D01*
X158656522Y-103935393D01*
X158605913Y-104097807D01*
X158601672Y-104144480D01*
X158599516Y-104168214D01*
X158599500Y-104168386D01*
X158599500Y-104831613D01*
X158605913Y-104902192D01*
X158605913Y-104902194D01*
X158605914Y-104902196D01*
X158656522Y-105064606D01*
X158744528Y-105210185D01*
X158863182Y-105328839D01*
X158877888Y-105355770D01*
X158894477Y-105381584D01*
X158895368Y-105387783D01*
X158896666Y-105390160D01*
X158899500Y-105416519D01*
X158899500Y-105574143D01*
X158879815Y-105641182D01*
X158859444Y-105663550D01*
X158860118Y-105664224D01*
X158734531Y-105789810D01*
X158734530Y-105789811D01*
X158725260Y-105805146D01*
X158709953Y-105830468D01*
X158704402Y-105839650D01*
X158652874Y-105886838D01*
X158598285Y-105899500D01*
X158069766Y-105899500D01*
X158002727Y-105879815D01*
X158000875Y-105878602D01*
X157869185Y-105790609D01*
X157869172Y-105790602D01*
X157723501Y-105730264D01*
X157723489Y-105730261D01*
X157568845Y-105699500D01*
X157568842Y-105699500D01*
X157411158Y-105699500D01*
X157411155Y-105699500D01*
X157256510Y-105730261D01*
X157256498Y-105730264D01*
X157110827Y-105790602D01*
X157110814Y-105790609D01*
X156979711Y-105878210D01*
X156979707Y-105878213D01*
X156868213Y-105989707D01*
X156868210Y-105989711D01*
X156780609Y-106120814D01*
X156780602Y-106120827D01*
X156720264Y-106266498D01*
X156720261Y-106266510D01*
X156689500Y-106421153D01*
X156689500Y-106578846D01*
X156720261Y-106733489D01*
X156720264Y-106733501D01*
X156780602Y-106879172D01*
X156780609Y-106879185D01*
X156868210Y-107010288D01*
X156868213Y-107010292D01*
X156979707Y-107121786D01*
X156979711Y-107121789D01*
X157110814Y-107209390D01*
X157110827Y-107209397D01*
X157256498Y-107269735D01*
X157256503Y-107269737D01*
X157410706Y-107300410D01*
X157411153Y-107300499D01*
X157411156Y-107300500D01*
X157411158Y-107300500D01*
X157568844Y-107300500D01*
X157568845Y-107300499D01*
X157723497Y-107269737D01*
X157867262Y-107210188D01*
X157869172Y-107209397D01*
X157869172Y-107209396D01*
X157869179Y-107209394D01*
X157942577Y-107160351D01*
X158000875Y-107121398D01*
X158067553Y-107100520D01*
X158069766Y-107100500D01*
X158598285Y-107100500D01*
X158665324Y-107120185D01*
X158704401Y-107160349D01*
X158734050Y-107209394D01*
X158734530Y-107210188D01*
X158854811Y-107330469D01*
X158854813Y-107330470D01*
X158854815Y-107330472D01*
X159000394Y-107418478D01*
X159162804Y-107469086D01*
X159233384Y-107475500D01*
X159233387Y-107475500D01*
X159746613Y-107475500D01*
X159746616Y-107475500D01*
X159817196Y-107469086D01*
X159979606Y-107418478D01*
X160125185Y-107330472D01*
X160167989Y-107287668D01*
X160227319Y-107228339D01*
X160231285Y-107226172D01*
X160233727Y-107222368D01*
X160261675Y-107209578D01*
X160288642Y-107194854D01*
X160293149Y-107195176D01*
X160297261Y-107193295D01*
X160327684Y-107197646D01*
X160358334Y-107199838D01*
X160363206Y-107202726D01*
X160366427Y-107203187D01*
X160380780Y-107213145D01*
X160396132Y-107222246D01*
X160399521Y-107225178D01*
X160504815Y-107330472D01*
X160559270Y-107363391D01*
X160567238Y-107370285D01*
X160580676Y-107391160D01*
X160597444Y-107409471D01*
X160599258Y-107420027D01*
X160605057Y-107429035D01*
X160605075Y-107453861D01*
X160609282Y-107478330D01*
X160605101Y-107488193D01*
X160605109Y-107498904D01*
X160591704Y-107519797D01*
X160582013Y-107542659D01*
X160573111Y-107548776D01*
X160567379Y-107557711D01*
X160545629Y-107567663D01*
X160525112Y-107581764D01*
X160506309Y-107587995D01*
X160506303Y-107587997D01*
X160506301Y-107587998D01*
X160506294Y-107588001D01*
X160361959Y-107677029D01*
X160361955Y-107677032D01*
X160242032Y-107796955D01*
X160242029Y-107796959D01*
X160153001Y-107941294D01*
X160152996Y-107941305D01*
X160099651Y-108102290D01*
X160089500Y-108201647D01*
X160089500Y-108798337D01*
X160089501Y-108798355D01*
X160099650Y-108897707D01*
X160099651Y-108897710D01*
X160152996Y-109058694D01*
X160153001Y-109058705D01*
X160242029Y-109203040D01*
X160242032Y-109203044D01*
X160361955Y-109322967D01*
X160361959Y-109322970D01*
X160506294Y-109411998D01*
X160506297Y-109411999D01*
X160506303Y-109412003D01*
X160667292Y-109465349D01*
X160766655Y-109475500D01*
X161313344Y-109475499D01*
X161313352Y-109475498D01*
X161313355Y-109475498D01*
X161367760Y-109469940D01*
X161412708Y-109465349D01*
X161573697Y-109412003D01*
X161718044Y-109322968D01*
X161837968Y-109203044D01*
X161857166Y-109171918D01*
X161864887Y-109159402D01*
X161916835Y-109112678D01*
X161970425Y-109100500D01*
X163490084Y-109100500D01*
X163514123Y-109107558D01*
X163538996Y-109110555D01*
X163547069Y-109117232D01*
X163557123Y-109120185D01*
X163573528Y-109139118D01*
X163592835Y-109155087D01*
X163597913Y-109167259D01*
X163602878Y-109172989D01*
X163608229Y-109186847D01*
X163610344Y-109193484D01*
X163624105Y-109262666D01*
X163658046Y-109344606D01*
X163660042Y-109349425D01*
X163660045Y-109349434D01*
X163691984Y-109426542D01*
X163691985Y-109426544D01*
X163717910Y-109465344D01*
X163717911Y-109465345D01*
X163717914Y-109465349D01*
X163735643Y-109491882D01*
X163790537Y-109574038D01*
X163790538Y-109574039D01*
X164004319Y-109787819D01*
X164037804Y-109849142D01*
X164032820Y-109918833D01*
X163990949Y-109974767D01*
X163925484Y-109999184D01*
X163916638Y-109999500D01*
X110563362Y-109999500D01*
X110496323Y-109979815D01*
X110450568Y-109927011D01*
X110440624Y-109857853D01*
X110469649Y-109794297D01*
X110475681Y-109787819D01*
X110798156Y-109465344D01*
X111777821Y-108485677D01*
X111839142Y-108452194D01*
X111908833Y-108457178D01*
X111964767Y-108499049D01*
X111989184Y-108564514D01*
X111989500Y-108573359D01*
X111989500Y-108798336D01*
X111989501Y-108798355D01*
X111999650Y-108897707D01*
X111999651Y-108897710D01*
X112052996Y-109058694D01*
X112053001Y-109058705D01*
X112142029Y-109203040D01*
X112142032Y-109203044D01*
X112261955Y-109322967D01*
X112261959Y-109322970D01*
X112406294Y-109411998D01*
X112406297Y-109411999D01*
X112406303Y-109412003D01*
X112567292Y-109465349D01*
X112666655Y-109475500D01*
X113213344Y-109475499D01*
X113213352Y-109475498D01*
X113213355Y-109475498D01*
X113267760Y-109469940D01*
X113312708Y-109465349D01*
X113473697Y-109412003D01*
X113618044Y-109322968D01*
X113737968Y-109203044D01*
X113827003Y-109058697D01*
X113880349Y-108897708D01*
X113890500Y-108798345D01*
X113890499Y-108201656D01*
X113880349Y-108102292D01*
X113827003Y-107941303D01*
X113826999Y-107941297D01*
X113826998Y-107941294D01*
X113737970Y-107796959D01*
X113737969Y-107796958D01*
X113737968Y-107796956D01*
X113618044Y-107677032D01*
X113599399Y-107665531D01*
X113552677Y-107613582D01*
X113540500Y-107559995D01*
X113540500Y-106870945D01*
X113540500Y-106870943D01*
X113527764Y-106823411D01*
X113529427Y-106753565D01*
X113559856Y-106703642D01*
X114189464Y-106074035D01*
X114215780Y-106034651D01*
X114288013Y-105926547D01*
X114314184Y-105863365D01*
X114355895Y-105762666D01*
X114390500Y-105588691D01*
X114390500Y-105411308D01*
X114390500Y-103524500D01*
X114410185Y-103457461D01*
X114462989Y-103411706D01*
X114514500Y-103400500D01*
X114578691Y-103400500D01*
X115737100Y-103400500D01*
X115804139Y-103420185D01*
X115849894Y-103472989D01*
X115861100Y-103524500D01*
X115861100Y-108141600D01*
X116406612Y-108141600D01*
X116473651Y-108161285D01*
X116480923Y-108166333D01*
X116528107Y-108201655D01*
X116531768Y-108204395D01*
X116531771Y-108204397D01*
X116547290Y-108210185D01*
X116666617Y-108254691D01*
X116726227Y-108261100D01*
X117062547Y-108261099D01*
X117129586Y-108280783D01*
X117150228Y-108297418D01*
X117751539Y-108898729D01*
X117751542Y-108898733D01*
X117838667Y-108985858D01*
X117889890Y-109020084D01*
X117941114Y-109054312D01*
X117941115Y-109054312D01*
X117941116Y-109054313D01*
X118014790Y-109084829D01*
X118014794Y-109084830D01*
X118021607Y-109087652D01*
X118054948Y-109101463D01*
X118115371Y-109113481D01*
X118175793Y-109125500D01*
X118175794Y-109125500D01*
X121084996Y-109125500D01*
X121152035Y-109145185D01*
X121190535Y-109184404D01*
X121202031Y-109203043D01*
X121321955Y-109322967D01*
X121321959Y-109322970D01*
X121466294Y-109411998D01*
X121466297Y-109411999D01*
X121466303Y-109412003D01*
X121627292Y-109465349D01*
X121726655Y-109475500D01*
X122273344Y-109475499D01*
X122273352Y-109475498D01*
X122273355Y-109475498D01*
X122327760Y-109469940D01*
X122372708Y-109465349D01*
X122533697Y-109412003D01*
X122678044Y-109322968D01*
X122797968Y-109203044D01*
X122887003Y-109058697D01*
X122940349Y-108897708D01*
X122950500Y-108798345D01*
X122950499Y-108201656D01*
X122940349Y-108102292D01*
X122887003Y-107941303D01*
X122886999Y-107941297D01*
X122886998Y-107941294D01*
X122797970Y-107796959D01*
X122797969Y-107796958D01*
X122797968Y-107796956D01*
X122678044Y-107677032D01*
X122678043Y-107677031D01*
X122678041Y-107677029D01*
X122672590Y-107672719D01*
X122632213Y-107615697D01*
X122625500Y-107575452D01*
X122625500Y-106810452D01*
X122645185Y-106743413D01*
X122661819Y-106722771D01*
X123061601Y-106322989D01*
X123462865Y-105921724D01*
X123524186Y-105888241D01*
X123593877Y-105893225D01*
X123638225Y-105921726D01*
X123915961Y-106199462D01*
X123915964Y-106199464D01*
X123962741Y-106230719D01*
X124063453Y-106298013D01*
X124145393Y-106331953D01*
X124227334Y-106365895D01*
X124359314Y-106392147D01*
X124401303Y-106400499D01*
X124401307Y-106400500D01*
X124401308Y-106400500D01*
X126578693Y-106400500D01*
X126578694Y-106400499D01*
X126636682Y-106388964D01*
X126752658Y-106365896D01*
X126752661Y-106365894D01*
X126752666Y-106365894D01*
X126916547Y-106298013D01*
X127064035Y-106199464D01*
X127189464Y-106074035D01*
X127288013Y-105926547D01*
X127288255Y-105925964D01*
X127311970Y-105868709D01*
X127355894Y-105762666D01*
X127356561Y-105759317D01*
X127384614Y-105618283D01*
X127390500Y-105588691D01*
X127390500Y-105411309D01*
X127390500Y-105411308D01*
X127390500Y-105411306D01*
X127390499Y-105411304D01*
X127355896Y-105237341D01*
X127355893Y-105237332D01*
X127352581Y-105229337D01*
X127309461Y-105125233D01*
X127288016Y-105073459D01*
X127288009Y-105073446D01*
X127189464Y-104925965D01*
X127189461Y-104925961D01*
X127064038Y-104800538D01*
X127064034Y-104800535D01*
X126916553Y-104701990D01*
X126916540Y-104701983D01*
X126752667Y-104634106D01*
X126752658Y-104634103D01*
X126578694Y-104599500D01*
X126578691Y-104599500D01*
X124914362Y-104599500D01*
X124847323Y-104579815D01*
X124826681Y-104563181D01*
X123289036Y-103025536D01*
X123064041Y-102800540D01*
X123064034Y-102800534D01*
X122916548Y-102701988D01*
X122752666Y-102634105D01*
X122752658Y-102634103D01*
X122578696Y-102599500D01*
X122578692Y-102599500D01*
X122401308Y-102599500D01*
X122401303Y-102599500D01*
X122227341Y-102634103D01*
X122227333Y-102634105D01*
X122063456Y-102701986D01*
X122063447Y-102701991D01*
X122023622Y-102728602D01*
X121956945Y-102749480D01*
X121954731Y-102749500D01*
X120345570Y-102749500D01*
X120317057Y-102746177D01*
X120313382Y-102745308D01*
X120253782Y-102738901D01*
X120253773Y-102738900D01*
X120253763Y-102738900D01*
X119726229Y-102738900D01*
X119726223Y-102738901D01*
X119666616Y-102745308D01*
X119531771Y-102795602D01*
X119531764Y-102795606D01*
X119416555Y-102881852D01*
X119416552Y-102881855D01*
X119330306Y-102997064D01*
X119330302Y-102997071D01*
X119280245Y-103131284D01*
X119280009Y-103131917D01*
X119277628Y-103154057D01*
X119250892Y-103218605D01*
X119193500Y-103258454D01*
X119154340Y-103264800D01*
X118006565Y-103264800D01*
X117939526Y-103245115D01*
X117893771Y-103192311D01*
X117883827Y-103123153D01*
X117884947Y-103116611D01*
X117890500Y-103088691D01*
X117890500Y-102911307D01*
X117890499Y-102911303D01*
X117887548Y-102896468D01*
X117855895Y-102737334D01*
X117788013Y-102573454D01*
X117788011Y-102573451D01*
X117788009Y-102573447D01*
X117689464Y-102425965D01*
X117689461Y-102425961D01*
X117064041Y-101800540D01*
X117064040Y-101800539D01*
X117064033Y-101800534D01*
X117004959Y-101761063D01*
X116916547Y-101701987D01*
X116834606Y-101668046D01*
X116752666Y-101634105D01*
X116752658Y-101634103D01*
X116578696Y-101599500D01*
X116578692Y-101599500D01*
X116578691Y-101599500D01*
X114578691Y-101599500D01*
X113578691Y-101599500D01*
X113401309Y-101599500D01*
X113401306Y-101599500D01*
X113227341Y-101634103D01*
X113227332Y-101634106D01*
X113063459Y-101701983D01*
X113063446Y-101701990D01*
X112915966Y-101800534D01*
X112889490Y-101827011D01*
X112853318Y-101863182D01*
X112791998Y-101896666D01*
X112765639Y-101899500D01*
X111430425Y-101899500D01*
X111363386Y-101879815D01*
X111324887Y-101840598D01*
X111297968Y-101796956D01*
X111178044Y-101677032D01*
X111178040Y-101677029D01*
X111033705Y-101588001D01*
X111033699Y-101587998D01*
X111033697Y-101587997D01*
X111033694Y-101587996D01*
X110872709Y-101534651D01*
X110773346Y-101524500D01*
X110226662Y-101524500D01*
X110226644Y-101524501D01*
X110127292Y-101534650D01*
X110127289Y-101534651D01*
X109966305Y-101587996D01*
X109966294Y-101588001D01*
X109821959Y-101677029D01*
X109821955Y-101677032D01*
X109702032Y-101796955D01*
X109702029Y-101796959D01*
X109613001Y-101941294D01*
X109612996Y-101941305D01*
X109559651Y-102102290D01*
X109549500Y-102201647D01*
X109549500Y-102798337D01*
X109549501Y-102798355D01*
X109559650Y-102897702D01*
X109559651Y-102897710D01*
X109612996Y-103058694D01*
X109613001Y-103058705D01*
X109702029Y-103203040D01*
X109702032Y-103203044D01*
X109821955Y-103322967D01*
X109821959Y-103322970D01*
X109966294Y-103411998D01*
X109966297Y-103411999D01*
X109966303Y-103412003D01*
X110127292Y-103465349D01*
X110226655Y-103475500D01*
X110773344Y-103475499D01*
X110773352Y-103475498D01*
X110773355Y-103475498D01*
X110827760Y-103469940D01*
X110872708Y-103465349D01*
X111033697Y-103412003D01*
X111178044Y-103322968D01*
X111297968Y-103203044D01*
X111324887Y-103159402D01*
X111376835Y-103112678D01*
X111430425Y-103100500D01*
X112465500Y-103100500D01*
X112532539Y-103120185D01*
X112578294Y-103172989D01*
X112589500Y-103224500D01*
X112589500Y-105075638D01*
X112569815Y-105142677D01*
X112553181Y-105163319D01*
X109153319Y-108563181D01*
X109091996Y-108596666D01*
X109065638Y-108599500D01*
X103074500Y-108599500D01*
X103007461Y-108579815D01*
X102961706Y-108527011D01*
X102950500Y-108475500D01*
X102950500Y-107416519D01*
X102959145Y-107387075D01*
X102965668Y-107357093D01*
X102969422Y-107352077D01*
X102970185Y-107349480D01*
X102986813Y-107328843D01*
X103087321Y-107228335D01*
X103148640Y-107194853D01*
X103218332Y-107199837D01*
X103262680Y-107228338D01*
X103364811Y-107330469D01*
X103364813Y-107330470D01*
X103364815Y-107330472D01*
X103510394Y-107418478D01*
X103672804Y-107469086D01*
X103743384Y-107475500D01*
X103743387Y-107475500D01*
X104256613Y-107475500D01*
X104256616Y-107475500D01*
X104327196Y-107469086D01*
X104489606Y-107418478D01*
X104635185Y-107330472D01*
X104755472Y-107210185D01*
X104785598Y-107160349D01*
X104837125Y-107113164D01*
X104891714Y-107100501D01*
X105004054Y-107100501D01*
X105004057Y-107100501D01*
X105156785Y-107059577D01*
X105209647Y-107029057D01*
X105209648Y-107029057D01*
X105293709Y-106980524D01*
X105293708Y-106980524D01*
X105293716Y-106980520D01*
X105405520Y-106868716D01*
X105405520Y-106868714D01*
X105415720Y-106858515D01*
X105415724Y-106858510D01*
X105537418Y-106736815D01*
X105598739Y-106703333D01*
X105625097Y-106700499D01*
X106447871Y-106700499D01*
X106447872Y-106700499D01*
X106507483Y-106694091D01*
X106642331Y-106643796D01*
X106757546Y-106557546D01*
X106843796Y-106442331D01*
X106894091Y-106307483D01*
X106900500Y-106247873D01*
X106900499Y-104752128D01*
X106898954Y-104737752D01*
X106911361Y-104668993D01*
X106958973Y-104617857D01*
X107022244Y-104600500D01*
X107920234Y-104600500D01*
X107987273Y-104620185D01*
X107989125Y-104621398D01*
X108120814Y-104709390D01*
X108120827Y-104709397D01*
X108250685Y-104763185D01*
X108266503Y-104769737D01*
X108421153Y-104800499D01*
X108421156Y-104800500D01*
X108421158Y-104800500D01*
X108578844Y-104800500D01*
X108578845Y-104800499D01*
X108733497Y-104769737D01*
X108879179Y-104709394D01*
X109010289Y-104621789D01*
X109121789Y-104510289D01*
X109209394Y-104379179D01*
X109211739Y-104373519D01*
X109239100Y-104307461D01*
X109269737Y-104233497D01*
X109300500Y-104078842D01*
X109300500Y-103921158D01*
X109300500Y-103921155D01*
X109300499Y-103921153D01*
X109291272Y-103874767D01*
X109269737Y-103766503D01*
X109266791Y-103759390D01*
X109209397Y-103620827D01*
X109209390Y-103620814D01*
X109121789Y-103489711D01*
X109121786Y-103489707D01*
X109010292Y-103378213D01*
X109010288Y-103378210D01*
X108879185Y-103290609D01*
X108879172Y-103290602D01*
X108733501Y-103230264D01*
X108733489Y-103230261D01*
X108578845Y-103199500D01*
X108578842Y-103199500D01*
X108421158Y-103199500D01*
X108421155Y-103199500D01*
X108266510Y-103230261D01*
X108266498Y-103230264D01*
X108120827Y-103290602D01*
X108120814Y-103290609D01*
X107989125Y-103378602D01*
X107922447Y-103399480D01*
X107920234Y-103399500D01*
X106386555Y-103399500D01*
X106319516Y-103379815D01*
X106273761Y-103327011D01*
X106263817Y-103257853D01*
X106268840Y-103239588D01*
X106267969Y-103239324D01*
X106269731Y-103233509D01*
X106269737Y-103233497D01*
X106300500Y-103078842D01*
X106300500Y-102921158D01*
X106300500Y-102921155D01*
X106300499Y-102921153D01*
X106298541Y-102911308D01*
X106269737Y-102766503D01*
X106257655Y-102737334D01*
X106209397Y-102620827D01*
X106209390Y-102620814D01*
X106121398Y-102489125D01*
X106100520Y-102422447D01*
X106100500Y-102420234D01*
X106100500Y-100300098D01*
X106109144Y-100270660D01*
X106115668Y-100240670D01*
X106119423Y-100235653D01*
X106120185Y-100233059D01*
X106136819Y-100212416D01*
X106212418Y-100136818D01*
X106273742Y-100103334D01*
X106300099Y-100100500D01*
X111413331Y-100100500D01*
X111413347Y-100100501D01*
X111420943Y-100100501D01*
X111579054Y-100100501D01*
X111579057Y-100100501D01*
X111731785Y-100059577D01*
X111801233Y-100019481D01*
X111868716Y-99980520D01*
X111980520Y-99868716D01*
X111980520Y-99868714D01*
X111990724Y-99858511D01*
X111990727Y-99858506D01*
X113712416Y-98136819D01*
X113773739Y-98103334D01*
X113800097Y-98100500D01*
X124420234Y-98100500D01*
X124487273Y-98120185D01*
X124489125Y-98121398D01*
X124620814Y-98209390D01*
X124620827Y-98209397D01*
X124750040Y-98262918D01*
X124766503Y-98269737D01*
X124921153Y-98300499D01*
X124921156Y-98300500D01*
X124921158Y-98300500D01*
X125078844Y-98300500D01*
X125078845Y-98300499D01*
X125233497Y-98269737D01*
X125379179Y-98209394D01*
X125510289Y-98121789D01*
X125621789Y-98010289D01*
X125709394Y-97879179D01*
X125769737Y-97733497D01*
X125800500Y-97578842D01*
X125800500Y-97421158D01*
X125800500Y-97421155D01*
X125800499Y-97421153D01*
X125776499Y-97300499D01*
X125769737Y-97266503D01*
X125769732Y-97266492D01*
X125767969Y-97260676D01*
X125770720Y-97259841D01*
X125764497Y-97202641D01*
X125795691Y-97140122D01*
X125855734Y-97104392D01*
X125886555Y-97100500D01*
X145420234Y-97100500D01*
X145487273Y-97120185D01*
X145489125Y-97121398D01*
X145620814Y-97209390D01*
X145620827Y-97209397D01*
X145758695Y-97266503D01*
X145766503Y-97269737D01*
X145921153Y-97300499D01*
X145921156Y-97300500D01*
X145921158Y-97300500D01*
X146078844Y-97300500D01*
X146078845Y-97300499D01*
X146233497Y-97269737D01*
X146379179Y-97209394D01*
X146510289Y-97121789D01*
X146621789Y-97010289D01*
X146709394Y-96879179D01*
X146769737Y-96733497D01*
X146800500Y-96578842D01*
X146800500Y-96421158D01*
X146800500Y-96421155D01*
X146800499Y-96421153D01*
X146791418Y-96375500D01*
X146769737Y-96266503D01*
X146769732Y-96266492D01*
X146767969Y-96260676D01*
X146770720Y-96259841D01*
X146764497Y-96202641D01*
X146795691Y-96140122D01*
X146855734Y-96104392D01*
X146886555Y-96100500D01*
X155420234Y-96100500D01*
X155487273Y-96120185D01*
G37*
%TD.AperFunction*%
%TA.AperFunction,Conductor*%
G36*
X188196439Y-92120185D02*
G01*
X188242194Y-92172989D01*
X188253400Y-92224500D01*
X188253400Y-94944870D01*
X188253401Y-94944876D01*
X188259808Y-95004483D01*
X188310102Y-95139328D01*
X188310106Y-95139335D01*
X188396352Y-95254544D01*
X188396355Y-95254547D01*
X188511564Y-95340793D01*
X188511571Y-95340797D01*
X188646417Y-95391091D01*
X188646416Y-95391091D01*
X188653344Y-95391835D01*
X188706027Y-95397500D01*
X189893972Y-95397499D01*
X189953583Y-95391091D01*
X190088431Y-95340796D01*
X190203646Y-95254546D01*
X190289896Y-95139331D01*
X190340191Y-95004483D01*
X190346600Y-94944873D01*
X190346599Y-92224499D01*
X190349149Y-92215814D01*
X190347861Y-92206853D01*
X190358839Y-92182812D01*
X190366284Y-92157461D01*
X190373124Y-92151533D01*
X190376886Y-92143297D01*
X190399118Y-92129009D01*
X190419087Y-92111706D01*
X190429602Y-92109418D01*
X190435664Y-92105523D01*
X190470599Y-92100500D01*
X190700069Y-92100500D01*
X190767108Y-92120185D01*
X190775557Y-92126125D01*
X190781281Y-92130517D01*
X190781284Y-92130520D01*
X190781287Y-92130521D01*
X190781290Y-92130524D01*
X190831293Y-92159393D01*
X190831298Y-92159395D01*
X190918209Y-92209574D01*
X190918210Y-92209575D01*
X190918212Y-92209575D01*
X190918215Y-92209577D01*
X191070943Y-92250501D01*
X191164173Y-92250501D01*
X191231212Y-92270186D01*
X191263440Y-92300191D01*
X191291549Y-92337741D01*
X191291552Y-92337744D01*
X191291554Y-92337746D01*
X191310698Y-92352077D01*
X191406764Y-92423993D01*
X191406771Y-92423997D01*
X191541617Y-92474291D01*
X191541616Y-92474291D01*
X191548544Y-92475035D01*
X191601227Y-92480700D01*
X193375500Y-92480699D01*
X193442539Y-92500384D01*
X193488294Y-92553187D01*
X193499500Y-92604699D01*
X193499500Y-109875500D01*
X193479815Y-109942539D01*
X193427011Y-109988294D01*
X193375500Y-109999500D01*
X178573362Y-109999500D01*
X178506323Y-109979815D01*
X178460568Y-109927011D01*
X178450624Y-109857853D01*
X178479649Y-109794297D01*
X178485681Y-109787819D01*
X179699458Y-108574041D01*
X179699457Y-108574041D01*
X179699463Y-108574036D01*
X179705826Y-108564514D01*
X179707770Y-108561605D01*
X179769589Y-108469086D01*
X179798013Y-108426547D01*
X179865894Y-108262666D01*
X179891301Y-108134939D01*
X179900500Y-108088694D01*
X179900500Y-103602135D01*
X189249500Y-103602135D01*
X189249500Y-105297870D01*
X189249501Y-105297876D01*
X189255908Y-105357483D01*
X189306202Y-105492328D01*
X189306206Y-105492335D01*
X189392452Y-105607544D01*
X189392455Y-105607547D01*
X189507664Y-105693793D01*
X189507671Y-105693797D01*
X189642517Y-105744091D01*
X189642516Y-105744091D01*
X189649444Y-105744835D01*
X189702127Y-105750500D01*
X192797872Y-105750499D01*
X192857483Y-105744091D01*
X192992331Y-105693796D01*
X193107546Y-105607546D01*
X193193796Y-105492331D01*
X193244091Y-105357483D01*
X193250500Y-105297873D01*
X193250499Y-103602128D01*
X193244091Y-103542517D01*
X193239763Y-103530914D01*
X193193797Y-103407671D01*
X193193793Y-103407664D01*
X193107547Y-103292455D01*
X193107544Y-103292452D01*
X192992335Y-103206206D01*
X192992328Y-103206202D01*
X192857482Y-103155908D01*
X192857483Y-103155908D01*
X192797883Y-103149501D01*
X192797881Y-103149500D01*
X192797873Y-103149500D01*
X192797864Y-103149500D01*
X189702129Y-103149500D01*
X189702123Y-103149501D01*
X189642516Y-103155908D01*
X189507671Y-103206202D01*
X189507664Y-103206206D01*
X189392455Y-103292452D01*
X189392452Y-103292455D01*
X189306206Y-103407664D01*
X189306202Y-103407671D01*
X189255908Y-103542517D01*
X189249501Y-103602116D01*
X189249501Y-103602123D01*
X189249500Y-103602135D01*
X179900500Y-103602135D01*
X179900500Y-102414362D01*
X179920185Y-102347323D01*
X179936819Y-102326681D01*
X181326681Y-100936819D01*
X181388004Y-100903334D01*
X181414362Y-100900500D01*
X185841769Y-100900500D01*
X185908808Y-100920185D01*
X185916080Y-100925233D01*
X186007668Y-100993795D01*
X186007671Y-100993797D01*
X186142517Y-101044091D01*
X186142516Y-101044091D01*
X186149444Y-101044835D01*
X186202127Y-101050500D01*
X191797872Y-101050499D01*
X191857483Y-101044091D01*
X191992331Y-100993796D01*
X192107546Y-100907546D01*
X192193796Y-100792331D01*
X192244091Y-100657483D01*
X192250500Y-100597873D01*
X192250499Y-99502128D01*
X192244091Y-99442517D01*
X192243638Y-99441303D01*
X192193797Y-99307671D01*
X192193793Y-99307664D01*
X192107548Y-99192456D01*
X192107546Y-99192455D01*
X192107546Y-99192454D01*
X192082579Y-99173764D01*
X192040710Y-99117832D01*
X192035726Y-99048140D01*
X192069211Y-98986817D01*
X192130534Y-98953333D01*
X192156890Y-98950499D01*
X192797872Y-98950499D01*
X192857483Y-98944091D01*
X192992331Y-98893796D01*
X193107546Y-98807546D01*
X193193796Y-98692331D01*
X193244091Y-98557483D01*
X193250500Y-98497873D01*
X193250499Y-96802128D01*
X193244091Y-96742517D01*
X193240728Y-96733501D01*
X193193797Y-96607671D01*
X193193793Y-96607664D01*
X193107547Y-96492455D01*
X193107544Y-96492452D01*
X192992335Y-96406206D01*
X192992328Y-96406202D01*
X192857482Y-96355908D01*
X192857483Y-96355908D01*
X192797883Y-96349501D01*
X192797881Y-96349500D01*
X192797873Y-96349500D01*
X192797864Y-96349500D01*
X189702129Y-96349500D01*
X189702123Y-96349501D01*
X189642516Y-96355908D01*
X189507671Y-96406202D01*
X189507664Y-96406206D01*
X189392455Y-96492452D01*
X189392452Y-96492455D01*
X189306206Y-96607664D01*
X189306202Y-96607671D01*
X189255908Y-96742517D01*
X189249501Y-96802116D01*
X189249501Y-96802123D01*
X189249500Y-96802135D01*
X189249500Y-98497870D01*
X189249501Y-98497876D01*
X189255908Y-98557483D01*
X189306202Y-98692328D01*
X189306206Y-98692335D01*
X189392452Y-98807544D01*
X189392453Y-98807544D01*
X189392454Y-98807546D01*
X189415458Y-98824767D01*
X189417418Y-98826234D01*
X189459288Y-98882168D01*
X189464272Y-98951860D01*
X189430786Y-99013182D01*
X189369462Y-99046667D01*
X189343106Y-99049500D01*
X186202129Y-99049500D01*
X186202123Y-99049501D01*
X186142516Y-99055908D01*
X186046604Y-99091682D01*
X186003271Y-99099500D01*
X180901303Y-99099500D01*
X180727341Y-99134103D01*
X180727329Y-99134106D01*
X180645392Y-99168045D01*
X180645393Y-99168046D01*
X180563455Y-99201985D01*
X180475040Y-99261063D01*
X180475039Y-99261064D01*
X180415961Y-99300537D01*
X178300537Y-101415961D01*
X178263668Y-101471140D01*
X178263663Y-101471148D01*
X178261063Y-101475040D01*
X178201987Y-101563453D01*
X178178225Y-101620821D01*
X178175359Y-101627739D01*
X178175355Y-101627747D01*
X178134105Y-101727333D01*
X178134103Y-101727341D01*
X178100011Y-101898732D01*
X178100012Y-101898733D01*
X178099500Y-101901308D01*
X178099500Y-107575638D01*
X178079815Y-107642677D01*
X178063181Y-107663319D01*
X177163319Y-108563181D01*
X177101996Y-108596666D01*
X177075638Y-108599500D01*
X165514500Y-108599500D01*
X165447461Y-108579815D01*
X165401706Y-108527011D01*
X165390500Y-108475500D01*
X165390500Y-106924361D01*
X165410185Y-106857322D01*
X165426819Y-106836680D01*
X165845680Y-106417819D01*
X165907003Y-106384334D01*
X165933361Y-106381500D01*
X168303202Y-106381500D01*
X168325846Y-106383585D01*
X168326596Y-106383724D01*
X168410931Y-106400500D01*
X168416918Y-106400500D01*
X168428144Y-106402585D01*
X168449532Y-106413429D01*
X168472539Y-106420185D01*
X168480126Y-106428941D01*
X168490461Y-106434181D01*
X168502591Y-106454867D01*
X168518294Y-106472989D01*
X168521287Y-106486750D01*
X168525804Y-106494452D01*
X168525354Y-106505445D01*
X168529500Y-106524500D01*
X168529500Y-106629547D01*
X168509815Y-106696586D01*
X168493184Y-106717224D01*
X168438485Y-106771924D01*
X168389954Y-106820455D01*
X168328631Y-106853939D01*
X168258939Y-106848955D01*
X168254831Y-106847339D01*
X168204328Y-106826420D01*
X168204323Y-106826419D01*
X168204322Y-106826418D01*
X168068995Y-106799500D01*
X168068993Y-106799500D01*
X167931007Y-106799500D01*
X167931005Y-106799500D01*
X167795677Y-106826418D01*
X167795667Y-106826421D01*
X167668195Y-106879221D01*
X167668182Y-106879228D01*
X167553458Y-106955885D01*
X167553454Y-106955888D01*
X167455888Y-107053454D01*
X167455885Y-107053458D01*
X167379228Y-107168182D01*
X167379221Y-107168195D01*
X167326421Y-107295667D01*
X167326418Y-107295677D01*
X167299500Y-107431004D01*
X167299500Y-107431007D01*
X167299500Y-107568993D01*
X167299500Y-107568995D01*
X167299499Y-107568995D01*
X167326418Y-107704322D01*
X167326421Y-107704332D01*
X167379221Y-107831804D01*
X167379228Y-107831817D01*
X167455885Y-107946541D01*
X167455888Y-107946545D01*
X167553454Y-108044111D01*
X167553458Y-108044114D01*
X167668182Y-108120771D01*
X167668195Y-108120778D01*
X167765989Y-108161285D01*
X167795672Y-108173580D01*
X167795676Y-108173580D01*
X167795677Y-108173581D01*
X167931004Y-108200500D01*
X167931007Y-108200500D01*
X168068995Y-108200500D01*
X168166191Y-108181166D01*
X168204328Y-108173580D01*
X168249515Y-108154862D01*
X168297617Y-108134939D01*
X168345069Y-108125500D01*
X168656607Y-108125500D01*
X168717029Y-108113481D01*
X168777452Y-108101463D01*
X168810792Y-108087652D01*
X168891286Y-108054312D01*
X168968181Y-108002931D01*
X168993733Y-107985858D01*
X169079891Y-107899699D01*
X169082112Y-107897684D01*
X169110948Y-107883702D01*
X169139094Y-107868334D01*
X169143658Y-107867843D01*
X169144981Y-107867202D01*
X169147171Y-107867465D01*
X169165453Y-107865500D01*
X169299222Y-107865500D01*
X169299228Y-107865500D01*
X169384882Y-107855214D01*
X169521185Y-107801463D01*
X169585074Y-107753013D01*
X169650385Y-107728190D01*
X169718749Y-107742617D01*
X169734926Y-107753014D01*
X169798813Y-107801462D01*
X169798814Y-107801462D01*
X169798815Y-107801463D01*
X169935118Y-107855214D01*
X170020772Y-107865500D01*
X170020778Y-107865500D01*
X170299222Y-107865500D01*
X170299228Y-107865500D01*
X170384882Y-107855214D01*
X170521185Y-107801463D01*
X170637931Y-107712931D01*
X170726463Y-107596185D01*
X170780214Y-107459882D01*
X170790500Y-107374228D01*
X170790500Y-107004500D01*
X170810185Y-106937461D01*
X170862989Y-106891706D01*
X170914500Y-106880500D01*
X171784222Y-106880500D01*
X171784228Y-106880500D01*
X171869882Y-106870214D01*
X172006185Y-106816463D01*
X172122931Y-106727931D01*
X172211463Y-106611185D01*
X172265214Y-106474882D01*
X172275500Y-106389228D01*
X172275500Y-106374500D01*
X172278050Y-106365814D01*
X172276762Y-106356853D01*
X172287740Y-106332812D01*
X172295185Y-106307461D01*
X172302025Y-106301533D01*
X172305787Y-106293297D01*
X172328021Y-106279007D01*
X172347989Y-106261706D01*
X172358503Y-106259418D01*
X172364565Y-106255523D01*
X172399500Y-106250500D01*
X172508511Y-106250500D01*
X172575550Y-106270185D01*
X172621305Y-106322989D01*
X172631249Y-106392147D01*
X172615839Y-106434656D01*
X172616051Y-106434755D01*
X172614940Y-106437135D01*
X172614048Y-106439599D01*
X172613000Y-106441296D01*
X172612996Y-106441305D01*
X172559651Y-106602290D01*
X172549500Y-106701647D01*
X172549500Y-107298337D01*
X172549501Y-107298355D01*
X172559650Y-107397707D01*
X172559651Y-107397710D01*
X172612996Y-107558694D01*
X172613001Y-107558705D01*
X172702029Y-107703040D01*
X172702032Y-107703044D01*
X172821955Y-107822967D01*
X172821959Y-107822970D01*
X172966294Y-107911998D01*
X172966297Y-107911999D01*
X172966303Y-107912003D01*
X173127292Y-107965349D01*
X173226655Y-107975500D01*
X173773344Y-107975499D01*
X173773352Y-107975498D01*
X173773355Y-107975498D01*
X173827760Y-107969940D01*
X173872708Y-107965349D01*
X174033697Y-107912003D01*
X174178044Y-107822968D01*
X174297968Y-107703044D01*
X174387003Y-107558697D01*
X174440349Y-107397708D01*
X174450500Y-107298345D01*
X174450499Y-106701656D01*
X174440349Y-106602292D01*
X174387003Y-106441303D01*
X174386999Y-106441296D01*
X174386998Y-106441294D01*
X174297970Y-106296959D01*
X174297969Y-106296958D01*
X174297968Y-106296956D01*
X174178044Y-106177032D01*
X174178043Y-106177031D01*
X174178041Y-106177029D01*
X174172590Y-106172719D01*
X174170922Y-106170363D01*
X174168297Y-106169165D01*
X174150851Y-106142018D01*
X174132213Y-106115697D01*
X174131609Y-106112077D01*
X174130523Y-106110387D01*
X174125500Y-106075452D01*
X174125500Y-105977229D01*
X174145185Y-105910190D01*
X174161819Y-105889548D01*
X174481424Y-105569943D01*
X174805297Y-105246069D01*
X174845522Y-105219192D01*
X174869179Y-105209394D01*
X175000289Y-105121789D01*
X175111789Y-105010289D01*
X175199394Y-104879179D01*
X175200870Y-104875617D01*
X175239839Y-104781536D01*
X175259737Y-104733497D01*
X175290500Y-104578842D01*
X175290500Y-104421158D01*
X175290500Y-104421155D01*
X175290499Y-104421153D01*
X175289967Y-104418477D01*
X175259737Y-104266503D01*
X175256073Y-104257658D01*
X175199397Y-104120827D01*
X175199390Y-104120814D01*
X175111789Y-103989711D01*
X175111786Y-103989707D01*
X175000292Y-103878213D01*
X175000288Y-103878210D01*
X174869185Y-103790609D01*
X174869172Y-103790602D01*
X174723501Y-103730264D01*
X174723489Y-103730261D01*
X174568845Y-103699500D01*
X174568842Y-103699500D01*
X174411158Y-103699500D01*
X174411155Y-103699500D01*
X174256510Y-103730261D01*
X174256498Y-103730264D01*
X174110827Y-103790602D01*
X174110814Y-103790609D01*
X173979711Y-103878210D01*
X173979707Y-103878213D01*
X173868213Y-103989707D01*
X173868207Y-103989715D01*
X173780607Y-104120818D01*
X173780606Y-104120819D01*
X173770805Y-104144480D01*
X173743927Y-104184703D01*
X173215451Y-104713181D01*
X173154128Y-104746666D01*
X173127770Y-104749500D01*
X172494097Y-104749500D01*
X172427058Y-104729815D01*
X172381303Y-104677011D01*
X172371359Y-104607853D01*
X172400384Y-104544297D01*
X172406416Y-104537819D01*
X172807274Y-104136961D01*
X174023506Y-102920727D01*
X174023511Y-102920724D01*
X174033714Y-102910520D01*
X174033716Y-102910520D01*
X174145520Y-102798716D01*
X174224577Y-102661784D01*
X174257286Y-102539711D01*
X174265500Y-102509058D01*
X174265500Y-102411559D01*
X174265896Y-102406617D01*
X174276684Y-102378428D01*
X174285185Y-102349480D01*
X174290097Y-102343383D01*
X174290871Y-102341363D01*
X174292968Y-102339820D01*
X174301814Y-102328842D01*
X174420472Y-102210185D01*
X174508478Y-102064606D01*
X174559086Y-101902196D01*
X174565500Y-101831616D01*
X174565500Y-101168384D01*
X174559086Y-101097804D01*
X174508478Y-100935394D01*
X174420472Y-100789815D01*
X174420470Y-100789813D01*
X174420469Y-100789811D01*
X174300188Y-100669530D01*
X174280258Y-100657482D01*
X174154606Y-100581522D01*
X173992196Y-100530914D01*
X173992194Y-100530913D01*
X173992192Y-100530913D01*
X173942778Y-100526423D01*
X173921616Y-100524500D01*
X173408384Y-100524500D01*
X173389145Y-100526248D01*
X173337807Y-100530913D01*
X173175393Y-100581522D01*
X173029811Y-100669530D01*
X172909530Y-100789811D01*
X172821522Y-100935393D01*
X172770913Y-101097807D01*
X172764500Y-101168386D01*
X172764500Y-101831613D01*
X172770913Y-101902192D01*
X172770913Y-101902194D01*
X172770914Y-101902196D01*
X172807461Y-102019481D01*
X172821522Y-102064606D01*
X172906761Y-102205608D01*
X172924597Y-102273163D01*
X172903079Y-102339637D01*
X172888325Y-102357439D01*
X171522181Y-103723584D01*
X171502744Y-103734196D01*
X171486011Y-103748697D01*
X171472679Y-103750613D01*
X171460858Y-103757069D01*
X171438771Y-103755489D01*
X171416853Y-103758641D01*
X171404601Y-103753045D01*
X171391166Y-103752085D01*
X171373439Y-103738814D01*
X171353297Y-103729616D01*
X171346014Y-103718284D01*
X171335233Y-103710213D01*
X171327495Y-103689467D01*
X171315523Y-103670838D01*
X171312371Y-103648919D01*
X171310816Y-103644749D01*
X171310500Y-103635903D01*
X171310500Y-103485783D01*
X171330185Y-103418744D01*
X171346814Y-103398106D01*
X171437139Y-103307782D01*
X171546632Y-103143914D01*
X171548699Y-103138925D01*
X171565731Y-103097804D01*
X171622051Y-102961835D01*
X171638491Y-102879185D01*
X171660500Y-102768543D01*
X171660500Y-99571456D01*
X171622052Y-99378170D01*
X171622051Y-99378169D01*
X171622051Y-99378165D01*
X171592849Y-99307664D01*
X171546635Y-99196092D01*
X171546628Y-99196079D01*
X171437140Y-99032219D01*
X171391738Y-98986817D01*
X171297782Y-98892861D01*
X171297781Y-98892860D01*
X169274208Y-96869288D01*
X169274206Y-96869285D01*
X169274206Y-96869286D01*
X169267139Y-96862219D01*
X169267139Y-96862218D01*
X169127782Y-96722861D01*
X169127781Y-96722860D01*
X169127780Y-96722859D01*
X168963920Y-96613371D01*
X168963907Y-96613364D01*
X168836170Y-96560454D01*
X168836163Y-96560452D01*
X168828995Y-96557483D01*
X168781836Y-96537949D01*
X168685188Y-96518724D01*
X168680852Y-96517861D01*
X168680843Y-96517859D01*
X168588544Y-96499500D01*
X168588541Y-96499500D01*
X167612132Y-96499500D01*
X167583620Y-96496178D01*
X167582484Y-96495909D01*
X167582483Y-96495909D01*
X167582481Y-96495908D01*
X167582478Y-96495908D01*
X167522883Y-96489501D01*
X167522881Y-96489500D01*
X167522873Y-96489500D01*
X167522864Y-96489500D01*
X166477129Y-96489500D01*
X166477123Y-96489501D01*
X166417516Y-96495908D01*
X166282671Y-96546202D01*
X166274886Y-96550454D01*
X166273153Y-96547280D01*
X166223698Y-96565659D01*
X166155443Y-96550725D01*
X166154497Y-96550117D01*
X166147328Y-96546202D01*
X166012482Y-96495908D01*
X166012483Y-96495908D01*
X165952883Y-96489501D01*
X165952881Y-96489500D01*
X165952873Y-96489500D01*
X165952864Y-96489500D01*
X164907129Y-96489500D01*
X164907123Y-96489501D01*
X164847516Y-96495908D01*
X164846382Y-96496177D01*
X164817867Y-96499500D01*
X164802190Y-96499500D01*
X164735151Y-96479815D01*
X164689396Y-96427011D01*
X164679452Y-96357853D01*
X164708477Y-96294297D01*
X164754738Y-96260939D01*
X164879172Y-96209397D01*
X164879172Y-96209396D01*
X164879179Y-96209394D01*
X164957844Y-96156832D01*
X165010875Y-96121398D01*
X165077553Y-96100520D01*
X165079766Y-96100500D01*
X175199903Y-96100500D01*
X175266942Y-96120185D01*
X175287583Y-96136818D01*
X175631284Y-96480520D01*
X175631286Y-96480521D01*
X175631290Y-96480524D01*
X175752414Y-96550454D01*
X175768216Y-96559577D01*
X175920943Y-96600501D01*
X175920945Y-96600501D01*
X176086654Y-96600501D01*
X176086670Y-96600500D01*
X181470431Y-96600500D01*
X181470447Y-96600501D01*
X181478043Y-96600501D01*
X181636154Y-96600501D01*
X181636157Y-96600501D01*
X181788885Y-96559577D01*
X181839004Y-96530639D01*
X181925816Y-96480520D01*
X182037620Y-96368716D01*
X182037620Y-96368714D01*
X182047828Y-96358507D01*
X182047830Y-96358504D01*
X182249506Y-96156828D01*
X182249511Y-96156824D01*
X182259714Y-96146620D01*
X182259716Y-96146620D01*
X182371520Y-96034816D01*
X182424809Y-95942517D01*
X182431735Y-95930521D01*
X182431736Y-95930518D01*
X182450577Y-95897885D01*
X182491501Y-95745157D01*
X182491501Y-95587043D01*
X182491501Y-95579448D01*
X182491500Y-95579430D01*
X182491500Y-93399097D01*
X182511185Y-93332058D01*
X182527819Y-93311416D01*
X183702416Y-92136819D01*
X183763739Y-92103334D01*
X183790097Y-92100500D01*
X188129400Y-92100500D01*
X188196439Y-92120185D01*
G37*
%TD.AperFunction*%
%TA.AperFunction,Conductor*%
G36*
X101266942Y-103120185D02*
G01*
X101287584Y-103136819D01*
X101679872Y-103529107D01*
X101713357Y-103590430D01*
X101708373Y-103660122D01*
X101679873Y-103704469D01*
X101594529Y-103789813D01*
X101506522Y-103935393D01*
X101455913Y-104097807D01*
X101451672Y-104144480D01*
X101449516Y-104168214D01*
X101449500Y-104168386D01*
X101449500Y-104298902D01*
X101429815Y-104365941D01*
X101413181Y-104386583D01*
X100519481Y-105280282D01*
X100519479Y-105280284D01*
X100499087Y-105315606D01*
X100489844Y-105331616D01*
X100456043Y-105390160D01*
X100442667Y-105413329D01*
X100440423Y-105417215D01*
X100399499Y-105569943D01*
X100399499Y-105569945D01*
X100399499Y-105738046D01*
X100399500Y-105738059D01*
X100399500Y-106699901D01*
X100390856Y-106729337D01*
X100384333Y-106759327D01*
X100380577Y-106764344D01*
X100379815Y-106766940D01*
X100363182Y-106787582D01*
X100287584Y-106863181D01*
X100226261Y-106896666D01*
X100199902Y-106899500D01*
X99300098Y-106899500D01*
X99233059Y-106879815D01*
X99212417Y-106863181D01*
X98986818Y-106637582D01*
X98953333Y-106576259D01*
X98950499Y-106549901D01*
X98950499Y-106450097D01*
X98970184Y-106383058D01*
X98986818Y-106362416D01*
X99093711Y-106255523D01*
X99207506Y-106141728D01*
X99207511Y-106141724D01*
X99217714Y-106131520D01*
X99217716Y-106131520D01*
X99329520Y-106019716D01*
X99346843Y-105989711D01*
X99387960Y-105918495D01*
X99387963Y-105918486D01*
X99387969Y-105918478D01*
X99408577Y-105882785D01*
X99449500Y-105730058D01*
X99449500Y-105571943D01*
X99449500Y-103974500D01*
X99469185Y-103907461D01*
X99521989Y-103861706D01*
X99573500Y-103850500D01*
X99578844Y-103850500D01*
X99578845Y-103850499D01*
X99733497Y-103819737D01*
X99879179Y-103759394D01*
X100010289Y-103671789D01*
X100121789Y-103560289D01*
X100209394Y-103429179D01*
X100216509Y-103412003D01*
X100229841Y-103379815D01*
X100269737Y-103283497D01*
X100276058Y-103251719D01*
X100286285Y-103200308D01*
X100318670Y-103138397D01*
X100379386Y-103103823D01*
X100407902Y-103100500D01*
X101199903Y-103100500D01*
X101266942Y-103120185D01*
G37*
%TD.AperFunction*%
%TA.AperFunction,Conductor*%
G36*
X169690762Y-104866710D02*
G01*
X169718749Y-104872617D01*
X169728806Y-104879081D01*
X169730012Y-104879473D01*
X169730671Y-104880279D01*
X169734926Y-104883014D01*
X169798813Y-104931462D01*
X169798814Y-104931462D01*
X169798815Y-104931463D01*
X169935118Y-104985214D01*
X170020772Y-104995500D01*
X170020778Y-104995500D01*
X170290500Y-104995500D01*
X170357539Y-105015185D01*
X170403294Y-105067989D01*
X170414500Y-105119500D01*
X170414500Y-105389228D01*
X170424425Y-105471875D01*
X170425734Y-105482776D01*
X170423462Y-105483048D01*
X170423462Y-105516951D01*
X170425734Y-105517224D01*
X170424786Y-105525117D01*
X170424786Y-105525118D01*
X170414500Y-105610772D01*
X170414500Y-105610778D01*
X170414500Y-105880500D01*
X170394815Y-105947539D01*
X170342011Y-105993294D01*
X170290500Y-106004500D01*
X170020772Y-106004500D01*
X169982667Y-106009076D01*
X169935119Y-106014785D01*
X169798813Y-106068537D01*
X169734925Y-106116986D01*
X169715497Y-106124370D01*
X169698341Y-106136106D01*
X169683496Y-106136532D01*
X169669614Y-106141809D01*
X169649275Y-106137516D01*
X169628500Y-106138114D01*
X169610416Y-106129315D01*
X169601250Y-106127381D01*
X169595987Y-106124382D01*
X169590333Y-106120974D01*
X169521185Y-106068537D01*
X169469566Y-106048181D01*
X169460685Y-106042828D01*
X169443784Y-106024420D01*
X169424063Y-106009076D01*
X169420562Y-105999128D01*
X169413431Y-105991361D01*
X169409165Y-105966739D01*
X169400871Y-105943168D01*
X169401551Y-105922790D01*
X169401504Y-105922517D01*
X169401565Y-105922371D01*
X169401583Y-105921842D01*
X169401988Y-105918477D01*
X169405500Y-105889228D01*
X169405500Y-105610772D01*
X169404871Y-105605538D01*
X169394266Y-105517224D01*
X169396551Y-105516949D01*
X169396551Y-105483050D01*
X169394266Y-105482776D01*
X169405500Y-105389228D01*
X169405500Y-105110771D01*
X169401805Y-105080000D01*
X169401583Y-105078154D01*
X169413133Y-105009247D01*
X169460105Y-104957522D01*
X169460686Y-104957170D01*
X169469562Y-104951819D01*
X169521185Y-104931463D01*
X169590335Y-104879023D01*
X169595988Y-104875617D01*
X169623649Y-104868351D01*
X169650385Y-104858190D01*
X169657013Y-104859588D01*
X169663566Y-104857868D01*
X169690762Y-104866710D01*
G37*
%TD.AperFunction*%
%TA.AperFunction,Conductor*%
G36*
X147282539Y-102145185D02*
G01*
X147328294Y-102197989D01*
X147339500Y-102249500D01*
X147339500Y-102377541D01*
X147339500Y-102377543D01*
X147339499Y-102377543D01*
X147377947Y-102570829D01*
X147377950Y-102570839D01*
X147453364Y-102752906D01*
X147453371Y-102752919D01*
X147463811Y-102768543D01*
X147518602Y-102850544D01*
X147524252Y-102868589D01*
X147534477Y-102884499D01*
X147538928Y-102915458D01*
X147539480Y-102917220D01*
X147539500Y-102919434D01*
X147539500Y-103138923D01*
X147519815Y-103205962D01*
X147467011Y-103251717D01*
X147397853Y-103261661D01*
X147334297Y-103232636D01*
X147300939Y-103186376D01*
X147256880Y-103080008D01*
X147256875Y-103079999D01*
X147152913Y-102924410D01*
X147152910Y-102924406D01*
X147020593Y-102792089D01*
X147020589Y-102792086D01*
X146865000Y-102688124D01*
X146864991Y-102688119D01*
X146692103Y-102616507D01*
X146692100Y-102616506D01*
X146665000Y-102611115D01*
X146665000Y-103363011D01*
X146655060Y-103345795D01*
X146599205Y-103289940D01*
X146530796Y-103250444D01*
X146454496Y-103230000D01*
X146375504Y-103230000D01*
X146299204Y-103250444D01*
X146230795Y-103289940D01*
X146174940Y-103345795D01*
X146165000Y-103363011D01*
X146165000Y-102611116D01*
X146164999Y-102611115D01*
X146137899Y-102616506D01*
X146137896Y-102616507D01*
X145965008Y-102688119D01*
X145964999Y-102688124D01*
X145809410Y-102792086D01*
X145809406Y-102792089D01*
X145677089Y-102924406D01*
X145677086Y-102924410D01*
X145573124Y-103079999D01*
X145573119Y-103080008D01*
X145501508Y-103252894D01*
X145501506Y-103252902D01*
X145465000Y-103436428D01*
X145465000Y-103830000D01*
X146115000Y-103830000D01*
X146115000Y-104330000D01*
X145465000Y-104330000D01*
X145465000Y-104723571D01*
X145501506Y-104907097D01*
X145501508Y-104907105D01*
X145573119Y-105079991D01*
X145573124Y-105080000D01*
X145677086Y-105235589D01*
X145677089Y-105235593D01*
X145809406Y-105367910D01*
X145809410Y-105367913D01*
X145964999Y-105471875D01*
X145965012Y-105471882D01*
X146137889Y-105543489D01*
X146137896Y-105543491D01*
X146165000Y-105548882D01*
X146165000Y-104796988D01*
X146174940Y-104814205D01*
X146230795Y-104870060D01*
X146299204Y-104909556D01*
X146375504Y-104930000D01*
X146454496Y-104930000D01*
X146530796Y-104909556D01*
X146599205Y-104870060D01*
X146655060Y-104814205D01*
X146665000Y-104796988D01*
X146665000Y-105548881D01*
X146692103Y-105543491D01*
X146692110Y-105543489D01*
X146864987Y-105471882D01*
X146865000Y-105471875D01*
X147020589Y-105367913D01*
X147020593Y-105367910D01*
X147152910Y-105235593D01*
X147152913Y-105235589D01*
X147256875Y-105080000D01*
X147256882Y-105079987D01*
X147301642Y-104971927D01*
X147345483Y-104917523D01*
X147411777Y-104895458D01*
X147479476Y-104912737D01*
X147503884Y-104931698D01*
X147542686Y-104970500D01*
X147656814Y-105036392D01*
X147784108Y-105070500D01*
X147784110Y-105070500D01*
X147915890Y-105070500D01*
X147915892Y-105070500D01*
X148043186Y-105036392D01*
X148157314Y-104970500D01*
X148250500Y-104877314D01*
X148316392Y-104763186D01*
X148343396Y-104662404D01*
X148379760Y-104602745D01*
X148442606Y-104572216D01*
X148463170Y-104570499D01*
X148687872Y-104570499D01*
X148687885Y-104570498D01*
X148726744Y-104566320D01*
X148753252Y-104566320D01*
X148778759Y-104569062D01*
X148843308Y-104595801D01*
X148883155Y-104653194D01*
X148889500Y-104692351D01*
X148889500Y-105271903D01*
X148869815Y-105338942D01*
X148853181Y-105359584D01*
X148349584Y-105863181D01*
X148288261Y-105896666D01*
X148261903Y-105899500D01*
X145086670Y-105899500D01*
X145086654Y-105899499D01*
X145079058Y-105899499D01*
X144920943Y-105899499D01*
X144768216Y-105940423D01*
X144768214Y-105940424D01*
X144760366Y-105942527D01*
X144759739Y-105940190D01*
X144702472Y-105946342D01*
X144639996Y-105915061D01*
X144604349Y-105854969D01*
X144600500Y-105824314D01*
X144600500Y-103920945D01*
X144600500Y-103920943D01*
X144570475Y-103808887D01*
X144559577Y-103768215D01*
X144522337Y-103703714D01*
X144480520Y-103631284D01*
X144368716Y-103519480D01*
X144368715Y-103519479D01*
X144367289Y-103518053D01*
X144365846Y-103516611D01*
X144364402Y-103515167D01*
X144364400Y-103515163D01*
X144364397Y-103515160D01*
X144364374Y-103515139D01*
X144037590Y-103188355D01*
X144037588Y-103188352D01*
X143918717Y-103069481D01*
X143918716Y-103069480D01*
X143831904Y-103019360D01*
X143781785Y-102990423D01*
X143769914Y-102987242D01*
X143757881Y-102980981D01*
X143742074Y-102965796D01*
X143723360Y-102954389D01*
X143716750Y-102946479D01*
X143695810Y-102919190D01*
X143575853Y-102827144D01*
X143575852Y-102827143D01*
X143575850Y-102827142D01*
X143436162Y-102769282D01*
X143436160Y-102769281D01*
X143436159Y-102769281D01*
X143422125Y-102767433D01*
X143323894Y-102754500D01*
X143323887Y-102754500D01*
X142929452Y-102754500D01*
X142862413Y-102734815D01*
X142816658Y-102682011D01*
X142806714Y-102612853D01*
X142835739Y-102549297D01*
X142841771Y-102542819D01*
X143222772Y-102161819D01*
X143284095Y-102128334D01*
X143310453Y-102125500D01*
X147215500Y-102125500D01*
X147282539Y-102145185D01*
G37*
%TD.AperFunction*%
%TA.AperFunction,Conductor*%
G36*
X139987273Y-101120185D02*
G01*
X139989125Y-101121398D01*
X140022288Y-101143557D01*
X140067093Y-101197169D01*
X140075800Y-101266494D01*
X140045645Y-101329522D01*
X140022289Y-101349761D01*
X139979707Y-101378213D01*
X139868213Y-101489707D01*
X139868210Y-101489711D01*
X139780609Y-101620814D01*
X139780602Y-101620827D01*
X139720264Y-101766498D01*
X139720261Y-101766510D01*
X139689500Y-101921153D01*
X139689500Y-101981675D01*
X139685275Y-102013765D01*
X139644499Y-102165943D01*
X139644499Y-102165945D01*
X139644499Y-102334046D01*
X139644500Y-102334059D01*
X139644500Y-102653017D01*
X139624815Y-102720056D01*
X139572011Y-102765811D01*
X139567953Y-102767578D01*
X139563841Y-102769280D01*
X139563841Y-102769281D01*
X139525940Y-102784979D01*
X139424148Y-102827143D01*
X139304190Y-102919190D01*
X139212142Y-103039149D01*
X139154282Y-103178837D01*
X139154281Y-103178841D01*
X139139500Y-103291105D01*
X139139500Y-103291119D01*
X139139501Y-103808887D01*
X139154279Y-103921151D01*
X139154282Y-103921162D01*
X139212142Y-104060850D01*
X139212143Y-104060852D01*
X139212144Y-104060853D01*
X139304190Y-104180810D01*
X139424147Y-104272856D01*
X139563841Y-104330719D01*
X139676113Y-104345500D01*
X140813886Y-104345499D01*
X140888810Y-104335635D01*
X140957842Y-104346400D01*
X140995224Y-104373519D01*
X141002334Y-104381062D01*
X141014142Y-104398733D01*
X141098689Y-104483280D01*
X141099955Y-104484623D01*
X141114989Y-104514200D01*
X141130890Y-104543320D01*
X141130754Y-104545215D01*
X141131615Y-104546908D01*
X141128273Y-104579907D01*
X141125906Y-104613012D01*
X141124767Y-104614533D01*
X141124576Y-104616422D01*
X141103919Y-104642381D01*
X141084034Y-104668945D01*
X141082254Y-104669608D01*
X141081072Y-104671095D01*
X141049656Y-104681767D01*
X141018570Y-104693362D01*
X141016508Y-104693027D01*
X141014916Y-104693569D01*
X141005688Y-104691274D01*
X140962272Y-104684239D01*
X140926162Y-104669282D01*
X140926160Y-104669281D01*
X140926159Y-104669281D01*
X140813887Y-104654500D01*
X139676111Y-104654500D01*
X139563848Y-104669279D01*
X139563837Y-104669282D01*
X139424146Y-104727143D01*
X139313643Y-104811935D01*
X139248473Y-104837129D01*
X139180029Y-104823090D01*
X139150476Y-104801240D01*
X138136819Y-103787583D01*
X138103334Y-103726260D01*
X138100500Y-103699902D01*
X138100500Y-102300097D01*
X138120185Y-102233058D01*
X138136819Y-102212416D01*
X139212416Y-101136819D01*
X139273739Y-101103334D01*
X139300097Y-101100500D01*
X139920234Y-101100500D01*
X139987273Y-101120185D01*
G37*
%TD.AperFunction*%
%TA.AperFunction,Conductor*%
G36*
X105317941Y-99120185D02*
G01*
X105363696Y-99172989D01*
X105373640Y-99242147D01*
X105344615Y-99305703D01*
X105338589Y-99312173D01*
X105209469Y-99441294D01*
X105124217Y-99526546D01*
X105124214Y-99526548D01*
X105124215Y-99526549D01*
X105019480Y-99631284D01*
X104984164Y-99692454D01*
X104940423Y-99768215D01*
X104899499Y-99920943D01*
X104899499Y-99920945D01*
X104899499Y-100089046D01*
X104899500Y-100089059D01*
X104899500Y-102420234D01*
X104879815Y-102487273D01*
X104878602Y-102489125D01*
X104790609Y-102620814D01*
X104790602Y-102620827D01*
X104730264Y-102766498D01*
X104730261Y-102766510D01*
X104699500Y-102921153D01*
X104699500Y-103078846D01*
X104730092Y-103232638D01*
X104730263Y-103233497D01*
X104764507Y-103316171D01*
X104765142Y-103317702D01*
X104768393Y-103347941D01*
X104773930Y-103377849D01*
X104772091Y-103382344D01*
X104772611Y-103387172D01*
X104758994Y-103414373D01*
X104747485Y-103442521D01*
X104742954Y-103446417D01*
X104741336Y-103449651D01*
X104721763Y-103466689D01*
X104717290Y-103469824D01*
X104631284Y-103519480D01*
X104595684Y-103555079D01*
X104586827Y-103561289D01*
X104563558Y-103569151D01*
X104542001Y-103580922D01*
X104530251Y-103580405D01*
X104520634Y-103583655D01*
X104502843Y-103579200D01*
X104478756Y-103578141D01*
X104447659Y-103568451D01*
X104327196Y-103530914D01*
X104256616Y-103524500D01*
X103743384Y-103524500D01*
X103724145Y-103526248D01*
X103672807Y-103530913D01*
X103672804Y-103530914D01*
X103521240Y-103578142D01*
X103451382Y-103579292D01*
X103396672Y-103547437D01*
X101987590Y-102138355D01*
X101987588Y-102138352D01*
X101868717Y-102019481D01*
X101868716Y-102019480D01*
X101767326Y-101960943D01*
X101767325Y-101960942D01*
X101741307Y-101945921D01*
X101731785Y-101940423D01*
X101731784Y-101940422D01*
X101731783Y-101940422D01*
X101675881Y-101925443D01*
X101579057Y-101899499D01*
X101420943Y-101899499D01*
X101413347Y-101899499D01*
X101413331Y-101899500D01*
X99964500Y-101899500D01*
X99897461Y-101879815D01*
X99851706Y-101827011D01*
X99840500Y-101775500D01*
X99840499Y-100902129D01*
X99840499Y-100902128D01*
X99836365Y-100863674D01*
X99848771Y-100794917D01*
X99896382Y-100743780D01*
X99964081Y-100726501D01*
X100030375Y-100748566D01*
X100058921Y-100776110D01*
X100082455Y-100807547D01*
X100197664Y-100893793D01*
X100197671Y-100893797D01*
X100332517Y-100944091D01*
X100332516Y-100944091D01*
X100339444Y-100944835D01*
X100392127Y-100950500D01*
X101287872Y-100950499D01*
X101347483Y-100944091D01*
X101482331Y-100893796D01*
X101507128Y-100875233D01*
X101572592Y-100850816D01*
X101581439Y-100850500D01*
X102503331Y-100850500D01*
X102503347Y-100850501D01*
X102510943Y-100850501D01*
X102669054Y-100850501D01*
X102669057Y-100850501D01*
X102821785Y-100809577D01*
X102893424Y-100768216D01*
X102958716Y-100730520D01*
X103070520Y-100618716D01*
X103070520Y-100618714D01*
X103080724Y-100608511D01*
X103080727Y-100608506D01*
X104552417Y-99136819D01*
X104613740Y-99103334D01*
X104640098Y-99100500D01*
X105250902Y-99100500D01*
X105317941Y-99120185D01*
G37*
%TD.AperFunction*%
%TA.AperFunction,Conductor*%
G36*
X168011231Y-101170185D02*
G01*
X168031873Y-101186819D01*
X168850325Y-102005272D01*
X168850332Y-102005278D01*
X168956863Y-102076459D01*
X168956865Y-102076460D01*
X168956874Y-102076466D01*
X168998081Y-102093534D01*
X168998082Y-102093535D01*
X169063957Y-102120821D01*
X169075256Y-102125501D01*
X169075260Y-102125501D01*
X169075261Y-102125502D01*
X169200928Y-102150500D01*
X169200931Y-102150500D01*
X169215287Y-102150500D01*
X169262739Y-102159938D01*
X169295672Y-102173580D01*
X169295676Y-102173580D01*
X169295677Y-102173581D01*
X169431004Y-102200500D01*
X169535500Y-102200500D01*
X169602539Y-102220185D01*
X169648294Y-102272989D01*
X169659500Y-102324500D01*
X169659500Y-102768541D01*
X169659500Y-102768543D01*
X169659499Y-102768543D01*
X169697947Y-102961829D01*
X169697950Y-102961839D01*
X169740022Y-103063411D01*
X169747491Y-103132881D01*
X169716215Y-103195360D01*
X169656126Y-103231011D01*
X169586301Y-103228517D01*
X169537780Y-103198544D01*
X167977590Y-101638355D01*
X167977588Y-101638352D01*
X167858717Y-101519481D01*
X167858716Y-101519480D01*
X167771430Y-101469086D01*
X167721785Y-101440423D01*
X167569057Y-101399499D01*
X167410943Y-101399499D01*
X167403347Y-101399499D01*
X167403331Y-101399500D01*
X166391715Y-101399500D01*
X166381369Y-101396462D01*
X166370658Y-101397699D01*
X166348429Y-101386790D01*
X166324676Y-101379815D01*
X166315962Y-101370855D01*
X166307935Y-101366916D01*
X166285574Y-101339609D01*
X166284970Y-101338609D01*
X166267159Y-101271048D01*
X166288702Y-101204582D01*
X166342760Y-101160315D01*
X166391111Y-101150500D01*
X167944192Y-101150500D01*
X168011231Y-101170185D01*
G37*
%TD.AperFunction*%
%TA.AperFunction,Conductor*%
G36*
X98015324Y-85120185D02*
G01*
X98054401Y-85160349D01*
X98078273Y-85199838D01*
X98084530Y-85210188D01*
X98204811Y-85330469D01*
X98204813Y-85330470D01*
X98204815Y-85330472D01*
X98350394Y-85418478D01*
X98512804Y-85469086D01*
X98583384Y-85475500D01*
X98583387Y-85475500D01*
X99096613Y-85475500D01*
X99096616Y-85475500D01*
X99167196Y-85469086D01*
X99329606Y-85418478D01*
X99475185Y-85330472D01*
X99495923Y-85309734D01*
X99577319Y-85228339D01*
X99638642Y-85194854D01*
X99708334Y-85199838D01*
X99752681Y-85228339D01*
X99854811Y-85330469D01*
X99854813Y-85330470D01*
X99854815Y-85330472D01*
X100000394Y-85418478D01*
X100162804Y-85469086D01*
X100233384Y-85475500D01*
X100233387Y-85475500D01*
X100746613Y-85475500D01*
X100746616Y-85475500D01*
X100817196Y-85469086D01*
X100979606Y-85418478D01*
X101125185Y-85330472D01*
X101210530Y-85245126D01*
X101271851Y-85211642D01*
X101341542Y-85216626D01*
X101385891Y-85245127D01*
X101621284Y-85480520D01*
X101621286Y-85480521D01*
X101621290Y-85480524D01*
X101758209Y-85559573D01*
X101758212Y-85559575D01*
X101758216Y-85559577D01*
X101910943Y-85600501D01*
X101910945Y-85600501D01*
X101986559Y-85600501D01*
X102019039Y-85610038D01*
X102051726Y-85619005D01*
X102052496Y-85619862D01*
X102053598Y-85620186D01*
X102075742Y-85645741D01*
X102098416Y-85670984D01*
X102098600Y-85672121D01*
X102099353Y-85672990D01*
X102104173Y-85706512D01*
X102109592Y-85739954D01*
X102109133Y-85741008D01*
X102109297Y-85742148D01*
X102095223Y-85772965D01*
X102081707Y-85804018D01*
X102080579Y-85805030D01*
X102080272Y-85805704D01*
X102055451Y-85827602D01*
X102055450Y-85827603D01*
X101979125Y-85878602D01*
X101912448Y-85899480D01*
X101910234Y-85899500D01*
X97576669Y-85899500D01*
X97576653Y-85899499D01*
X97569057Y-85899499D01*
X97479771Y-85899499D01*
X97412732Y-85879814D01*
X97366977Y-85827010D01*
X97357033Y-85757852D01*
X97358154Y-85751308D01*
X97388151Y-85600500D01*
X97390500Y-85588691D01*
X97390500Y-85224500D01*
X97410185Y-85157461D01*
X97462989Y-85111706D01*
X97514500Y-85100500D01*
X97948285Y-85100500D01*
X98015324Y-85120185D01*
G37*
%TD.AperFunction*%
%TD*%
M02*
