%TF.GenerationSoftware,KiCad,Pcbnew,9.0.6*%
%TF.CreationDate,2025-12-22T23:17:33+09:00*%
%TF.ProjectId,CEI-TOOL,4345492d-544f-44f4-9c2e-6b696361645f,rev?*%
%TF.SameCoordinates,Original*%
%TF.FileFunction,Paste,Top*%
%TF.FilePolarity,Positive*%
%FSLAX46Y46*%
G04 Gerber Fmt 4.6, Leading zero omitted, Abs format (unit mm)*
G04 Created by KiCad (PCBNEW 9.0.6) date 2025-12-22 23:17:33*
%MOMM*%
%LPD*%
G01*
G04 APERTURE LIST*
G04 Aperture macros list*
%AMRoundRect*
0 Rectangle with rounded corners*
0 $1 Rounding radius*
0 $2 $3 $4 $5 $6 $7 $8 $9 X,Y pos of 4 corners*
0 Add a 4 corners polygon primitive as box body*
4,1,4,$2,$3,$4,$5,$6,$7,$8,$9,$2,$3,0*
0 Add four circle primitives for the rounded corners*
1,1,$1+$1,$2,$3*
1,1,$1+$1,$4,$5*
1,1,$1+$1,$6,$7*
1,1,$1+$1,$8,$9*
0 Add four rect primitives between the rounded corners*
20,1,$1+$1,$2,$3,$4,$5,0*
20,1,$1+$1,$4,$5,$6,$7,0*
20,1,$1+$1,$6,$7,$8,$9,0*
20,1,$1+$1,$8,$9,$2,$3,0*%
%AMFreePoly0*
4,1,6,0.725000,-0.725000,-0.725000,-0.725000,-0.725000,0.125000,-0.125000,0.725000,0.725000,0.725000,0.725000,-0.725000,0.725000,-0.725000,$1*%
%AMFreePoly1*
4,1,23,0.885280,4.174580,0.889000,4.165600,0.889000,1.397000,0.885280,1.388020,0.884899,1.387654,0.254000,0.807226,0.254000,0.508000,0.250280,0.499020,0.241300,0.495300,0.241300,-0.508000,-0.241300,-0.508000,-0.241300,0.495300,-0.250280,0.499020,-0.254000,0.508000,-0.254000,0.807226,-0.884899,1.387654,-0.888989,1.396471,-0.889000,1.397000,-0.889000,4.165600,-0.885280,4.174580,
-0.876300,4.178300,0.876300,4.178300,0.885280,4.174580,0.885280,4.174580,$1*%
G04 Aperture macros list end*
%ADD10C,0.025400*%
%ADD11C,0.010000*%
%ADD12RoundRect,0.225000X-0.225000X-0.250000X0.225000X-0.250000X0.225000X0.250000X-0.225000X0.250000X0*%
%ADD13R,0.300000X1.140000*%
%ADD14R,0.600000X1.140000*%
%ADD15R,1.092200X2.794000*%
%ADD16R,1.701800X0.660400*%
%ADD17R,3.000000X1.600000*%
%ADD18R,5.500000X1.000000*%
%ADD19RoundRect,0.200000X0.200000X0.275000X-0.200000X0.275000X-0.200000X-0.275000X0.200000X-0.275000X0*%
%ADD20R,0.400000X0.800000*%
%ADD21R,0.800000X0.400000*%
%ADD22FreePoly0,90.000000*%
%ADD23R,1.450000X1.450000*%
%ADD24R,0.700000X0.700000*%
%ADD25RoundRect,0.225000X0.225000X0.250000X-0.225000X0.250000X-0.225000X-0.250000X0.225000X-0.250000X0*%
%ADD26R,1.300000X1.400000*%
%ADD27R,1.000000X2.800000*%
%ADD28R,0.600000X1.700000*%
%ADD29RoundRect,0.200000X-0.200000X-0.275000X0.200000X-0.275000X0.200000X0.275000X-0.200000X0.275000X0*%
%ADD30R,0.950000X1.400000*%
%ADD31R,0.431800X1.016000*%
%ADD32FreePoly1,0.000000*%
%ADD33RoundRect,0.032500X-0.397500X-0.097500X0.397500X-0.097500X0.397500X0.097500X-0.397500X0.097500X0*%
%ADD34RoundRect,0.032500X-0.097500X-0.397500X0.097500X-0.397500X0.097500X0.397500X-0.097500X0.397500X0*%
%ADD35RoundRect,0.073750X-0.531250X-0.221250X0.531250X-0.221250X0.531250X0.221250X-0.531250X0.221250X0*%
%ADD36R,0.950000X1.020000*%
G04 APERTURE END LIST*
D10*
%TO.C,U2*%
X119366300Y-105855600D02*
X118731300Y-106439800D01*
X118731300Y-106744600D01*
X118248700Y-106744600D01*
X118248700Y-106439800D01*
X117613700Y-105855600D01*
X117613700Y-103087000D01*
X118248700Y-103087000D01*
X118731300Y-103087000D01*
X119366300Y-103087000D01*
X119366300Y-105855600D01*
G36*
X119366300Y-105855600D02*
G01*
X118731300Y-106439800D01*
X118731300Y-106744600D01*
X118248700Y-106744600D01*
X118248700Y-106439800D01*
X117613700Y-105855600D01*
X117613700Y-103087000D01*
X118248700Y-103087000D01*
X118731300Y-103087000D01*
X119366300Y-103087000D01*
X119366300Y-105855600D01*
G37*
D11*
%TO.C,U3*%
X170440000Y-106030000D02*
X169380000Y-106030000D01*
X169380000Y-104970000D01*
X170440000Y-104970000D01*
X170440000Y-106030000D01*
G36*
X170440000Y-106030000D02*
G01*
X169380000Y-106030000D01*
X169380000Y-104970000D01*
X170440000Y-104970000D01*
X170440000Y-106030000D01*
G37*
%TD*%
D12*
%TO.C,C11*%
X99550000Y-106500000D03*
X98000000Y-106500000D03*
%TD*%
D13*
%TO.C,J1*%
X148990000Y-103500000D03*
X149990000Y-103500000D03*
X151490000Y-103500000D03*
X152490000Y-103500000D03*
D14*
X153140000Y-103500000D03*
X153940000Y-103500000D03*
D13*
X151990000Y-103500000D03*
X150990000Y-103500000D03*
X150490000Y-103500000D03*
X149490000Y-103500000D03*
D14*
X148340000Y-103500000D03*
X147540000Y-103500000D03*
%TD*%
D15*
%TO.C,J2*%
X189300000Y-93500000D03*
X189300000Y-86050000D03*
D16*
X192500000Y-91650000D03*
X192500000Y-90400000D03*
X192500000Y-89150000D03*
X192500000Y-87900000D03*
%TD*%
D17*
%TO.C,J6*%
X191250000Y-104450000D03*
X191250000Y-97650000D03*
D18*
X189000000Y-102050000D03*
X189000000Y-100050000D03*
%TD*%
D19*
%TO.C,R15*%
X102350000Y-104500000D03*
X104000000Y-104500000D03*
%TD*%
D20*
%TO.C,U1*%
X91940000Y-101350000D03*
X92740000Y-101350000D03*
X93540000Y-101350000D03*
X94340000Y-101350000D03*
X95140000Y-101350000D03*
X95940000Y-101350000D03*
X96740000Y-101350000D03*
X97540000Y-101350000D03*
X98340000Y-101350000D03*
X99140000Y-101350000D03*
X99940000Y-101350000D03*
D21*
X100840000Y-100250000D03*
X100840000Y-99450000D03*
X100840000Y-98650000D03*
X100840000Y-97850000D03*
X100840000Y-97050000D03*
X100840000Y-96250000D03*
X100840000Y-95450000D03*
X100840000Y-94650000D03*
X100840000Y-93850000D03*
X100840000Y-93050000D03*
X100840000Y-92250000D03*
X100840000Y-91450000D03*
X100840000Y-90650000D03*
D20*
X99940000Y-89550000D03*
X99140000Y-89550000D03*
X98340000Y-89550000D03*
X97540000Y-89550000D03*
X96740000Y-89550000D03*
X95940000Y-89550000D03*
X95140000Y-89550000D03*
X94340000Y-89550000D03*
X93540000Y-89550000D03*
X92740000Y-89550000D03*
X91940000Y-89550000D03*
D21*
X91040000Y-90650000D03*
X91040000Y-91450000D03*
X91040000Y-92250000D03*
X91040000Y-93050000D03*
X91040000Y-93850000D03*
X91040000Y-94650000D03*
X91040000Y-95450000D03*
X91040000Y-96250000D03*
X91040000Y-97050000D03*
X91040000Y-97850000D03*
X91040000Y-98650000D03*
X91040000Y-99450000D03*
X91040000Y-100250000D03*
D22*
X93965000Y-97425000D03*
D23*
X95940000Y-97425000D03*
X97915000Y-97425000D03*
X93965000Y-95450000D03*
X95940000Y-95450000D03*
X97915000Y-95450000D03*
X93965000Y-93475000D03*
X95940000Y-93475000D03*
X97915000Y-93475000D03*
D24*
X90990000Y-89500000D03*
X100890000Y-89500000D03*
X100890000Y-101400000D03*
X90990000Y-101400000D03*
%TD*%
D25*
%TO.C,C1*%
X164000000Y-100000000D03*
X165550000Y-100000000D03*
%TD*%
%TO.C,C2*%
X159490000Y-108500000D03*
X161040000Y-108500000D03*
%TD*%
D12*
%TO.C,C3*%
X173500000Y-107000000D03*
X175050000Y-107000000D03*
%TD*%
%TO.C,C4*%
X122000000Y-108500000D03*
X123550000Y-108500000D03*
%TD*%
%TO.C,C5*%
X114490000Y-108500000D03*
X112940000Y-108500000D03*
%TD*%
D25*
%TO.C,C6*%
X98000000Y-104500000D03*
X99550000Y-104500000D03*
%TD*%
%TO.C,C7*%
X176725000Y-86500000D03*
X178275000Y-86500000D03*
%TD*%
%TO.C,C8*%
X108950000Y-102500000D03*
X110500000Y-102500000D03*
%TD*%
%TO.C,C9*%
X176725000Y-82500000D03*
X178275000Y-82500000D03*
%TD*%
D12*
%TO.C,C10*%
X160265000Y-89500000D03*
X158715000Y-89500000D03*
%TD*%
D26*
%TO.C,D1*%
X169250000Y-93000000D03*
X164750000Y-93000000D03*
%TD*%
D27*
%TO.C,J4*%
X168400000Y-84850000D03*
X173350000Y-84850000D03*
D28*
X171500000Y-88200000D03*
X170250000Y-88200000D03*
%TD*%
D27*
%TO.C,P1*%
X145990000Y-82525000D03*
X158440000Y-82525000D03*
D28*
X156590000Y-85875000D03*
X155340000Y-85875000D03*
X154090000Y-85875000D03*
X152840000Y-85875000D03*
X151590000Y-85875000D03*
X150340000Y-85875000D03*
X149090000Y-85875000D03*
X147840000Y-85875000D03*
%TD*%
D29*
%TO.C,R1*%
X161150000Y-104500000D03*
X159500000Y-104500000D03*
%TD*%
D19*
%TO.C,R3*%
X163850000Y-103500000D03*
X165500000Y-103500000D03*
%TD*%
%TO.C,R4*%
X133850000Y-107500000D03*
X135500000Y-107500000D03*
%TD*%
%TO.C,R5*%
X163850000Y-102000000D03*
X165500000Y-102000000D03*
%TD*%
D29*
%TO.C,R6*%
X157150000Y-100500000D03*
X155500000Y-100500000D03*
%TD*%
%TO.C,R7*%
X175315000Y-101500000D03*
X173665000Y-101500000D03*
%TD*%
D30*
%TO.C,S1*%
X110075000Y-105500000D03*
X105925000Y-105500000D03*
%TD*%
%TO.C,S2*%
X110075000Y-85000000D03*
X105925000Y-85000000D03*
%TD*%
D31*
%TO.C,U2*%
X116990000Y-107252600D03*
D32*
X118490000Y-107252600D03*
D31*
X119990000Y-107252600D03*
X119990000Y-103747400D03*
X116990000Y-103747400D03*
%TD*%
D33*
%TO.C,U3*%
X168475000Y-104750000D03*
X168475000Y-105250000D03*
X168475000Y-105750000D03*
X168475000Y-106250000D03*
D34*
X169160000Y-106935000D03*
X169660000Y-106935000D03*
X170160000Y-106935000D03*
X170660000Y-106935000D03*
D33*
X171345000Y-106250000D03*
X171345000Y-105750000D03*
X171345000Y-105250000D03*
X171345000Y-104750000D03*
D34*
X170660000Y-104065000D03*
X170160000Y-104065000D03*
X169660000Y-104065000D03*
X169160000Y-104065000D03*
%TD*%
D35*
%TO.C,U4*%
X142755000Y-103550000D03*
X142755000Y-104500000D03*
X142755000Y-105450000D03*
X140245000Y-105450000D03*
X140245000Y-104500000D03*
X140245000Y-103550000D03*
%TD*%
D29*
%TO.C,R13*%
X100490000Y-84500000D03*
X98840000Y-84500000D03*
%TD*%
%TO.C,R8*%
X176665000Y-89500000D03*
X178315000Y-89500000D03*
%TD*%
%TO.C,R12*%
X133675000Y-105000000D03*
X135325000Y-105000000D03*
%TD*%
D19*
%TO.C,R2*%
X161140000Y-106500000D03*
X159490000Y-106500000D03*
%TD*%
%TO.C,R11*%
X178325000Y-84500000D03*
X176675000Y-84500000D03*
%TD*%
D29*
%TO.C,R14*%
X133675000Y-103500000D03*
X135325000Y-103500000D03*
%TD*%
D36*
%TO.C,F1*%
X167000000Y-97500000D03*
X165430000Y-97500000D03*
%TD*%
D29*
%TO.C,R9*%
X104000000Y-106500000D03*
X102350000Y-106500000D03*
%TD*%
%TO.C,R10*%
X176665000Y-91500000D03*
X178315000Y-91500000D03*
%TD*%
M02*
