M48
; DRILL file {KiCad 9.0.6} date 2025-12-22T23:17:28+0900
; FORMAT={-:-/ absolute / metric / decimal}
; #@! TF.CreationDate,2025-12-22T23:17:28+09:00
; #@! TF.GenerationSoftware,Kicad,Pcbnew,9.0.6
; #@! TF.FileFunction,Plated,1,2,PTH
FMAT,2
METRIC
; #@! TA.AperFunction,Plated,PTH,ViaDrill
T1C0.200
; #@! TA.AperFunction,Plated,PTH,ComponentDrill
T2C0.200
; #@! TA.AperFunction,Plated,PTH,ViaDrill
T3C0.300
; #@! TA.AperFunction,Plated,PTH,ComponentDrill
T4C0.600
; #@! TA.AperFunction,Plated,PTH,ComponentDrill
T5C2.200
%
G90
G05
T1
X92.3Y-88.095
X92.3Y-103.335
X94.84Y-88.095
X97.38Y-83.015
X99.92Y-83.015
X101.0Y-104.5
X102.46Y-83.015
X102.5Y-101.5
X103.5Y-101.5
X104.5Y-101.5
X105.0Y-83.015
X107.54Y-83.015
X107.54Y-85.555
X107.54Y-105.875
X110.08Y-83.015
X110.08Y-90.635
X110.08Y-100.795
X112.62Y-83.015
X112.62Y-85.555
X112.62Y-100.795
X115.0Y-104.0
X115.0Y-105.5
X115.16Y-83.015
X115.16Y-85.555
X115.16Y-100.795
X117.7Y-83.015
X117.7Y-85.555
X117.7Y-93.175
X120.24Y-83.015
X120.24Y-93.175
X122.78Y-85.555
X122.78Y-93.175
X125.32Y-85.555
X125.32Y-93.175
X125.32Y-108.415
X127.86Y-85.555
X127.86Y-93.175
X127.86Y-98.255
X127.86Y-108.415
X130.4Y-85.555
X130.4Y-98.255
X130.4Y-108.415
X132.94Y-85.555
X132.94Y-93.175
X135.48Y-85.555
X135.48Y-93.175
X138.02Y-85.555
X138.02Y-108.415
X138.5Y-102.5
X138.5Y-103.5
X139.0Y-104.5
X140.56Y-85.555
X140.56Y-108.415
X143.1Y-108.415
X144.0Y-102.5
X145.0Y-105.5
X148.18Y-108.415
X150.72Y-108.415
X153.26Y-108.415
X155.8Y-105.875
X158.34Y-85.555
X158.34Y-88.095
X158.34Y-100.795
X158.34Y-103.335
X158.5Y-102.0
X160.0Y-102.0
X160.88Y-85.555
X160.88Y-88.095
X162.0Y-102.0
X163.0Y-103.5
X163.42Y-85.555
X163.42Y-88.095
X163.42Y-90.635
X165.96Y-85.555
X165.96Y-88.095
X165.96Y-90.635
X167.5Y-99.0
X168.0Y-107.5
X168.5Y-88.095
X168.5Y-90.635
X169.5Y-101.5
X169.5Y-103.0
X171.04Y-90.635
X173.58Y-88.095
X173.58Y-90.635
X173.58Y-98.255
X176.12Y-88.095
X176.12Y-98.255
X176.12Y-103.335
X178.66Y-98.255
X181.2Y-83.015
X181.2Y-85.555
X181.2Y-98.255
X181.2Y-103.335
X181.2Y-105.875
X181.2Y-108.415
X183.74Y-88.095
X183.74Y-93.175
X183.74Y-95.715
X183.74Y-98.255
X183.74Y-103.335
X186.28Y-88.095
X186.28Y-93.175
X186.28Y-95.715
X186.28Y-98.255
X186.28Y-103.335
X188.82Y-83.015
X188.82Y-95.715
X188.82Y-98.255
X188.82Y-103.335
X188.82Y-105.875
X188.82Y-108.415
X191.36Y-83.015
X191.36Y-85.555
X191.36Y-93.175
X191.36Y-95.715
X191.36Y-108.415
T2
X169.33Y-104.92
X169.33Y-106.08
X169.91Y-105.5
X170.49Y-104.92
X170.49Y-106.08
T3
X92.3Y-93.15
X92.3Y-95.69
X92.3Y-98.23
X96.49Y-84.5
X96.49Y-85.5
X99.49Y-85.5
X99.5Y-103.05
X102.49Y-86.5
X102.99Y-90.0
X104.44Y-91.45
X104.49Y-87.5
X105.5Y-103.0
X107.0Y-88.5
X108.49Y-88.5
X108.5Y-104.0
X113.49Y-102.5
X114.49Y-102.5
X123.5Y-100.5
X125.0Y-97.5
X125.0Y-100.5
X126.49Y-105.5
X140.49Y-102.0
X140.5Y-100.5
X142.5Y-86.5
X145.49Y-87.5
X145.49Y-89.5
X145.49Y-90.5
X145.5Y-86.5
X146.0Y-96.5
X150.49Y-100.5
X150.965Y-106.025
X150.99Y-102.0
X151.5Y-89.5
X151.5Y-90.5
X152.99Y-89.5
X154.09Y-89.5
X155.49Y-102.5
X156.0Y-95.5
X156.49Y-88.5
X156.49Y-89.5
X157.49Y-106.5
X164.5Y-95.5
X165.5Y-82.75
X174.49Y-104.5
X179.49Y-93.5
X180.0Y-95.0
T5
X92.49Y-83.5
X92.49Y-107.5
X184.5Y-83.5
X184.5Y-107.5
T4
G00X146.415Y-103.53
M15
G01X146.415Y-104.63
M16
G05
G00X146.415Y-107.85
M15
G01X146.415Y-108.65
M16
G05
G00X155.065Y-103.53
M15
G01X155.065Y-104.63
M16
G05
G00X155.065Y-107.85
M15
G01X155.065Y-108.65
M16
G05
M30
