%TF.GenerationSoftware,KiCad,Pcbnew,9.0.6*%
%TF.CreationDate,2025-12-22T23:17:33+09:00*%
%TF.ProjectId,CEI-TOOL,4345492d-544f-44f4-9c2e-6b696361645f,rev?*%
%TF.SameCoordinates,Original*%
%TF.FileFunction,Legend,Top*%
%TF.FilePolarity,Positive*%
%FSLAX46Y46*%
G04 Gerber Fmt 4.6, Leading zero omitted, Abs format (unit mm)*
G04 Created by KiCad (PCBNEW 9.0.6) date 2025-12-22 23:17:33*
%MOMM*%
%LPD*%
G01*
G04 APERTURE LIST*
%ADD10C,0.100000*%
%ADD11C,0.150000*%
%ADD12C,0.120000*%
%ADD13C,0.200000*%
%ADD14C,0.127000*%
%ADD15C,0.152400*%
G04 APERTURE END LIST*
D10*
X161637217Y-86848609D02*
X161780074Y-86896228D01*
X161780074Y-86896228D02*
X161827693Y-86943847D01*
X161827693Y-86943847D02*
X161875312Y-87039085D01*
X161875312Y-87039085D02*
X161875312Y-87181942D01*
X161875312Y-87181942D02*
X161827693Y-87277180D01*
X161827693Y-87277180D02*
X161780074Y-87324800D01*
X161780074Y-87324800D02*
X161684836Y-87372419D01*
X161684836Y-87372419D02*
X161303884Y-87372419D01*
X161303884Y-87372419D02*
X161303884Y-86372419D01*
X161303884Y-86372419D02*
X161637217Y-86372419D01*
X161637217Y-86372419D02*
X161732455Y-86420038D01*
X161732455Y-86420038D02*
X161780074Y-86467657D01*
X161780074Y-86467657D02*
X161827693Y-86562895D01*
X161827693Y-86562895D02*
X161827693Y-86658133D01*
X161827693Y-86658133D02*
X161780074Y-86753371D01*
X161780074Y-86753371D02*
X161732455Y-86800990D01*
X161732455Y-86800990D02*
X161637217Y-86848609D01*
X161637217Y-86848609D02*
X161303884Y-86848609D01*
X162161027Y-86372419D02*
X162732455Y-86372419D01*
X162446741Y-87372419D02*
X162446741Y-86372419D01*
X163065789Y-87372419D02*
X163065789Y-86372419D01*
X163065789Y-86372419D02*
X163637217Y-87372419D01*
X163637217Y-87372419D02*
X163637217Y-86372419D01*
X164161027Y-87324800D02*
X164161027Y-87372419D01*
X164161027Y-87372419D02*
X164113408Y-87467657D01*
X164113408Y-87467657D02*
X164065789Y-87515276D01*
X165113407Y-86420038D02*
X165018169Y-86372419D01*
X165018169Y-86372419D02*
X164875312Y-86372419D01*
X164875312Y-86372419D02*
X164732455Y-86420038D01*
X164732455Y-86420038D02*
X164637217Y-86515276D01*
X164637217Y-86515276D02*
X164589598Y-86610514D01*
X164589598Y-86610514D02*
X164541979Y-86800990D01*
X164541979Y-86800990D02*
X164541979Y-86943847D01*
X164541979Y-86943847D02*
X164589598Y-87134323D01*
X164589598Y-87134323D02*
X164637217Y-87229561D01*
X164637217Y-87229561D02*
X164732455Y-87324800D01*
X164732455Y-87324800D02*
X164875312Y-87372419D01*
X164875312Y-87372419D02*
X164970550Y-87372419D01*
X164970550Y-87372419D02*
X165113407Y-87324800D01*
X165113407Y-87324800D02*
X165161026Y-87277180D01*
X165161026Y-87277180D02*
X165161026Y-86943847D01*
X165161026Y-86943847D02*
X164970550Y-86943847D01*
X165589598Y-87372419D02*
X165589598Y-86372419D01*
X165589598Y-86372419D02*
X166161026Y-87372419D01*
X166161026Y-87372419D02*
X166161026Y-86372419D01*
X166637217Y-87372419D02*
X166637217Y-86372419D01*
X166637217Y-86372419D02*
X166875312Y-86372419D01*
X166875312Y-86372419D02*
X167018169Y-86420038D01*
X167018169Y-86420038D02*
X167113407Y-86515276D01*
X167113407Y-86515276D02*
X167161026Y-86610514D01*
X167161026Y-86610514D02*
X167208645Y-86800990D01*
X167208645Y-86800990D02*
X167208645Y-86943847D01*
X167208645Y-86943847D02*
X167161026Y-87134323D01*
X167161026Y-87134323D02*
X167113407Y-87229561D01*
X167113407Y-87229561D02*
X167018169Y-87324800D01*
X167018169Y-87324800D02*
X166875312Y-87372419D01*
X166875312Y-87372419D02*
X166637217Y-87372419D01*
X175327693Y-96920038D02*
X175232455Y-96872419D01*
X175232455Y-96872419D02*
X175089598Y-96872419D01*
X175089598Y-96872419D02*
X174946741Y-96920038D01*
X174946741Y-96920038D02*
X174851503Y-97015276D01*
X174851503Y-97015276D02*
X174803884Y-97110514D01*
X174803884Y-97110514D02*
X174756265Y-97300990D01*
X174756265Y-97300990D02*
X174756265Y-97443847D01*
X174756265Y-97443847D02*
X174803884Y-97634323D01*
X174803884Y-97634323D02*
X174851503Y-97729561D01*
X174851503Y-97729561D02*
X174946741Y-97824800D01*
X174946741Y-97824800D02*
X175089598Y-97872419D01*
X175089598Y-97872419D02*
X175184836Y-97872419D01*
X175184836Y-97872419D02*
X175327693Y-97824800D01*
X175327693Y-97824800D02*
X175375312Y-97777180D01*
X175375312Y-97777180D02*
X175375312Y-97443847D01*
X175375312Y-97443847D02*
X175184836Y-97443847D01*
X175803884Y-97872419D02*
X175803884Y-96872419D01*
X175803884Y-96872419D02*
X176375312Y-97872419D01*
X176375312Y-97872419D02*
X176375312Y-96872419D01*
X176851503Y-97872419D02*
X176851503Y-96872419D01*
X176851503Y-96872419D02*
X177089598Y-96872419D01*
X177089598Y-96872419D02*
X177232455Y-96920038D01*
X177232455Y-96920038D02*
X177327693Y-97015276D01*
X177327693Y-97015276D02*
X177375312Y-97110514D01*
X177375312Y-97110514D02*
X177422931Y-97300990D01*
X177422931Y-97300990D02*
X177422931Y-97443847D01*
X177422931Y-97443847D02*
X177375312Y-97634323D01*
X177375312Y-97634323D02*
X177327693Y-97729561D01*
X177327693Y-97729561D02*
X177232455Y-97824800D01*
X177232455Y-97824800D02*
X177089598Y-97872419D01*
X177089598Y-97872419D02*
X176851503Y-97872419D01*
X177899122Y-97824800D02*
X177899122Y-97872419D01*
X177899122Y-97872419D02*
X177851503Y-97967657D01*
X177851503Y-97967657D02*
X177803884Y-98015276D01*
X178232455Y-96872419D02*
X178851502Y-96872419D01*
X178851502Y-96872419D02*
X178518169Y-97253371D01*
X178518169Y-97253371D02*
X178661026Y-97253371D01*
X178661026Y-97253371D02*
X178756264Y-97300990D01*
X178756264Y-97300990D02*
X178803883Y-97348609D01*
X178803883Y-97348609D02*
X178851502Y-97443847D01*
X178851502Y-97443847D02*
X178851502Y-97681942D01*
X178851502Y-97681942D02*
X178803883Y-97777180D01*
X178803883Y-97777180D02*
X178756264Y-97824800D01*
X178756264Y-97824800D02*
X178661026Y-97872419D01*
X178661026Y-97872419D02*
X178375312Y-97872419D01*
X178375312Y-97872419D02*
X178280074Y-97824800D01*
X178280074Y-97824800D02*
X178232455Y-97777180D01*
X179137217Y-96872419D02*
X179470550Y-97872419D01*
X179470550Y-97872419D02*
X179803883Y-96872419D01*
X180041979Y-96872419D02*
X180661026Y-96872419D01*
X180661026Y-96872419D02*
X180327693Y-97253371D01*
X180327693Y-97253371D02*
X180470550Y-97253371D01*
X180470550Y-97253371D02*
X180565788Y-97300990D01*
X180565788Y-97300990D02*
X180613407Y-97348609D01*
X180613407Y-97348609D02*
X180661026Y-97443847D01*
X180661026Y-97443847D02*
X180661026Y-97681942D01*
X180661026Y-97681942D02*
X180613407Y-97777180D01*
X180613407Y-97777180D02*
X180565788Y-97824800D01*
X180565788Y-97824800D02*
X180470550Y-97872419D01*
X180470550Y-97872419D02*
X180184836Y-97872419D01*
X180184836Y-97872419D02*
X180089598Y-97824800D01*
X180089598Y-97824800D02*
X180041979Y-97777180D01*
X181137217Y-97824800D02*
X181137217Y-97872419D01*
X181137217Y-97872419D02*
X181089598Y-97967657D01*
X181089598Y-97967657D02*
X181041979Y-98015276D01*
X181518169Y-97824800D02*
X181661026Y-97872419D01*
X181661026Y-97872419D02*
X181899121Y-97872419D01*
X181899121Y-97872419D02*
X181994359Y-97824800D01*
X181994359Y-97824800D02*
X182041978Y-97777180D01*
X182041978Y-97777180D02*
X182089597Y-97681942D01*
X182089597Y-97681942D02*
X182089597Y-97586704D01*
X182089597Y-97586704D02*
X182041978Y-97491466D01*
X182041978Y-97491466D02*
X181994359Y-97443847D01*
X181994359Y-97443847D02*
X181899121Y-97396228D01*
X181899121Y-97396228D02*
X181708645Y-97348609D01*
X181708645Y-97348609D02*
X181613407Y-97300990D01*
X181613407Y-97300990D02*
X181565788Y-97253371D01*
X181565788Y-97253371D02*
X181518169Y-97158133D01*
X181518169Y-97158133D02*
X181518169Y-97062895D01*
X181518169Y-97062895D02*
X181565788Y-96967657D01*
X181565788Y-96967657D02*
X181613407Y-96920038D01*
X181613407Y-96920038D02*
X181708645Y-96872419D01*
X181708645Y-96872419D02*
X181946740Y-96872419D01*
X181946740Y-96872419D02*
X182089597Y-96920038D01*
X182518169Y-97872419D02*
X182518169Y-96872419D01*
X182518169Y-96872419D02*
X182756264Y-96872419D01*
X182756264Y-96872419D02*
X182899121Y-96920038D01*
X182899121Y-96920038D02*
X182994359Y-97015276D01*
X182994359Y-97015276D02*
X183041978Y-97110514D01*
X183041978Y-97110514D02*
X183089597Y-97300990D01*
X183089597Y-97300990D02*
X183089597Y-97443847D01*
X183089597Y-97443847D02*
X183041978Y-97634323D01*
X183041978Y-97634323D02*
X182994359Y-97729561D01*
X182994359Y-97729561D02*
X182899121Y-97824800D01*
X182899121Y-97824800D02*
X182756264Y-97872419D01*
X182756264Y-97872419D02*
X182518169Y-97872419D01*
X183470550Y-97586704D02*
X183946740Y-97586704D01*
X183375312Y-97872419D02*
X183708645Y-96872419D01*
X183708645Y-96872419D02*
X184041978Y-97872419D01*
X184422931Y-97824800D02*
X184422931Y-97872419D01*
X184422931Y-97872419D02*
X184375312Y-97967657D01*
X184375312Y-97967657D02*
X184327693Y-98015276D01*
X184803883Y-97824800D02*
X184946740Y-97872419D01*
X184946740Y-97872419D02*
X185184835Y-97872419D01*
X185184835Y-97872419D02*
X185280073Y-97824800D01*
X185280073Y-97824800D02*
X185327692Y-97777180D01*
X185327692Y-97777180D02*
X185375311Y-97681942D01*
X185375311Y-97681942D02*
X185375311Y-97586704D01*
X185375311Y-97586704D02*
X185327692Y-97491466D01*
X185327692Y-97491466D02*
X185280073Y-97443847D01*
X185280073Y-97443847D02*
X185184835Y-97396228D01*
X185184835Y-97396228D02*
X184994359Y-97348609D01*
X184994359Y-97348609D02*
X184899121Y-97300990D01*
X184899121Y-97300990D02*
X184851502Y-97253371D01*
X184851502Y-97253371D02*
X184803883Y-97158133D01*
X184803883Y-97158133D02*
X184803883Y-97062895D01*
X184803883Y-97062895D02*
X184851502Y-96967657D01*
X184851502Y-96967657D02*
X184899121Y-96920038D01*
X184899121Y-96920038D02*
X184994359Y-96872419D01*
X184994359Y-96872419D02*
X185232454Y-96872419D01*
X185232454Y-96872419D02*
X185375311Y-96920038D01*
X186375311Y-97777180D02*
X186327692Y-97824800D01*
X186327692Y-97824800D02*
X186184835Y-97872419D01*
X186184835Y-97872419D02*
X186089597Y-97872419D01*
X186089597Y-97872419D02*
X185946740Y-97824800D01*
X185946740Y-97824800D02*
X185851502Y-97729561D01*
X185851502Y-97729561D02*
X185803883Y-97634323D01*
X185803883Y-97634323D02*
X185756264Y-97443847D01*
X185756264Y-97443847D02*
X185756264Y-97300990D01*
X185756264Y-97300990D02*
X185803883Y-97110514D01*
X185803883Y-97110514D02*
X185851502Y-97015276D01*
X185851502Y-97015276D02*
X185946740Y-96920038D01*
X185946740Y-96920038D02*
X186089597Y-96872419D01*
X186089597Y-96872419D02*
X186184835Y-96872419D01*
X186184835Y-96872419D02*
X186327692Y-96920038D01*
X186327692Y-96920038D02*
X186375311Y-96967657D01*
X187280073Y-97872419D02*
X186803883Y-97872419D01*
X186803883Y-97872419D02*
X186803883Y-96872419D01*
X192303884Y-106491466D02*
X193065789Y-106491466D01*
X192303884Y-95491466D02*
X193065789Y-95491466D01*
X192684836Y-95872419D02*
X192684836Y-95110514D01*
X120137217Y-83848609D02*
X120280074Y-83896228D01*
X120280074Y-83896228D02*
X120327693Y-83943847D01*
X120327693Y-83943847D02*
X120375312Y-84039085D01*
X120375312Y-84039085D02*
X120375312Y-84181942D01*
X120375312Y-84181942D02*
X120327693Y-84277180D01*
X120327693Y-84277180D02*
X120280074Y-84324800D01*
X120280074Y-84324800D02*
X120184836Y-84372419D01*
X120184836Y-84372419D02*
X119803884Y-84372419D01*
X119803884Y-84372419D02*
X119803884Y-83372419D01*
X119803884Y-83372419D02*
X120137217Y-83372419D01*
X120137217Y-83372419D02*
X120232455Y-83420038D01*
X120232455Y-83420038D02*
X120280074Y-83467657D01*
X120280074Y-83467657D02*
X120327693Y-83562895D01*
X120327693Y-83562895D02*
X120327693Y-83658133D01*
X120327693Y-83658133D02*
X120280074Y-83753371D01*
X120280074Y-83753371D02*
X120232455Y-83800990D01*
X120232455Y-83800990D02*
X120137217Y-83848609D01*
X120137217Y-83848609D02*
X119803884Y-83848609D01*
X120994360Y-83896228D02*
X120994360Y-84372419D01*
X120661027Y-83372419D02*
X120994360Y-83896228D01*
X120994360Y-83896228D02*
X121327693Y-83372419D01*
X121708646Y-84324800D02*
X121708646Y-84372419D01*
X121708646Y-84372419D02*
X121661027Y-84467657D01*
X121661027Y-84467657D02*
X121613408Y-84515276D01*
X122708645Y-84372419D02*
X122375312Y-83896228D01*
X122137217Y-84372419D02*
X122137217Y-83372419D01*
X122137217Y-83372419D02*
X122518169Y-83372419D01*
X122518169Y-83372419D02*
X122613407Y-83420038D01*
X122613407Y-83420038D02*
X122661026Y-83467657D01*
X122661026Y-83467657D02*
X122708645Y-83562895D01*
X122708645Y-83562895D02*
X122708645Y-83705752D01*
X122708645Y-83705752D02*
X122661026Y-83800990D01*
X122661026Y-83800990D02*
X122613407Y-83848609D01*
X122613407Y-83848609D02*
X122518169Y-83896228D01*
X122518169Y-83896228D02*
X122137217Y-83896228D01*
X123089598Y-84324800D02*
X123232455Y-84372419D01*
X123232455Y-84372419D02*
X123470550Y-84372419D01*
X123470550Y-84372419D02*
X123565788Y-84324800D01*
X123565788Y-84324800D02*
X123613407Y-84277180D01*
X123613407Y-84277180D02*
X123661026Y-84181942D01*
X123661026Y-84181942D02*
X123661026Y-84086704D01*
X123661026Y-84086704D02*
X123613407Y-83991466D01*
X123613407Y-83991466D02*
X123565788Y-83943847D01*
X123565788Y-83943847D02*
X123470550Y-83896228D01*
X123470550Y-83896228D02*
X123280074Y-83848609D01*
X123280074Y-83848609D02*
X123184836Y-83800990D01*
X123184836Y-83800990D02*
X123137217Y-83753371D01*
X123137217Y-83753371D02*
X123089598Y-83658133D01*
X123089598Y-83658133D02*
X123089598Y-83562895D01*
X123089598Y-83562895D02*
X123137217Y-83467657D01*
X123137217Y-83467657D02*
X123184836Y-83420038D01*
X123184836Y-83420038D02*
X123280074Y-83372419D01*
X123280074Y-83372419D02*
X123518169Y-83372419D01*
X123518169Y-83372419D02*
X123661026Y-83420038D01*
X123946741Y-83372419D02*
X124518169Y-83372419D01*
X124232455Y-84372419D02*
X124232455Y-83372419D01*
X124899122Y-84324800D02*
X124899122Y-84372419D01*
X124899122Y-84372419D02*
X124851503Y-84467657D01*
X124851503Y-84467657D02*
X124803884Y-84515276D01*
X125327693Y-84372419D02*
X125327693Y-83372419D01*
X125327693Y-83372419D02*
X125565788Y-83372419D01*
X125565788Y-83372419D02*
X125708645Y-83420038D01*
X125708645Y-83420038D02*
X125803883Y-83515276D01*
X125803883Y-83515276D02*
X125851502Y-83610514D01*
X125851502Y-83610514D02*
X125899121Y-83800990D01*
X125899121Y-83800990D02*
X125899121Y-83943847D01*
X125899121Y-83943847D02*
X125851502Y-84134323D01*
X125851502Y-84134323D02*
X125803883Y-84229561D01*
X125803883Y-84229561D02*
X125708645Y-84324800D01*
X125708645Y-84324800D02*
X125565788Y-84372419D01*
X125565788Y-84372419D02*
X125327693Y-84372419D01*
X126899121Y-84277180D02*
X126851502Y-84324800D01*
X126851502Y-84324800D02*
X126708645Y-84372419D01*
X126708645Y-84372419D02*
X126613407Y-84372419D01*
X126613407Y-84372419D02*
X126470550Y-84324800D01*
X126470550Y-84324800D02*
X126375312Y-84229561D01*
X126375312Y-84229561D02*
X126327693Y-84134323D01*
X126327693Y-84134323D02*
X126280074Y-83943847D01*
X126280074Y-83943847D02*
X126280074Y-83800990D01*
X126280074Y-83800990D02*
X126327693Y-83610514D01*
X126327693Y-83610514D02*
X126375312Y-83515276D01*
X126375312Y-83515276D02*
X126470550Y-83420038D01*
X126470550Y-83420038D02*
X126613407Y-83372419D01*
X126613407Y-83372419D02*
X126708645Y-83372419D01*
X126708645Y-83372419D02*
X126851502Y-83420038D01*
X126851502Y-83420038D02*
X126899121Y-83467657D01*
X127375312Y-84324800D02*
X127375312Y-84372419D01*
X127375312Y-84372419D02*
X127327693Y-84467657D01*
X127327693Y-84467657D02*
X127280074Y-84515276D01*
X128375311Y-84277180D02*
X128327692Y-84324800D01*
X128327692Y-84324800D02*
X128184835Y-84372419D01*
X128184835Y-84372419D02*
X128089597Y-84372419D01*
X128089597Y-84372419D02*
X127946740Y-84324800D01*
X127946740Y-84324800D02*
X127851502Y-84229561D01*
X127851502Y-84229561D02*
X127803883Y-84134323D01*
X127803883Y-84134323D02*
X127756264Y-83943847D01*
X127756264Y-83943847D02*
X127756264Y-83800990D01*
X127756264Y-83800990D02*
X127803883Y-83610514D01*
X127803883Y-83610514D02*
X127851502Y-83515276D01*
X127851502Y-83515276D02*
X127946740Y-83420038D01*
X127946740Y-83420038D02*
X128089597Y-83372419D01*
X128089597Y-83372419D02*
X128184835Y-83372419D01*
X128184835Y-83372419D02*
X128327692Y-83420038D01*
X128327692Y-83420038D02*
X128375311Y-83467657D01*
X128756264Y-84324800D02*
X128899121Y-84372419D01*
X128899121Y-84372419D02*
X129137216Y-84372419D01*
X129137216Y-84372419D02*
X129232454Y-84324800D01*
X129232454Y-84324800D02*
X129280073Y-84277180D01*
X129280073Y-84277180D02*
X129327692Y-84181942D01*
X129327692Y-84181942D02*
X129327692Y-84086704D01*
X129327692Y-84086704D02*
X129280073Y-83991466D01*
X129280073Y-83991466D02*
X129232454Y-83943847D01*
X129232454Y-83943847D02*
X129137216Y-83896228D01*
X129137216Y-83896228D02*
X128946740Y-83848609D01*
X128946740Y-83848609D02*
X128851502Y-83800990D01*
X128851502Y-83800990D02*
X128803883Y-83753371D01*
X128803883Y-83753371D02*
X128756264Y-83658133D01*
X128756264Y-83658133D02*
X128756264Y-83562895D01*
X128756264Y-83562895D02*
X128803883Y-83467657D01*
X128803883Y-83467657D02*
X128851502Y-83420038D01*
X128851502Y-83420038D02*
X128946740Y-83372419D01*
X128946740Y-83372419D02*
X129184835Y-83372419D01*
X129184835Y-83372419D02*
X129327692Y-83420038D01*
X129803883Y-84324800D02*
X129803883Y-84372419D01*
X129803883Y-84372419D02*
X129756264Y-84467657D01*
X129756264Y-84467657D02*
X129708645Y-84515276D01*
X130184835Y-84324800D02*
X130327692Y-84372419D01*
X130327692Y-84372419D02*
X130565787Y-84372419D01*
X130565787Y-84372419D02*
X130661025Y-84324800D01*
X130661025Y-84324800D02*
X130708644Y-84277180D01*
X130708644Y-84277180D02*
X130756263Y-84181942D01*
X130756263Y-84181942D02*
X130756263Y-84086704D01*
X130756263Y-84086704D02*
X130708644Y-83991466D01*
X130708644Y-83991466D02*
X130661025Y-83943847D01*
X130661025Y-83943847D02*
X130565787Y-83896228D01*
X130565787Y-83896228D02*
X130375311Y-83848609D01*
X130375311Y-83848609D02*
X130280073Y-83800990D01*
X130280073Y-83800990D02*
X130232454Y-83753371D01*
X130232454Y-83753371D02*
X130184835Y-83658133D01*
X130184835Y-83658133D02*
X130184835Y-83562895D01*
X130184835Y-83562895D02*
X130232454Y-83467657D01*
X130232454Y-83467657D02*
X130280073Y-83420038D01*
X130280073Y-83420038D02*
X130375311Y-83372419D01*
X130375311Y-83372419D02*
X130613406Y-83372419D01*
X130613406Y-83372419D02*
X130756263Y-83420038D01*
X131756263Y-84277180D02*
X131708644Y-84324800D01*
X131708644Y-84324800D02*
X131565787Y-84372419D01*
X131565787Y-84372419D02*
X131470549Y-84372419D01*
X131470549Y-84372419D02*
X131327692Y-84324800D01*
X131327692Y-84324800D02*
X131232454Y-84229561D01*
X131232454Y-84229561D02*
X131184835Y-84134323D01*
X131184835Y-84134323D02*
X131137216Y-83943847D01*
X131137216Y-83943847D02*
X131137216Y-83800990D01*
X131137216Y-83800990D02*
X131184835Y-83610514D01*
X131184835Y-83610514D02*
X131232454Y-83515276D01*
X131232454Y-83515276D02*
X131327692Y-83420038D01*
X131327692Y-83420038D02*
X131470549Y-83372419D01*
X131470549Y-83372419D02*
X131565787Y-83372419D01*
X131565787Y-83372419D02*
X131708644Y-83420038D01*
X131708644Y-83420038D02*
X131756263Y-83467657D01*
X132184835Y-84372419D02*
X132184835Y-83372419D01*
X132756263Y-84372419D02*
X132327692Y-83800990D01*
X132756263Y-83372419D02*
X132184835Y-83943847D01*
X133232454Y-84324800D02*
X133232454Y-84372419D01*
X133232454Y-84372419D02*
X133184835Y-84467657D01*
X133184835Y-84467657D02*
X133137216Y-84515276D01*
X133661025Y-84372419D02*
X133661025Y-83372419D01*
X133661025Y-83372419D02*
X133994358Y-84086704D01*
X133994358Y-84086704D02*
X134327691Y-83372419D01*
X134327691Y-83372419D02*
X134327691Y-84372419D01*
X134803882Y-84372419D02*
X134803882Y-83372419D01*
X135232453Y-84324800D02*
X135375310Y-84372419D01*
X135375310Y-84372419D02*
X135613405Y-84372419D01*
X135613405Y-84372419D02*
X135708643Y-84324800D01*
X135708643Y-84324800D02*
X135756262Y-84277180D01*
X135756262Y-84277180D02*
X135803881Y-84181942D01*
X135803881Y-84181942D02*
X135803881Y-84086704D01*
X135803881Y-84086704D02*
X135756262Y-83991466D01*
X135756262Y-83991466D02*
X135708643Y-83943847D01*
X135708643Y-83943847D02*
X135613405Y-83896228D01*
X135613405Y-83896228D02*
X135422929Y-83848609D01*
X135422929Y-83848609D02*
X135327691Y-83800990D01*
X135327691Y-83800990D02*
X135280072Y-83753371D01*
X135280072Y-83753371D02*
X135232453Y-83658133D01*
X135232453Y-83658133D02*
X135232453Y-83562895D01*
X135232453Y-83562895D02*
X135280072Y-83467657D01*
X135280072Y-83467657D02*
X135327691Y-83420038D01*
X135327691Y-83420038D02*
X135422929Y-83372419D01*
X135422929Y-83372419D02*
X135661024Y-83372419D01*
X135661024Y-83372419D02*
X135803881Y-83420038D01*
X136422929Y-83372419D02*
X136613405Y-83372419D01*
X136613405Y-83372419D02*
X136708643Y-83420038D01*
X136708643Y-83420038D02*
X136803881Y-83515276D01*
X136803881Y-83515276D02*
X136851500Y-83705752D01*
X136851500Y-83705752D02*
X136851500Y-84039085D01*
X136851500Y-84039085D02*
X136803881Y-84229561D01*
X136803881Y-84229561D02*
X136708643Y-84324800D01*
X136708643Y-84324800D02*
X136613405Y-84372419D01*
X136613405Y-84372419D02*
X136422929Y-84372419D01*
X136422929Y-84372419D02*
X136327691Y-84324800D01*
X136327691Y-84324800D02*
X136232453Y-84229561D01*
X136232453Y-84229561D02*
X136184834Y-84039085D01*
X136184834Y-84039085D02*
X136184834Y-83705752D01*
X136184834Y-83705752D02*
X136232453Y-83515276D01*
X136232453Y-83515276D02*
X136327691Y-83420038D01*
X136327691Y-83420038D02*
X136422929Y-83372419D01*
X137327691Y-84324800D02*
X137327691Y-84372419D01*
X137327691Y-84372419D02*
X137280072Y-84467657D01*
X137280072Y-84467657D02*
X137232453Y-84515276D01*
X138280071Y-83420038D02*
X138184833Y-83372419D01*
X138184833Y-83372419D02*
X138041976Y-83372419D01*
X138041976Y-83372419D02*
X137899119Y-83420038D01*
X137899119Y-83420038D02*
X137803881Y-83515276D01*
X137803881Y-83515276D02*
X137756262Y-83610514D01*
X137756262Y-83610514D02*
X137708643Y-83800990D01*
X137708643Y-83800990D02*
X137708643Y-83943847D01*
X137708643Y-83943847D02*
X137756262Y-84134323D01*
X137756262Y-84134323D02*
X137803881Y-84229561D01*
X137803881Y-84229561D02*
X137899119Y-84324800D01*
X137899119Y-84324800D02*
X138041976Y-84372419D01*
X138041976Y-84372419D02*
X138137214Y-84372419D01*
X138137214Y-84372419D02*
X138280071Y-84324800D01*
X138280071Y-84324800D02*
X138327690Y-84277180D01*
X138327690Y-84277180D02*
X138327690Y-83943847D01*
X138327690Y-83943847D02*
X138137214Y-83943847D01*
X138756262Y-84372419D02*
X138756262Y-83372419D01*
X138756262Y-83372419D02*
X139327690Y-84372419D01*
X139327690Y-84372419D02*
X139327690Y-83372419D01*
X139803881Y-84372419D02*
X139803881Y-83372419D01*
X139803881Y-83372419D02*
X140041976Y-83372419D01*
X140041976Y-83372419D02*
X140184833Y-83420038D01*
X140184833Y-83420038D02*
X140280071Y-83515276D01*
X140280071Y-83515276D02*
X140327690Y-83610514D01*
X140327690Y-83610514D02*
X140375309Y-83800990D01*
X140375309Y-83800990D02*
X140375309Y-83943847D01*
X140375309Y-83943847D02*
X140327690Y-84134323D01*
X140327690Y-84134323D02*
X140280071Y-84229561D01*
X140280071Y-84229561D02*
X140184833Y-84324800D01*
X140184833Y-84324800D02*
X140041976Y-84372419D01*
X140041976Y-84372419D02*
X139803881Y-84372419D01*
X140851500Y-84324800D02*
X140851500Y-84372419D01*
X140851500Y-84372419D02*
X140803881Y-84467657D01*
X140803881Y-84467657D02*
X140756262Y-84515276D01*
X141184833Y-83372419D02*
X141803880Y-83372419D01*
X141803880Y-83372419D02*
X141470547Y-83753371D01*
X141470547Y-83753371D02*
X141613404Y-83753371D01*
X141613404Y-83753371D02*
X141708642Y-83800990D01*
X141708642Y-83800990D02*
X141756261Y-83848609D01*
X141756261Y-83848609D02*
X141803880Y-83943847D01*
X141803880Y-83943847D02*
X141803880Y-84181942D01*
X141803880Y-84181942D02*
X141756261Y-84277180D01*
X141756261Y-84277180D02*
X141708642Y-84324800D01*
X141708642Y-84324800D02*
X141613404Y-84372419D01*
X141613404Y-84372419D02*
X141327690Y-84372419D01*
X141327690Y-84372419D02*
X141232452Y-84324800D01*
X141232452Y-84324800D02*
X141184833Y-84277180D01*
X142089595Y-83372419D02*
X142422928Y-84372419D01*
X142422928Y-84372419D02*
X142756261Y-83372419D01*
X142994357Y-83372419D02*
X143613404Y-83372419D01*
X143613404Y-83372419D02*
X143280071Y-83753371D01*
X143280071Y-83753371D02*
X143422928Y-83753371D01*
X143422928Y-83753371D02*
X143518166Y-83800990D01*
X143518166Y-83800990D02*
X143565785Y-83848609D01*
X143565785Y-83848609D02*
X143613404Y-83943847D01*
X143613404Y-83943847D02*
X143613404Y-84181942D01*
X143613404Y-84181942D02*
X143565785Y-84277180D01*
X143565785Y-84277180D02*
X143518166Y-84324800D01*
X143518166Y-84324800D02*
X143422928Y-84372419D01*
X143422928Y-84372419D02*
X143137214Y-84372419D01*
X143137214Y-84372419D02*
X143041976Y-84324800D01*
X143041976Y-84324800D02*
X142994357Y-84277180D01*
X89490000Y-88850000D02*
X89990000Y-88850000D01*
D11*
X87559104Y-100211905D02*
X87559104Y-99735715D01*
X87844819Y-100307143D02*
X86844819Y-99973810D01*
X86844819Y-99973810D02*
X87844819Y-99640477D01*
X87178152Y-99307143D02*
X87844819Y-99307143D01*
X87273390Y-99307143D02*
X87225771Y-99259524D01*
X87225771Y-99259524D02*
X87178152Y-99164286D01*
X87178152Y-99164286D02*
X87178152Y-99021429D01*
X87178152Y-99021429D02*
X87225771Y-98926191D01*
X87225771Y-98926191D02*
X87321009Y-98878572D01*
X87321009Y-98878572D02*
X87844819Y-98878572D01*
X87178152Y-98545238D02*
X87178152Y-98164286D01*
X86844819Y-98402381D02*
X87701961Y-98402381D01*
X87701961Y-98402381D02*
X87797200Y-98354762D01*
X87797200Y-98354762D02*
X87844819Y-98259524D01*
X87844819Y-98259524D02*
X87844819Y-98164286D01*
X87797200Y-97450000D02*
X87844819Y-97545238D01*
X87844819Y-97545238D02*
X87844819Y-97735714D01*
X87844819Y-97735714D02*
X87797200Y-97830952D01*
X87797200Y-97830952D02*
X87701961Y-97878571D01*
X87701961Y-97878571D02*
X87321009Y-97878571D01*
X87321009Y-97878571D02*
X87225771Y-97830952D01*
X87225771Y-97830952D02*
X87178152Y-97735714D01*
X87178152Y-97735714D02*
X87178152Y-97545238D01*
X87178152Y-97545238D02*
X87225771Y-97450000D01*
X87225771Y-97450000D02*
X87321009Y-97402381D01*
X87321009Y-97402381D02*
X87416247Y-97402381D01*
X87416247Y-97402381D02*
X87511485Y-97878571D01*
X87178152Y-96973809D02*
X87844819Y-96973809D01*
X87273390Y-96973809D02*
X87225771Y-96926190D01*
X87225771Y-96926190D02*
X87178152Y-96830952D01*
X87178152Y-96830952D02*
X87178152Y-96688095D01*
X87178152Y-96688095D02*
X87225771Y-96592857D01*
X87225771Y-96592857D02*
X87321009Y-96545238D01*
X87321009Y-96545238D02*
X87844819Y-96545238D01*
X87178152Y-96069047D02*
X87844819Y-96069047D01*
X87273390Y-96069047D02*
X87225771Y-96021428D01*
X87225771Y-96021428D02*
X87178152Y-95926190D01*
X87178152Y-95926190D02*
X87178152Y-95783333D01*
X87178152Y-95783333D02*
X87225771Y-95688095D01*
X87225771Y-95688095D02*
X87321009Y-95640476D01*
X87321009Y-95640476D02*
X87844819Y-95640476D01*
X87844819Y-94735714D02*
X87321009Y-94735714D01*
X87321009Y-94735714D02*
X87225771Y-94783333D01*
X87225771Y-94783333D02*
X87178152Y-94878571D01*
X87178152Y-94878571D02*
X87178152Y-95069047D01*
X87178152Y-95069047D02*
X87225771Y-95164285D01*
X87797200Y-94735714D02*
X87844819Y-94830952D01*
X87844819Y-94830952D02*
X87844819Y-95069047D01*
X87844819Y-95069047D02*
X87797200Y-95164285D01*
X87797200Y-95164285D02*
X87701961Y-95211904D01*
X87701961Y-95211904D02*
X87606723Y-95211904D01*
X87606723Y-95211904D02*
X87511485Y-95164285D01*
X87511485Y-95164285D02*
X87463866Y-95069047D01*
X87463866Y-95069047D02*
X87463866Y-94830952D01*
X87463866Y-94830952D02*
X87416247Y-94735714D01*
X87559104Y-93545237D02*
X87559104Y-93069047D01*
X87844819Y-93640475D02*
X86844819Y-93307142D01*
X86844819Y-93307142D02*
X87844819Y-92973809D01*
X87844819Y-92640475D02*
X87178152Y-92640475D01*
X87368628Y-92640475D02*
X87273390Y-92592856D01*
X87273390Y-92592856D02*
X87225771Y-92545237D01*
X87225771Y-92545237D02*
X87178152Y-92449999D01*
X87178152Y-92449999D02*
X87178152Y-92354761D01*
X87797200Y-91640475D02*
X87844819Y-91735713D01*
X87844819Y-91735713D02*
X87844819Y-91926189D01*
X87844819Y-91926189D02*
X87797200Y-92021427D01*
X87797200Y-92021427D02*
X87701961Y-92069046D01*
X87701961Y-92069046D02*
X87321009Y-92069046D01*
X87321009Y-92069046D02*
X87225771Y-92021427D01*
X87225771Y-92021427D02*
X87178152Y-91926189D01*
X87178152Y-91926189D02*
X87178152Y-91735713D01*
X87178152Y-91735713D02*
X87225771Y-91640475D01*
X87225771Y-91640475D02*
X87321009Y-91592856D01*
X87321009Y-91592856D02*
X87416247Y-91592856D01*
X87416247Y-91592856D02*
X87511485Y-92069046D01*
X87844819Y-90735713D02*
X87321009Y-90735713D01*
X87321009Y-90735713D02*
X87225771Y-90783332D01*
X87225771Y-90783332D02*
X87178152Y-90878570D01*
X87178152Y-90878570D02*
X87178152Y-91069046D01*
X87178152Y-91069046D02*
X87225771Y-91164284D01*
X87797200Y-90735713D02*
X87844819Y-90830951D01*
X87844819Y-90830951D02*
X87844819Y-91069046D01*
X87844819Y-91069046D02*
X87797200Y-91164284D01*
X87797200Y-91164284D02*
X87701961Y-91211903D01*
X87701961Y-91211903D02*
X87606723Y-91211903D01*
X87606723Y-91211903D02*
X87511485Y-91164284D01*
X87511485Y-91164284D02*
X87463866Y-91069046D01*
X87463866Y-91069046D02*
X87463866Y-90830951D01*
X87463866Y-90830951D02*
X87416247Y-90735713D01*
D12*
%TO.C,C11*%
X98634420Y-107010000D02*
X98915580Y-107010000D01*
X98634420Y-105990000D02*
X98915580Y-105990000D01*
D13*
%TO.C,J1*%
X147640000Y-102250000D02*
G75*
G02*
X147440000Y-102250000I-100000J0D01*
G01*
X147440000Y-102250000D02*
G75*
G02*
X147640000Y-102250000I100000J0D01*
G01*
D14*
X155210000Y-110850000D02*
X155210000Y-109420000D01*
X155210000Y-105400000D02*
X155210000Y-107080000D01*
X146270000Y-110850000D02*
X155210000Y-110850000D01*
X146270000Y-110850000D02*
X146270000Y-109420000D01*
X146270000Y-105400000D02*
X146270000Y-107080000D01*
D15*
%TO.C,J2*%
X193164300Y-94042200D02*
X193164300Y-92315000D01*
X193164300Y-87235000D02*
X193164300Y-85507800D01*
X193164300Y-85507800D02*
X190167100Y-85507800D01*
X190167100Y-94042200D02*
X193164300Y-94042200D01*
X188414500Y-85507800D02*
X188058900Y-85507800D01*
X188058900Y-94042200D02*
X188414500Y-94042200D01*
X188058900Y-85507800D02*
X188058900Y-94042200D01*
D13*
%TO.C,J6*%
X185690000Y-100050000D02*
G75*
G02*
X185490000Y-100050000I-100000J0D01*
G01*
X185490000Y-100050000D02*
G75*
G02*
X185690000Y-100050000I100000J0D01*
G01*
D14*
X193750000Y-105025000D02*
X193070000Y-105025000D01*
X193750000Y-97075000D02*
X193750000Y-105025000D01*
X193070000Y-97075000D02*
X193750000Y-97075000D01*
X188750000Y-105025000D02*
X189430000Y-105025000D01*
X188750000Y-105025000D02*
X188750000Y-102870000D01*
X188750000Y-99230000D02*
X188750000Y-97075000D01*
X188750000Y-97075000D02*
X189430000Y-97075000D01*
D12*
%TO.C,R15*%
X103412258Y-103977500D02*
X102937742Y-103977500D01*
X103412258Y-105022500D02*
X102937742Y-105022500D01*
%TO.C,U1*%
X84740000Y-88650000D02*
X85340000Y-88650000D01*
X84740000Y-89400000D02*
X84740000Y-88650000D01*
X84740000Y-101375000D02*
X84740000Y-102225000D01*
X84940000Y-88850000D02*
X101540000Y-88850000D01*
X84940000Y-102050000D02*
X84940000Y-88850000D01*
X90340000Y-102050000D02*
X90340000Y-88850000D01*
X100940000Y-88650000D02*
X101740000Y-88650000D01*
X100940000Y-102250000D02*
X101740000Y-102250000D01*
X101540000Y-88850000D02*
X101540000Y-102050000D01*
X101540000Y-102050000D02*
X84940000Y-102050000D01*
X101740000Y-88650000D02*
X101740000Y-89450000D01*
X101740000Y-102250000D02*
X101740000Y-101450000D01*
%TO.C,C1*%
X164915580Y-100510000D02*
X164634420Y-100510000D01*
X164915580Y-99490000D02*
X164634420Y-99490000D01*
%TO.C,C2*%
X160405580Y-109010000D02*
X160124420Y-109010000D01*
X160405580Y-107990000D02*
X160124420Y-107990000D01*
%TO.C,C3*%
X174134420Y-106490000D02*
X174415580Y-106490000D01*
X174134420Y-107510000D02*
X174415580Y-107510000D01*
%TO.C,C4*%
X122634420Y-107990000D02*
X122915580Y-107990000D01*
X122634420Y-109010000D02*
X122915580Y-109010000D01*
%TO.C,C5*%
X113574420Y-109010000D02*
X113855580Y-109010000D01*
X113574420Y-107990000D02*
X113855580Y-107990000D01*
%TO.C,C6*%
X98915580Y-105010000D02*
X98634420Y-105010000D01*
X98915580Y-103990000D02*
X98634420Y-103990000D01*
%TO.C,C7*%
X177640580Y-87010000D02*
X177359420Y-87010000D01*
X177640580Y-85990000D02*
X177359420Y-85990000D01*
%TO.C,C8*%
X109865580Y-103010000D02*
X109584420Y-103010000D01*
X109865580Y-101990000D02*
X109584420Y-101990000D01*
%TO.C,C9*%
X177640580Y-83010000D02*
X177359420Y-83010000D01*
X177640580Y-81990000D02*
X177359420Y-81990000D01*
%TO.C,C10*%
X159349420Y-90010000D02*
X159630580Y-90010000D01*
X159349420Y-88990000D02*
X159630580Y-88990000D01*
D10*
%TO.C,D1*%
X168000000Y-92125000D02*
X166000000Y-92125000D01*
X166000000Y-93875000D02*
X168000000Y-93875000D01*
D13*
%TO.C,J4*%
X170350000Y-90050000D02*
G75*
G02*
X170150000Y-90050000I-100000J0D01*
G01*
X170150000Y-90050000D02*
G75*
G02*
X170350000Y-90050000I100000J0D01*
G01*
D14*
X173750000Y-88000000D02*
X172120000Y-88000000D01*
X173750000Y-86570000D02*
X173750000Y-88000000D01*
X172530000Y-83750000D02*
X169220000Y-83750000D01*
X169630000Y-88000000D02*
X168000000Y-88000000D01*
X168000000Y-88000000D02*
X168000000Y-86570000D01*
D13*
%TO.C,P1*%
X147015000Y-86575000D02*
G75*
G02*
X146815000Y-86575000I-100000J0D01*
G01*
X146815000Y-86575000D02*
G75*
G02*
X147015000Y-86575000I100000J0D01*
G01*
D14*
X158840000Y-85675000D02*
X157190000Y-85675000D01*
X158840000Y-84225000D02*
X158840000Y-85675000D01*
X157640000Y-81425000D02*
X146790000Y-81425000D01*
X147240000Y-85675000D02*
X145590000Y-85675000D01*
X145590000Y-84225000D02*
X145590000Y-85675000D01*
D12*
%TO.C,R1*%
X160087742Y-103977500D02*
X160562258Y-103977500D01*
X160087742Y-105022500D02*
X160562258Y-105022500D01*
%TO.C,R3*%
X164912258Y-104022500D02*
X164437742Y-104022500D01*
X164912258Y-102977500D02*
X164437742Y-102977500D01*
%TO.C,R4*%
X134912258Y-108022500D02*
X134437742Y-108022500D01*
X134912258Y-106977500D02*
X134437742Y-106977500D01*
%TO.C,R5*%
X164912258Y-102522500D02*
X164437742Y-102522500D01*
X164912258Y-101477500D02*
X164437742Y-101477500D01*
%TO.C,R6*%
X156087742Y-101022500D02*
X156562258Y-101022500D01*
X156087742Y-99977500D02*
X156562258Y-99977500D01*
%TO.C,R7*%
X174252742Y-102022500D02*
X174727258Y-102022500D01*
X174252742Y-100977500D02*
X174727258Y-100977500D01*
D13*
%TO.C,S1*%
X104850000Y-105500000D02*
G75*
G02*
X104650000Y-105500000I-100000J0D01*
G01*
X104650000Y-105500000D02*
G75*
G02*
X104850000Y-105500000I100000J0D01*
G01*
D14*
X109950000Y-106950000D02*
X106050000Y-106950000D01*
X109950000Y-106513500D02*
X109950000Y-106950000D01*
X109950000Y-104050000D02*
X109950000Y-104486500D01*
X106050000Y-106950000D02*
X106050000Y-106513500D01*
X106050000Y-104486500D02*
X106050000Y-104050000D01*
X106050000Y-104050000D02*
X109950000Y-104050000D01*
D13*
%TO.C,S2*%
X104850000Y-85000000D02*
G75*
G02*
X104650000Y-85000000I-100000J0D01*
G01*
X104650000Y-85000000D02*
G75*
G02*
X104850000Y-85000000I100000J0D01*
G01*
D14*
X109950000Y-86450000D02*
X106050000Y-86450000D01*
X109950000Y-86013500D02*
X109950000Y-86450000D01*
X109950000Y-83550000D02*
X109950000Y-83986500D01*
X106050000Y-86450000D02*
X106050000Y-86013500D01*
X106050000Y-83986500D02*
X106050000Y-83550000D01*
X106050000Y-83550000D02*
X109950000Y-83550000D01*
D15*
%TO.C,U2*%
X116115100Y-104128400D02*
X116115100Y-106871600D01*
X116115100Y-106871600D02*
X116441400Y-106871600D01*
X116441400Y-104128400D02*
X116115100Y-104128400D01*
X117538600Y-106871600D02*
X117916000Y-106871600D01*
X119064000Y-106871600D02*
X119441400Y-106871600D01*
X120538600Y-106871600D02*
X120864900Y-106871600D01*
X120864900Y-104128400D02*
X120538600Y-104128400D01*
X120864900Y-106871600D02*
X120864900Y-104128400D01*
X114845100Y-107354200D02*
G75*
G02*
X115099100Y-107354200I127000J0D01*
G01*
X115099100Y-107354200D02*
G75*
G02*
X114845100Y-107354200I-127000J0D01*
G01*
D14*
%TO.C,U3*%
X168410000Y-104000000D02*
X168410000Y-104300000D01*
X168410000Y-104000000D02*
X168710000Y-104000000D01*
X168410000Y-107000000D02*
X168410000Y-106700000D01*
X168410000Y-107000000D02*
X168710000Y-107000000D01*
X171410000Y-104000000D02*
X171110000Y-104000000D01*
X171410000Y-104000000D02*
X171410000Y-104300000D01*
X171410000Y-107000000D02*
X171110000Y-107000000D01*
X171410000Y-107000000D02*
X171410000Y-106700000D01*
D13*
X167535000Y-104550000D02*
G75*
G02*
X167335000Y-104550000I-100000J0D01*
G01*
X167335000Y-104550000D02*
G75*
G02*
X167535000Y-104550000I100000J0D01*
G01*
%TO.C,U4*%
X139045000Y-103555000D02*
G75*
G02*
X138845000Y-103555000I-100000J0D01*
G01*
X138845000Y-103555000D02*
G75*
G02*
X139045000Y-103555000I100000J0D01*
G01*
D14*
X142312500Y-106065000D02*
X140687500Y-106065000D01*
X142312500Y-102935000D02*
X140687500Y-102935000D01*
D12*
%TO.C,R13*%
X99427742Y-85022500D02*
X99902258Y-85022500D01*
X99427742Y-83977500D02*
X99902258Y-83977500D01*
%TO.C,R8*%
X177252742Y-88977500D02*
X177727258Y-88977500D01*
X177252742Y-90022500D02*
X177727258Y-90022500D01*
%TO.C,R12*%
X134262742Y-105522500D02*
X134737258Y-105522500D01*
X134262742Y-104477500D02*
X134737258Y-104477500D01*
%TO.C,R2*%
X160552258Y-105977500D02*
X160077742Y-105977500D01*
X160552258Y-107022500D02*
X160077742Y-107022500D01*
%TO.C,R11*%
X177737258Y-83977500D02*
X177262742Y-83977500D01*
X177737258Y-85022500D02*
X177262742Y-85022500D01*
%TO.C,R14*%
X134262742Y-104022500D02*
X134737258Y-104022500D01*
X134262742Y-102977500D02*
X134737258Y-102977500D01*
%TO.C,R9*%
X102937742Y-107022500D02*
X103412258Y-107022500D01*
X102937742Y-105977500D02*
X103412258Y-105977500D01*
%TO.C,R10*%
X177252742Y-90977500D02*
X177727258Y-90977500D01*
X177252742Y-92022500D02*
X177727258Y-92022500D01*
%TD*%
M02*
